<?xml version="1.0" standalone="no"?>
<!DOCTYPE svg PUBLIC "-//W3C//DTD SVG 1.1//EN" "http://www.w3.org/Graphics/SVG/1.1/DTD/svg11.dtd" >
<svg xmlns="http://www.w3.org/2000/svg">
<metadata>
Copyright (c) 2015 by Fontsmith Ltd. All rights reserved. This font may not be altered in any way without prior permission of Fontsmith Ltd.
</metadata>
<defs>
<font id="INGNarrowCYWeb-Bold" horiz-adv-x="520" >
  <font-face 
    font-family="ING Narrow CY Web"
    font-weight="700"
    font-stretch="normal"
    units-per-em="1000"
    panose-1="2 0 8 6 4 0 0 2 0 4"
    ascent="750"
    descent="-250"
    x-height="528"
    cap-height="720"
    bbox="-75.8 -252 1176 986"
    underline-thickness="92"
    underline-position="-8"
    unicode-range="U+000D-FB04"
  />
<missing-glyph horiz-adv-x="694" 
d="M90 720h514v-720h-514v720zM522 52l-174 262l-176 -262h350zM316 360l-174 262v-524zM553 622l-175 -262l175 -262v524zM522 669h-350l176 -263z" />
    <glyph glyph-name="fi" unicode="fi" horiz-adv-x="582" 
d="M212 528h112q15 0 15 -17v-62q0 -16 -17 -16h-110v-417q0 -16 -17 -16h-86q-17 0 -17 16v417h-59q-14 0 -14 17v61q0 17 14 17h59v22q0 55 16.5 97t46.5 70.5t71 43.5t89 15q43 0 82.5 -10t68.5 -27q8 -5 9 -10.5t-2 -14.5l-17 -52q-3 -9 -7 -10.5t-12 1.5
q-32 12 -56.5 18t-52.5 6q-55 0 -85.5 -32.5t-30.5 -96.5v-20zM415 0q-17 0 -17 16v496q0 16 17 16h86q17 0 17 -16v-496q0 -16 -17 -16h-86z" />
    <glyph glyph-name="fl" unicode="fl" horiz-adv-x="588" 
d="M392 474v96.5t-2 95.5q-14 4 -33 7t-40 3q-50 0 -77.5 -25.5t-27.5 -94.5v-28h112q15 0 15 -17v-62q0 -16 -17 -16h-110v-417q0 -16 -17 -16h-86q-17 0 -17 16v417h-59q-14 0 -14 17v61q0 17 14 17h59v29q0 110 56 164.5t173 54.5q21 0 43.5 -2.5t44 -6.5t40.5 -9.5
t31 -10.5t17.5 -11.5t6.5 -19.5q2 -25 5 -92t3 -171v-317q0 -24 6 -34.5t21 -10.5h9q7 0 9.5 -2.5t2.5 -12.5v-47q0 -8 -1.5 -13.5t-8.5 -7.5q-24 -8 -56 -8q-30 0 -50 8.5t-31.5 25.5t-16 42.5t-4.5 59.5v338z" />
    <glyph glyph-name="f_f" unicode="ff" horiz-adv-x="642" 
d="M212 433v-417q0 -16 -17 -16h-86q-17 0 -17 16v417h-59q-14 0 -14 17v61q0 17 14 17h59v21q0 219 185 219q34 0 61.5 -6.5t45.5 -14.5q12 -5 7 -20l-19 -58q-5 -17 -18 -12t-29.5 8t-36.5 3q-42 0 -59 -26t-17 -94v-20h188v19q0 110 49 169.5t141 59.5q34 0 61.5 -6.5
t45.5 -14.5q12 -5 7 -20l-19 -58q-5 -17 -18 -12t-29.5 8t-36.5 3q-42 0 -61.5 -26t-19.5 -94v-28h112q15 0 15 -17v-62q0 -16 -17 -16h-110v-417q0 -16 -17 -16h-86q-17 0 -17 16v417h-188z" />
    <glyph glyph-name="f_f_i" unicode="ffi" horiz-adv-x="890" 
d="M723 0q-17 0 -17 16v496q0 16 17 16h86q17 0 17 -16v-496q0 -16 -17 -16h-86zM400 550q0 55 16.5 97t46.5 70.5t71 43.5t89 15q43 0 82.5 -10t68.5 -27q8 -5 9 -10.5t-2 -14.5l-17 -52q-2 -9 -6.5 -10.5t-12.5 1.5q-32 12 -56.5 18t-52.5 6q-55 0 -85.5 -32.5
t-30.5 -96.5v-20h112q15 0 15 -17v-62q0 -16 -17 -16h-110v-417q0 -16 -17 -16h-86q-17 0 -17 16v417h-188v-417q0 -16 -17 -16h-86q-17 0 -17 16v417h-59q-14 0 -14 17v61q0 17 14 17h59v21q0 219 185 219q34 0 61.5 -6.5t45.5 -14.5q12 -5 7 -20l-19 -58q-5 -17 -18 -12
t-29.5 8t-36.5 3q-42 0 -59 -26t-17 -94v-20h188v22z" />
    <glyph glyph-name="f_f_l" unicode="ffl" horiz-adv-x="896" 
d="M700 474v96.5t-2 95.5q-14 4 -33 7t-40 3q-50 0 -77.5 -25.5t-27.5 -94.5v-28h112q15 0 15 -17v-62q0 -16 -17 -16h-110v-417q0 -16 -17 -16h-86q-17 0 -17 16v417h-188v-417q0 -16 -17 -16h-86q-17 0 -17 16v417h-59q-14 0 -14 17v61q0 17 14 17h59v21q0 219 185 219
q34 0 61.5 -6.5t45.5 -14.5q12 -5 7 -20l-19 -58q-5 -17 -18 -12t-29.5 8t-36.5 3q-42 0 -59 -26t-17 -94v-20h188v29q0 110 56 164.5t173 54.5q21 0 43.5 -2.5t44 -6.5t40.5 -9.5t31 -10.5t17 -11.5t7 -19.5q3 -32 5.5 -95.5t2.5 -167.5v-317q0 -24 6 -34.5t21 -10.5h9
q7 0 9.5 -2.5t2.5 -12.5v-47q0 -8 -1.5 -13.5t-8.5 -7.5q-24 -8 -56 -8q-30 0 -50 8.5t-31.5 25.5t-16 42.5t-4.5 59.5v338z" />
    <glyph glyph-name=".notdef" horiz-adv-x="694" 
d="M90 720h514v-720h-514v720zM522 52l-174 262l-176 -262h350zM316 360l-174 262v-524zM553 622l-175 -262l175 -262v524zM522 669h-350l176 -263z" />
    <glyph glyph-name=".null" horiz-adv-x="0" 
 />
    <glyph glyph-name=".null" horiz-adv-x="0" 
 />
    <glyph glyph-name="nonmarkingreturn" unicode="&#xd;" horiz-adv-x="213" 
 />
    <glyph glyph-name="space" unicode=" " horiz-adv-x="213" 
 />
    <glyph glyph-name="nonbreakingspace" unicode="&#xa0;" horiz-adv-x="213" 
 />
    <glyph glyph-name="A" unicode="A" horiz-adv-x="592" 
d="M293 564q-18 -71 -32.5 -126.5t-28.5 -104.5l-17 -59h154l-17 61q-5 17 -13 46t-16.5 62t-16.5 65.5t-13 55.5zM576 20q3 -9 -1 -14.5t-13 -5.5h-90q-20 0 -27 19l-47 156h-213l-45 -156q-5 -19 -27 -19h-83q-21 0 -14 22l212 680q3 10 9 14t19 4h77q13 0 19 -4t9 -14z
" />
    <glyph glyph-name="B" unicode="B" horiz-adv-x="535" 
d="M85 0q-20 0 -20 19v682q0 19 20 19h139q54 0 98 -10.5t75 -33t48 -57.5t17 -85q0 -48 -22 -88t-62 -63q53 -22 85.5 -63t32.5 -108q0 -55 -18.5 -95t-52 -66t-80.5 -38.5t-104 -12.5h-156zM192 101h48q64 0 95 26.5t31 83.5q0 60 -29.5 85.5t-93.5 25.5h-51v-221z
M192 419h37q57 0 81.5 27.5t24.5 75.5t-23.5 72t-82.5 24h-37v-199z" />
    <glyph glyph-name="C" unicode="C" horiz-adv-x="519" 
d="M479 42q-37 -25 -82 -38.5t-93 -13.5q-61 0 -111 22.5t-85.5 67.5t-55 113t-19.5 159q0 92 21 162.5t58 118.5t88.5 72.5t111.5 24.5q51 0 93 -15t77 -42q16 -12 8 -29l-28 -48q-5 -9 -13 -12.5t-16 2.5q-24 17 -53.5 27t-58.5 10q-75 0 -116.5 -66.5t-41.5 -199.5
q0 -60 8.5 -108t27 -81.5t48.5 -51.5t73 -18q29 0 60 8.5t57 23.5q11 6 16 4.5t9 -10.5l25 -53q9 -18 -8 -29z" />
    <glyph glyph-name="D" unicode="D" horiz-adv-x="596" 
d="M85 0q-20 0 -20 19v682q0 19 20 19h153q168 0 246.5 -88.5t78.5 -268.5q0 -197 -94 -289q-41 -39 -96.5 -56.5t-130.5 -17.5h-157zM192 102h50q47 0 82.5 13.5t59.5 44.5t36.5 80t12.5 121q0 60 -9 108t-30.5 81t-57.5 50.5t-90 17.5h-54v-516z" />
    <glyph glyph-name="E" unicode="E" horiz-adv-x="497" 
d="M440 103q20 0 20 -19v-65q0 -19 -21 -19h-354q-20 0 -20 19v682q0 19 20 19h351q20 0 20 -19v-65q0 -19 -20 -19h-244v-202h201q20 0 20 -18v-65q0 -19 -20 -19h-201v-210h248z" />
    <glyph glyph-name="F" unicode="F" horiz-adv-x="465" 
d="M192 313v-294q0 -19 -20 -19h-87q-20 0 -20 19v682q0 19 20 19h336q20 0 20 -19v-65q0 -19 -20 -19h-229v-202h192q20 0 20 -18v-65q0 -19 -20 -19h-192z" />
    <glyph glyph-name="G" unicode="G" horiz-adv-x="588" 
d="M509 31q-30 -17 -79 -29t-112 -12q-141 0 -213 97t-72 271q0 93 21.5 162.5t60.5 116t92 70t116 23.5q111 0 189 -59q17 -13 7 -30l-27 -52q-5 -10 -13 -13t-16 3q-27 20 -59.5 32t-70.5 12q-89 0 -129.5 -67.5t-40.5 -192.5q0 -71 12 -122t34 -83t52.5 -47t67.5 -15
q41 0 78 14v185h-98q-20 0 -20 19v65q0 18 20 18h204q20 0 20 -18v-310q0 -16 -4.5 -23t-19.5 -15z" />
    <glyph glyph-name="H" unicode="H" horiz-adv-x="607" 
d="M415 313h-223v-294q0 -19 -20 -19h-87q-20 0 -20 19v682q0 19 20 19h87q20 0 20 -19v-286h223v286q0 19 20 19h87q20 0 20 -19v-682q0 -19 -20 -19h-87q-20 0 -20 19v294z" />
    <glyph glyph-name="I" unicode="I" horiz-adv-x="263" 
d="M195 19q0 -19 -20 -19h-87q-20 0 -20 19v682q0 19 20 19h87q20 0 20 -19v-682z" />
    <glyph glyph-name="J" unicode="J" horiz-adv-x="415" 
d="M69 117q17 -8 36 -14.5t39 -6.5q28 0 44 10.5t24.5 30t10.5 47t2 61.5v372h-136q-20 0 -20 19v65q0 19 20 19h243q20 0 20 -19v-466q0 -67 -12.5 -113.5t-36.5 -76t-59.5 -42.5t-82.5 -13q-36 0 -68 9t-58 23q-8 4 -10.5 10.5t1.5 18.5l18 55q7 19 25 11z" />
    <glyph glyph-name="K" unicode="K" horiz-adv-x="541" 
d="M192 417h25q13 0 19.5 4t14.5 18l152 263q7 12 12 15t16 3h91q11 0 13.5 -7.5t-3.5 -16.5l-192 -324l185 -350q5 -11 2 -16.5t-11 -5.5h-92q-12 0 -18.5 3.5t-13.5 16.5l-143 273q-6 11 -13 14.5t-18 3.5h-26v-292q0 -19 -20 -19h-87q-20 0 -20 19v682q0 19 20 19h87
q20 0 20 -19v-284z" />
    <glyph glyph-name="L" unicode="L" horiz-adv-x="456" 
d="M85 0q-20 0 -20 19v682q0 19 20 19h87q20 0 20 -19v-598h220q20 0 20 -19v-65q0 -19 -20 -19h-327z" />
    <glyph glyph-name="M" unicode="M" horiz-adv-x="730" 
d="M669 23q1 -23 -23 -23h-76q-23 0 -23 22l-2 217q0 36 -0.5 69.5t-0.5 66.5t0.5 67t1.5 72q-16 -54 -36 -121t-42 -133l-40 -121q-5 -12 -12 -16t-24 -4h-50q-17 0 -24 4t-12 16l-42 119q-22 62 -41 125.5t-38 130.5q0 -26 0.5 -58t0.5 -66.5v-70t-1 -67.5l-6 -230
q0 -22 -21 -22h-74q-14 0 -19 5t-4 18l22 675q1 22 24 22h84q14 0 21 -4t11 -15l80 -235q10 -28 18.5 -53t16.5 -49.5t15.5 -49.5t16.5 -52q16 55 31.5 103t32.5 99l81 237q4 11 11.5 15t19.5 4h79q24 0 24 -22z" />
    <glyph glyph-name="N" unicode="N" horiz-adv-x="626" 
d="M65 701q0 19 20 19h69q15 0 22.5 -3.5t13.5 -14.5l130 -238q38 -70 70 -136t56 -125q-2 65 -2.5 133t-0.5 123v242q0 19 20 19h78q20 0 20 -19v-682q0 -19 -20 -19h-71q-15 0 -21 3t-12 14l-151 284q-34 64 -60.5 117t-48.5 102q3 -72 4.5 -135.5t1.5 -116.5v-249
q0 -19 -20 -19h-78q-20 0 -20 19v682z" />
    <glyph glyph-name="O" unicode="O" horiz-adv-x="603" 
d="M309 624q-72 0 -109 -68.5t-37 -202.5q0 -135 33 -196t98 -61q74 0 110 68.5t36 202.5q0 136 -34 196.5t-97 60.5zM311 730q57 0 104.5 -20.5t82 -64t53.5 -111.5t19 -164q0 -90 -18 -160.5t-53.5 -119t-87 -74.5t-118.5 -26q-57 0 -105 20.5t-82.5 64t-53.5 112
t-19 163.5q0 89 18 159.5t53.5 119.5t87 75t119.5 26z" />
    <glyph glyph-name="P" unicode="P" horiz-adv-x="502" 
d="M192 19q0 -19 -20 -19h-87q-20 0 -20 19v682q0 19 20 19h129q60 0 108.5 -10t82.5 -35.5t52.5 -69t18.5 -109.5q0 -51 -13.5 -94.5t-42 -75.5t-72.5 -50t-104 -18q-12 0 -25 0.5t-27 1.5v-241zM192 364q12 -1 25 -1.5t24 -0.5q31 0 51.5 10t32.5 28t16.5 42.5t4.5 52.5
q0 36 -8.5 59.5t-24.5 37t-39.5 18.5t-54.5 5h-27v-251z" />
    <glyph glyph-name="Q" unicode="Q" horiz-adv-x="603" 
d="M311 730q57 0 104.5 -20.5t82 -64t53.5 -111.5t19 -164q0 -110 -27 -190t-78 -128q19 -26 41.5 -52.5t42.5 -47.5q16 -18 0 -34l-48 -43q-18 -18 -34 -1q-9 9 -20.5 23t-25 31t-27 35.5t-26.5 36.5q-33 -10 -75 -10q-57 0 -105 20.5t-82.5 64t-53.5 112t-19 163.5
q0 89 18 159.5t53.5 119.5t87 75t119.5 26zM309 624q-72 0 -109 -68.5t-37 -202.5q0 -135 33 -196t98 -61q74 0 110 68.5t36 202.5q0 136 -34 196.5t-97 60.5z" />
    <glyph glyph-name="R" unicode="R" horiz-adv-x="535" 
d="M502 26q8 -11 5 -18.5t-16 -7.5h-85q-14 0 -21 3.5t-12 13.5l-118 248q-5 9 -10.5 13.5t-16.5 4.5h-37l1 -264q0 -19 -20 -19h-87q-20 0 -20 19v682q0 19 20 19h136q58 0 105.5 -10t81.5 -34t53 -64.5t19 -102.5q0 -72 -27 -122.5t-90 -79.5zM191 383h45q63 0 88.5 33.5
t25.5 91.5q0 33 -8.5 54.5t-23.5 34t-36.5 17t-46.5 4.5h-44v-235z" />
    <glyph glyph-name="S" unicode="S" horiz-adv-x="484" 
d="M41 54q-15 12 -5 31l27 57q10 19 29 6q28 -21 64 -36.5t70 -15.5q46 0 70.5 26.5t24.5 71.5q0 25 -8 43t-22.5 32.5t-33.5 26.5t-40 24q-39 22 -69 44t-49.5 47t-29.5 55t-10 70q0 44 15 79.5t42 61t64 39.5t81 14t85 -13.5t73 -37.5q16 -11 6 -31l-28 -50
q-10 -20 -29 -7q-22 15 -45.5 25t-52.5 10q-42 0 -64.5 -24t-22.5 -62q0 -21 8.5 -37.5t23.5 -31t34 -27t40 -25.5q27 -17 54.5 -36t50 -44t36.5 -58t14 -77q0 -47 -13.5 -86.5t-40.5 -68t-67.5 -44t-93.5 -15.5q-57 0 -106.5 19t-81.5 45z" />
    <glyph glyph-name="T" unicode="T" horiz-adv-x="475" 
d="M30 617q-20 0 -20 19v65q0 19 20 19h415q20 0 20 -19v-65q0 -19 -20 -19h-144v-598q0 -19 -20 -19h-87q-20 0 -20 19v598h-144z" />
    <glyph glyph-name="U" unicode="U" horiz-adv-x="615" 
d="M554 286q-1 -80 -15.5 -132t-44.5 -88q-61 -76 -191 -76q-64 0 -112 18.5t-78 58.5q-26 33 -39 79t-13 119v436q0 19 20 19h87q20 0 20 -19v-435q0 -51 7.5 -84.5t27.5 -53.5q28 -32 84 -32q54 0 85 34q20 20 27.5 53t7.5 83v435q0 19 20 19h87q20 0 20 -19v-415z" />
    <glyph glyph-name="V" unicode="V" horiz-adv-x="570" 
d="M364 18q-3 -10 -9 -14t-19 -4h-92q-13 0 -19 4t-9 14l-198 682q-3 9 1 14.5t13 5.5h91q22 0 27 -19l73 -286q20 -77 37 -148.5t31 -137.5q11 60 28.5 132.5t33.5 138.5l74 301q5 19 27 19h83q20 0 14 -22z" />
    <glyph glyph-name="W" unicode="W" horiz-adv-x="853" 
d="M675 21q-3 -13 -9.5 -17t-18.5 -4h-93q-14 0 -21 4.5t-9 16.5l-43 219q-14 73 -28.5 151.5t-23.5 146.5q-10 -69 -23 -145t-27 -148l-43 -224q-2 -13 -9 -17t-19 -4h-93q-14 0 -20.5 4.5t-9.5 16.5l-162 677q-6 22 15 22h90q11 0 17.5 -4t9.5 -15l61 -285
q14 -63 24 -133.5t21 -146.5q10 79 20.5 148.5t22.5 129.5l58 286q2 13 8 16.5t20 3.5h83q14 0 20 -4t8 -16l58 -286q11 -55 23 -122t24 -157q10 76 21 143t25 135l58 288q2 11 8 15t19 4h79q11 0 14 -5.5t1 -16.5z" />
    <glyph glyph-name="X" unicode="X" horiz-adv-x="536" 
d="M521 22q5 -9 2 -15.5t-13 -6.5h-87q-14 0 -21.5 3.5t-12.5 14.5l-58 116q-17 34 -31.5 66t-30.5 69l-69 -139l-56 -112q-5 -10 -12.5 -14t-21.5 -4h-85q-11 0 -13.5 6t2.5 16q22 42 46.5 88.5t49.5 93t49 91t46 82.5q-11 23 -28 51.5t-31 55.5l-116 215q-5 8 -1.5 14.5
t13.5 6.5h88q13 0 20.5 -3t12.5 -14l45 -90q20 -41 35.5 -73t30.5 -67q15 32 29.5 63.5t31.5 63.5l52 103q5 10 12 13.5t21 3.5h84q10 0 12.5 -6t-2.5 -14l-113 -206l-66 -118q13 -25 26.5 -51.5t27.5 -52.5z" />
    <glyph glyph-name="Y" unicode="Y" horiz-adv-x="515" 
d="M319 283v-264q0 -19 -20 -19h-87q-20 0 -20 19v264l-182 417q-8 20 13 20h87q15 0 22.5 -4t12.5 -15l64 -157q15 -38 29.5 -77t23.5 -69q11 34 24 70.5t29 76.5l63 157q5 11 12 14.5t21 3.5h80q22 0 13 -20z" />
    <glyph glyph-name="Z" unicode="Z" horiz-adv-x="505" 
d="M323 617h-256q-20 0 -20 19v65q0 19 20 19h373q20 0 20 -19v-51q0 -15 -4 -26t-12 -26l-274 -495h280q20 0 20 -19v-65q0 -19 -20 -19h-395q-20 0 -20 19v49q0 16 4.5 28t12.5 28z" />
    <glyph glyph-name="a" unicode="a" horiz-adv-x="512" 
d="M329 384q-30 50 -75 50q-48 0 -71.5 -46.5t-23.5 -129.5q0 -167 91 -167q39 0 57 25q11 15 16.5 41.5t5.5 70.5v156zM460 16q1 -16 -17 -16h-67q-18 0 -22 15q-3 9 -6.5 22t-6.5 28q-16 -32 -46 -53.5t-72 -21.5q-40 0 -74.5 16.5t-59.5 49.5t-39.5 82.5t-14.5 115.5
q0 69 15.5 122t41.5 89t61.5 54.5t76.5 18.5q35 0 63.5 -15t48.5 -41l5 28q1 11 6 14.5t16 3.5h63q19 0 19 -16q0 -12 -0.5 -34t-0.5 -48t-0.5 -54t-0.5 -53v-97q0 -71 3 -121t8 -89z" />
    <glyph glyph-name="b" unicode="b" horiz-adv-x="514" 
d="M181 103q12 -6 28.5 -9t33.5 -3q58 0 85 43t27 140q0 87 -24 124t-66 37q-22 0 -39.5 -7.5t-28.5 -20.5q-10 -12 -13 -33t-3 -61v-210zM181 490q18 23 48 35.5t68 12.5q45 0 79.5 -19t57 -53.5t34 -83t11.5 -108.5q0 -284 -240 -284q-22 0 -46.5 3t-47 8t-42 11.5
t-30.5 13.5q-8 5 -10 12.5t-2 14.5v697q0 16 17 16h86q17 0 17 -16v-260z" />
    <glyph glyph-name="c" unicode="c" horiz-adv-x="441" 
d="M413 485q9 -8 9 -16t-5 -16l-25 -47q-10 -20 -27 -7q-20 16 -44 25.5t-49 9.5q-50 0 -81.5 -41.5t-31.5 -126.5q0 -84 29.5 -128t90.5 -44q24 0 45 6.5t41 17.5q8 5 14 3.5t11 -12.5l19 -45q5 -11 4 -18t-9 -12q-31 -21 -68 -32.5t-78 -11.5q-103 0 -163 69t-60 200
q0 72 18 125t49 87t73 50.5t89 16.5q42 0 79.5 -14t69.5 -39z" />
    <glyph glyph-name="d" unicode="d" horiz-adv-x="527" 
d="M332 393q-35 41 -75 41q-98 0 -98 -179q0 -85 25 -123.5t68 -38.5q40 0 60 29q11 17 15.5 43t4.5 62v166zM343 54q-20 -32 -50.5 -48t-68.5 -16q-44 0 -78.5 18t-59.5 52.5t-38 83.5t-13 111q0 40 9.5 89.5t32 92t60.5 71.5t94 29t101 -38v251q0 16 17 16h86q17 0 17 -16
v-619q0 -19 6.5 -27.5t24.5 -10.5q15 -1 15 -17v-49q0 -18 -17 -23q-19 -7 -51 -7q-28 0 -51.5 14t-35.5 43z" />
    <glyph glyph-name="e" unicode="e" horiz-adv-x="493" 
d="M454 269q0 -29 -5 -39t-16 -10h-274q5 -68 35 -97.5t83 -29.5q30 0 62 9t59 23q10 5 14.5 2t8.5 -12l20 -49q4 -11 1.5 -17t-12.5 -12q-35 -23 -78.5 -35t-90.5 -12q-106 0 -166 69t-60 197q0 63 15.5 115t44 89t69 57.5t90.5 20.5q51 0 88.5 -21t62.5 -57t37 -85
t12 -106zM334 311q-5 60 -24 93t-57 33t-62.5 -31t-31.5 -95h175z" />
    <glyph glyph-name="f" unicode="f" horiz-adv-x="334" 
d="M212 16q0 -16 -17 -16h-86q-17 0 -17 16v417h-59q-14 0 -14 17v61q0 17 14 17h59v29q0 110 49 164.5t141 54.5q34 0 61.5 -6.5t45.5 -14.5q12 -5 7 -20l-19 -58q-5 -17 -18 -12t-29.5 8t-36.5 3q-42 0 -61.5 -26t-19.5 -94v-28h112q15 0 15 -17v-62q0 -16 -17 -16h-110
v-417z" />
    <glyph glyph-name="g" unicode="g" horiz-adv-x="512" 
d="M354 511q2 9 6.5 13t17.5 4h47q19 0 22 -14q3 -17 4.5 -68.5t1.5 -141.5v-213q0 -55 -1 -97t-5.5 -74t-13.5 -56.5t-26 -44.5q-30 -37 -71.5 -53.5t-99.5 -16.5q-19 0 -38.5 2t-38 5.5t-34.5 8t-28 9.5q-8 4 -11 9t0 16l15 57q3 11 8 14.5t16 -0.5q20 -8 48.5 -13.5
t55.5 -5.5q29 0 50.5 7t34.5 27q11 16 15 40.5t4 58.5v65q-17 -22 -45 -38.5t-64 -16.5q-45 0 -80 19t-59 53.5t-37 83.5t-13 109q0 66 15 118t41 87.5t62.5 54.5t78.5 19q36 0 66.5 -15t51.5 -43zM253 97q47 0 65 30q10 16 12.5 43t2.5 62v147q-12 28 -34 41.5t-46 13.5
q-20 0 -37 -9.5t-29.5 -30.5t-20 -54t-7.5 -80q0 -84 24.5 -123.5t69.5 -39.5z" />
    <glyph glyph-name="h" unicode="h" horiz-adv-x="518" 
d="M61 750q0 16 17 16h86q17 0 17 -16v-262q21 23 53.5 36.5t67.5 13.5q38 0 68.5 -13t51.5 -39q22 -29 31.5 -67.5t9.5 -97.5v-305q0 -16 -18 -16h-85q-17 0 -17 16v270q0 51 -3.5 76t-13.5 40q-17 27 -59 27q-37 0 -60 -20q-12 -11 -17 -25t-7 -35q-2 -17 -2 -45.5v-60.5
v-227q0 -16 -17 -16h-86q-17 0 -17 16v734z" />
    <glyph glyph-name="i" unicode="i" horiz-adv-x="248" 
d="M81 0q-17 0 -17 16v496q0 16 17 16h86q17 0 17 -16v-496q0 -16 -17 -16h-86zM77 627q-18 0 -18 17v101q0 17 18 17h94q19 0 19 -17v-101q0 -17 -19 -17h-94z" />
    <glyph glyph-name="j" unicode="j" horiz-adv-x="254" 
d="M83 627q-18 0 -18 17v101q0 17 18 17h94q19 0 19 -17v-101q0 -17 -19 -17h-94zM-41 -127q10 -2 21.5 -4t21.5 -2q38 0 53 27t15 95v523q0 16 17 16h86q17 0 17 -16v-508q0 -65 -12 -110.5t-34.5 -73.5t-54.5 -40.5t-71 -12.5q-24 0 -46 5t-35 11q-16 8 -12 25l10 49
q4 20 24 16z" />
    <glyph glyph-name="k" unicode="k" horiz-adv-x="466" 
d="M181 16q0 -16 -17 -16h-86q-17 0 -17 16v734q0 16 17 16h86q17 0 17 -16v-434h18q6 0 9 2t8 10l108 177q9 15 16.5 19t20.5 4h80q8 0 11.5 -6.5t-1.5 -14.5l-146 -231l158 -252q6 -10 3.5 -17t-9.5 -7h-92q-12 0 -17.5 4.5t-10.5 13.5l-120 191q-7 10 -17 10h-19v-203z
" />
    <glyph glyph-name="l" unicode="l" horiz-adv-x="254" 
d="M216 8q-24 -8 -56 -8q-30 0 -50 8.5t-31.5 25.5t-16 42.5t-4.5 59.5v340q0 37 -1 78.5t-2 80t-2 69.5t-2 47q-1 15 16 15h84q18 0 19 -16q1 -12 2 -40.5t2.5 -67.5t2.5 -87t1 -100v-319q0 -24 6 -34.5t21 -10.5h9q7 0 9.5 -2.5t2.5 -12.5v-47q0 -8 -1.5 -13.5t-8.5 -7.5z
" />
    <glyph glyph-name="m" unicode="m" horiz-adv-x="795" 
d="M175 472q18 26 51.5 45.5t74.5 19.5q43 0 75 -21t52 -59q26 37 64 59t91 22q78 0 117.5 -52.5t39.5 -164.5v-305q0 -16 -18 -16h-85q-17 0 -17 16v270q0 49 -5 77.5t-15 43t-25 18.5t-34 4q-16 0 -29.5 -4t-23.5 -13q-21 -19 -23.5 -55t-2.5 -103v-238q0 -16 -17 -16h-86
q-17 0 -17 16v270q0 49 -5.5 77.5t-15.5 43t-25 18.5t-33 4q-17 0 -30 -3.5t-24 -13.5q-20 -18 -23 -54.5t-3 -103.5v-238q0 -16 -17 -16h-86q-17 0 -17 16v273q0 29 -0.5 60.5t-1.5 61.5t-1.5 56.5t-1.5 44.5q0 16 17 16h76q10 0 13.5 -3.5t5.5 -11.5q3 -17 5 -41z" />
    <glyph glyph-name="n" unicode="n" 
d="M465 16q0 -16 -17 -16h-86q-17 0 -17 16v270q0 45 -5 73t-15 43.5t-25 21t-34 5.5q-35 0 -57 -19q-11 -9 -16.5 -22t-7.5 -31.5t-2 -44v-58.5v-238q0 -16 -17 -16h-86q-17 0 -17 16v273q0 29 -0.5 60.5t-1.5 61.5t-1.5 56.5t-1.5 44.5q0 16 17 16h76q10 0 13.5 -3.5
t5.5 -11.5q3 -17 5 -41q20 30 55 48t74 18q81 0 121 -52.5t40 -164.5v-305z" />
    <glyph glyph-name="o" unicode="o" horiz-adv-x="506" 
d="M260 538q100 0 155.5 -67.5t55.5 -195.5q0 -139 -57 -212t-168 -73q-99 0 -155 66.5t-56 198.5q0 138 58 210.5t167 72.5zM258 434q-51 0 -75 -44.5t-24 -130.5q0 -76 20.5 -120.5t68.5 -44.5q51 0 75 44.5t24 130.5q0 78 -21 121.5t-68 43.5z" />
    <glyph glyph-name="p" unicode="p" horiz-adv-x="514" 
d="M183 131q30 -38 76 -38q48 0 72 46.5t24 133.5t-24 124.5t-69 37.5q-20 0 -38 -7.5t-27 -21.5q-9 -12 -11.5 -29.5t-2.5 -51.5v-194zM175 476q22 29 54 45.5t69 16.5q43 0 77 -19.5t57 -54.5t35 -84t12 -107q0 -27 -4 -58.5t-13 -63t-24 -60.5t-36.5 -51.5t-50.5 -36
t-67 -13.5q-25 0 -51.5 9.5t-49.5 27.5v-252q0 -17 -17 -17h-86q-17 0 -17 17v568q0 49 -1.5 94.5t-3.5 74.5q0 16 17 16h77q10 0 13.5 -3.5t5.5 -11.5q2 -11 4 -37z" />
    <glyph glyph-name="q" unicode="q" horiz-adv-x="501" 
d="M329 426q-14 6 -30 8.5t-30 2.5q-54 0 -82 -44t-28 -138q0 -89 24.5 -125.5t65.5 -36.5q43 0 64 27q10 12 13 31.5t3 57.5v217zM344 -223q-5 34 -10 104t-5 162q-17 -23 -47 -38t-69 -15q-82 0 -130 68t-48 196q0 71 18.5 124.5t51.5 89t77.5 53t96.5 17.5
q16 0 35.5 -2.5t40 -7.5t40.5 -12t36 -16q18 -10 18 -34v-398q0 -41 1 -83t3.5 -80.5t5 -71.5t5.5 -54t-20 -21h-74q-23 0 -26 19z" />
    <glyph glyph-name="r" unicode="r" horiz-adv-x="351" 
d="M178 422q29 64 65.5 89.5t73.5 25.5q16 0 24 -4.5t8 -16.5v-68q0 -18 -17 -19q-41 -2 -71.5 -20.5t-47.5 -50.5q-16 -29 -23 -79t-7 -125v-138q0 -16 -17 -16h-86q-17 0 -17 16v276q0 29 -0.5 60t-1.5 60.5t-2 55t-2 44.5q-1 16 17 16h77q10 0 13.5 -3.5t5.5 -11.5
q2 -14 4 -38t4 -53z" />
    <glyph glyph-name="s" unicode="s" horiz-adv-x="419" 
d="M319 412q-18 13 -40.5 20.5t-45.5 7.5q-30 0 -50 -14t-20 -42q0 -26 19 -38t45 -23q25 -9 53.5 -19.5t51.5 -28t38.5 -45t15.5 -70.5q0 -38 -13.5 -69.5t-37.5 -54t-58.5 -34.5t-76.5 -12q-47 0 -89 15t-74 39q-14 11 -5 30l26 46q11 20 26 9q54 -41 110 -41q34 0 55 17
t21 44q0 15 -7.5 26t-20.5 18.5t-29.5 14t-34.5 12.5q-25 8 -48.5 20t-42 30t-29.5 44t-11 62t14 65.5t39 51t57.5 33.5t70.5 12q40 0 76.5 -12t65.5 -35q16 -13 5 -30l-27 -42q-7 -11 -13.5 -11.5t-15.5 4.5z" />
    <glyph glyph-name="t" unicode="t" horiz-adv-x="362" 
d="M321 100q13 5 18 -12l14 -48q3 -11 0.5 -16.5t-12.5 -10.5q-23 -11 -50 -17t-53 -6q-43 0 -72 10t-46.5 31.5t-25 55t-7.5 79.5v267h-66q-16 0 -16 17v61q0 17 16 17h66v139q0 16 17 16h86q17 0 17 -16v-139h107q16 0 16 -17v-61q0 -17 -16 -17h-107v-267q0 -45 14 -60.5
t45 -15.5q11 0 26 2.5t29 7.5z" />
    <glyph glyph-name="u" unicode="u" 
d="M461 16q1 -16 -18 -16h-77q-18 0 -19 16l-4 38q-21 -29 -51.5 -46.5t-68.5 -17.5q-85 0 -128 54q-22 28 -31 69t-9 95v304q0 16 17 16h86q17 0 17 -16v-282q0 -34 3 -59t13 -42t26 -24.5t34 -7.5q37 0 60 21q20 18 22 54t2 98v242q0 16 18 16h85q17 0 17 -16v-271
q0 -30 0.5 -62t1.5 -62t2 -56.5t2 -44.5z" />
    <glyph glyph-name="v" unicode="v" horiz-adv-x="460" 
d="M290 20q-5 -12 -13 -16t-22 -4h-58q-13 0 -20 3.5t-12 14.5l-158 491q-6 19 13 19h86q11 0 17.5 -3t8.5 -12l61 -216q4 -13 9.5 -33.5t11.5 -43.5t11.5 -45.5t9.5 -39.5q13 37 26.5 85t26.5 99t24.5 101t19.5 92q3 16 23 16h79q18 0 14 -19q-14 -63 -32.5 -131
t-39.5 -132.5t-43.5 -123t-42.5 -102.5z" />
    <glyph glyph-name="w" unicode="w" horiz-adv-x="698" 
d="M458 325q10 -42 19 -88.5t19 -106.5q20 72 37.5 165t36.5 218q2 8 6 11.5t15 3.5h77q16 0 13 -19q-20 -115 -51.5 -240.5t-69.5 -248.5q-4 -11 -10 -15.5t-19 -4.5h-79q-24 0 -29 20l-48 209q-9 38 -15.5 82t-11.5 84q-2 -18 -4.5 -39t-6 -43t-8 -43.5t-8.5 -40.5
l-51 -209q-5 -20 -29 -20h-79q-24 0 -29 20l-124 490q-2 10 3 14t14 4h78q11 0 17 -2t8 -13l42 -192q10 -45 19 -97t14 -96q9 46 19.5 91t22.5 99l42 191q2 12 7.5 15.5t18.5 3.5h76q13 0 18 -4t8 -15z" />
    <glyph glyph-name="x" unicode="x" horiz-adv-x="449" 
d="M444 20q5 -8 2.5 -14t-13.5 -6h-85q-11 0 -18.5 3t-12.5 12l-94 174l-89 -174q-5 -9 -12 -12t-18 -3h-78q-11 0 -13.5 6.5t2.5 14.5l149 257l-139 230q-5 8 -2.5 14t13.5 6h84q22 0 30 -15l77 -146l77 146q5 9 11 12t19 3h78q11 0 13.5 -6t-2.5 -14l-134 -225z" />
    <glyph glyph-name="y" unicode="y" horiz-adv-x="524" 
d="M462 1q0 -130 -48 -188q-27 -32 -71 -48.5t-101 -16.5q-38 0 -72 6.5t-60 15.5q-8 3 -11.5 8t-0.5 16l9 58q2 10 6 13.5t14 1.5q24 -6 53 -11t53 -5q37 0 60.5 10t34.5 25q12 16 18 40t6 66v60q-23 -26 -54 -44t-73 -18q-46 0 -78 14t-52 39q-23 28 -31.5 69.5t-8.5 95.5
v304q0 16 15 16h90q15 0 15 -16v-264q0 -55 2 -81t13 -41q20 -27 61 -27q21 0 36 5t28 16q13 10 17.5 23.5t6.5 31.5q2 20 2.5 45.5t0.5 66.5v225q0 16 16 16h89q15 0 15 -16v-511z" />
    <glyph glyph-name="z" unicode="z" horiz-adv-x="413" 
d="M243 433h-193q-16 0 -16 18v60q0 17 16 17h317q17 0 17 -17v-28q0 -25 -14 -47l-202 -341h202q17 0 17 -18v-60q0 -17 -17 -17h-326q-16 0 -16 17v34q0 13 3.5 23.5t11.5 23.5z" />
    <glyph glyph-name="ampersand" unicode="&#x26;" horiz-adv-x="623" 
d="M261 93q36 0 68 16.5t58 45.5l-173 182q-36 -20 -55.5 -53.5t-19.5 -76.5q0 -49 33 -81.5t89 -32.5zM212 555q0 -55 52 -106q47 27 62.5 54.5t15.5 52.5q0 29 -14.5 51.5t-48.5 22.5q-29 0 -48 -19t-19 -56zM458 84q-38 -43 -90 -69t-121 -26q-54 0 -97.5 16t-73.5 44
t-46.5 66t-16.5 81q0 38 11.5 69t31 56.5t46 45t55.5 33.5q-32 37 -48.5 73t-16.5 80q0 43 17.5 76.5t45.5 55.5t62 33.5t67 11.5q36 0 67.5 -11.5t55 -33.5t36.5 -52.5t13 -67.5q0 -53 -30.5 -98.5t-99.5 -83.5l122 -131q13 32 19 65t8 69q1 9 4.5 14t14.5 5h69
q13 0 15.5 -6t2.5 -15q-5 -54 -21.5 -106.5t-39.5 -100.5l93 -92q15 -14 1 -28l-50 -52q-8 -8 -14.5 -9t-14.5 7z" />
    <glyph glyph-name="at" unicode="@" horiz-adv-x="737" 
d="M357 -10q-73 0 -134 22.5t-105 66t-68.5 105.5t-24.5 142q0 93 28.5 167.5t79 127t118.5 81t147 28.5q71 0 130 -21.5t101 -61t65 -96.5t23 -128q0 -46 -13.5 -93t-39 -84.5t-62 -61t-82.5 -23.5q-39 0 -62.5 15.5t-34.5 40.5q-14 -23 -41 -39.5t-60 -16.5
q-29 0 -52.5 12t-40.5 33t-26.5 50t-9.5 64q0 50 16 92t41.5 72.5t58 47.5t65.5 17q29 0 47.5 -11.5t32.5 -30.5l6 19q3 12 18 12h57q19 0 16 -17l-39 -212q-2 -10 -3 -18.5t-1 -16.5q0 -17 5.5 -27t22.5 -10q20 0 36.5 15t28 40t18 58.5t6.5 69.5q0 52 -16 94t-45.5 71
t-71.5 44.5t-95 15.5q-66 0 -118 -24.5t-88 -66.5t-54.5 -99t-18.5 -122q0 -127 67 -195.5t185 -68.5q42 0 84 7.5t78 19.5q10 4 12 -6l9 -45q2 -8 0.5 -11.5t-6.5 -5.5q-39 -18 -90.5 -28t-99.5 -10zM438 443q-10 14 -23.5 22t-30.5 8q-21 0 -37.5 -15t-27.5 -37t-16.5 -48
t-5.5 -48q0 -85 47 -85q17 0 30 9.5t23 25.5q8 15 14.5 35t11.5 49z" />
    <glyph glyph-name="exclam" unicode="!" horiz-adv-x="266" 
d="M180 250q0 -13 -15 -13h-62q-15 0 -15 13l-18 452q0 18 19 18h88q19 0 19 -18zM87 0q-20 0 -20 19v104q0 19 20 19h91q21 0 21 -19v-104q0 -19 -21 -19h-91z" />
    <glyph glyph-name="exclamdown" unicode="&#xa1;" horiz-adv-x="266" 
d="M180 277.983q0 12.999 -15 12.999h-62q-15 0 -15 -12.999l-18 -451.973q0 -17.999 19 -17.999h88q19 0 19 17.999zM87 527.968q-20 0 -20 -18.999v-103.993q0 -18.999 20 -18.999h91q21 0 21 18.999v103.993q0 18.999 -21 18.999h-91z" />
    <glyph glyph-name="question" unicode="?" horiz-adv-x="397" 
d="M217 253q0 -8 -3 -12t-12 -4h-82q-9 0 -12 4t-3 12v24q0 61 25 97t62 65q32 25 48 48t16 59q0 37 -20 58t-60 21q-26 0 -56.5 -8.5t-50.5 -20.5q-7 -4 -13 -3.5t-9 8.5l-24 58q-3 8 -3 15.5t11 13.5q33 18 72 30t84 12q40 0 75.5 -11t62 -32.5t42 -54.5t15.5 -77
q0 -36 -10 -64t-26.5 -50t-37 -40t-41.5 -34q-28 -22 -39 -41t-11 -49v-24zM114 0q-20 0 -20 19v104q0 19 20 19h91q21 0 21 -19v-104q0 -19 -21 -19h-91z" />
    <glyph glyph-name="questiondown" unicode="&#xbf;" horiz-adv-x="397" 
d="M194.988 274.983q0 7.99902 3 11.999q2.99902 4 11.999 4h81.9951q8.99902 0 11.999 -4t3 -11.999v-23.999q0 -60.9961 -24.999 -96.9941q-24.998 -35.9971 -61.9961 -64.9961q-31.998 -24.998 -47.9971 -47.9971q-15.999 -22.998 -15.999 -58.9961
q0 -36.998 19.999 -57.9961q19.999 -20.999 59.9961 -20.999q25.999 0 56.4971 8.5q30.498 8.49902 50.4971 20.498q6.99902 4 12.999 3.5q5.99902 -0.5 8.99902 -8.49902l23.999 -57.9971q3 -7.99902 3 -15.499q0 -7.49902 -11 -13.499q-32.998 -17.999 -71.9951 -29.998
q-38.998 -11.999 -83.9951 -11.999q-39.998 0 -75.4951 10.999q-35.498 10.999 -61.9961 32.498q-26.499 21.499 -41.998 54.4961q-15.499 32.998 -15.499 76.9961q0 35.9971 10 63.9961q9.99902 27.998 26.498 49.9971q16.499 21.998 36.998 39.9971
q20.498 17.999 41.4971 33.998q27.998 21.999 38.9971 40.9971q11 18.999 11 48.9971v23.999zM297.981 527.968q19.999 0 19.999 -18.999v-103.993q0 -18.999 -19.999 -18.999h-90.9941q-20.999 0 -20.999 18.999v103.993q0 18.999 20.999 18.999h90.9941z" />
    <glyph glyph-name="asterisk" unicode="*" horiz-adv-x="372" 
d="M318 437q4 -5 5 -9t-7 -10l-50 -39q-5 -5 -10 -4.5t-10 8.5l-60 99l-62 -102q-5 -8 -10 -8.5t-10 4.5l-50 40q-10 9 -2 19l84 88l-112 30q-16 4 -10 19l21 60q3 9 7 10.5t12 -1.5l99 -49l-12 123q-1 7 3.5 11t12.5 4h60q6 0 10.5 -4.5t3.5 -10.5l-12 -123l98 48
q14 7 20 -9l21 -60q3 -8 0.5 -12.5t-13.5 -7.5l-109 -28z" />
    <glyph glyph-name="period" unicode="." horiz-adv-x="240" 
d="M72 0q-20 0 -20 19v104q0 19 20 19h95q21 0 21 -19v-104q0 -19 -21 -19h-95z" />
    <glyph glyph-name="comma" unicode="," horiz-adv-x="240" 
d="M78 -169q-17 0 -14 18l27 152l-22 12q-10 5 -13.5 11.5t-3.5 21.5v77q0 19 18 19h96q19 0 19 -19v-50q0 -35 -4.5 -59.5t-13.5 -52.5l-37 -112q-4 -11 -7.5 -14.5t-14.5 -3.5h-30z" />
    <glyph glyph-name="colon" unicode=":" horiz-adv-x="240" 
d="M72 0q-20 0 -20 19v104q0 19 20 19h95q21 0 21 -19v-104q0 -19 -21 -19h-95zM72 365q-20 0 -20 19v104q0 19 20 19h95q21 0 21 -19v-104q0 -19 -21 -19h-95z" />
    <glyph glyph-name="semicolon" unicode=";" horiz-adv-x="240" 
d="M78 -169q-17 0 -14 18l27 152l-22 12q-10 5 -13.5 11.5t-3.5 21.5v77q0 19 18 19h96q19 0 19 -19v-50q0 -35 -4.5 -59.5t-13.5 -52.5l-37 -112q-4 -11 -7.5 -14.5t-14.5 -3.5h-30zM69 365q-20 0 -20 19v104q0 19 20 19h95q21 0 21 -19v-104q0 -19 -21 -19h-95z" />
    <glyph glyph-name="ellipsis" unicode="&#x2026;" horiz-adv-x="720" 
d="M72 0q-20 0 -20 19v104q0 19 20 19h95q21 0 21 -19v-104q0 -19 -21 -19h-95zM312 0q-20 0 -20 19v104q0 19 20 19h95q21 0 21 -19v-104q0 -19 -21 -19h-95zM552 0q-20 0 -20 19v104q0 19 20 19h95q21 0 21 -19v-104q0 -19 -21 -19h-95z" />
    <glyph glyph-name="periodcentered" unicode="&#xb7;" horiz-adv-x="240" 
d="M72 291q-20 0 -20 19v104q0 19 20 19h95q21 0 21 -19v-104q0 -19 -21 -19h-95z" />
    <glyph glyph-name="uni22C5" unicode="&#x22c5;" horiz-adv-x="240" 
d="M72 291q-20 0 -20 19v104q0 19 20 19h95q21 0 21 -19v-104q0 -19 -21 -19h-95z" />
    <glyph glyph-name="bullet" unicode="&#x2022;" horiz-adv-x="334" 
d="M87 241q-29 0 -29 33v175q0 34 29 34h159q30 0 30 -34v-175q0 -33 -30 -33h-159z" />
    <glyph glyph-name="slash" unicode="/" horiz-adv-x="337" 
d="M126 9q-4 -15 -18 -15h-76q-15 0 -11 16l190 702q4 15 18 15h76q15 0 11 -16z" />
    <glyph glyph-name="parenleft" unicode="(" horiz-adv-x="302" 
d="M195 -141q-29 38 -55 84.5t-46 102.5t-32 121.5t-12 142.5q0 76 12.5 144.5t33 126t47 104t53.5 78.5q12 14 27 4l48 -29q11 -6 11 -13.5t-6 -17.5q-44 -72 -71 -170.5t-27 -224.5q0 -63 6 -116.5t18 -101t30.5 -91.5t43.5 -88q6 -10 6 -17.5t-11 -13.5l-49 -29
q-16 -10 -27 4z" />
    <glyph glyph-name="brokenbar" unicode="&#xa6;" horiz-adv-x="252" 
d="M89 365q-17 0 -17 16v369q0 16 17 16h74q17 0 17 -16v-369q0 -16 -17 -16h-74zM89 -242q-17 0 -17 16v369q0 16 17 16h74q17 0 17 -16v-369q0 -16 -17 -16h-74z" />
    <glyph glyph-name="parenright" unicode=")" horiz-adv-x="302" 
d="M107 -141q-11 -14 -27 -4l-49 29q-11 6 -11 13.5t6 17.5q25 44 43.5 88t30.5 91.5t18 101t6 116.5q0 126 -27 224.5t-71 170.5q-6 10 -6 17.5t11 13.5l48 29q15 10 27 -4q27 -32 53.5 -78.5t47 -104t33 -126t12.5 -144.5q0 -77 -12 -142.5t-32 -121.5t-46.5 -102.5
t-54.5 -84.5z" />
    <glyph glyph-name="bracketleft" unicode="[" horiz-adv-x="299" 
d="M175 -44h94q13 0 13 -13v-62q0 -13 -13 -13h-191q-13 0 -13 13v859q0 13 13 13h191q13 0 13 -13v-62q0 -13 -13 -13h-94v-709z" />
    <glyph glyph-name="backslash" unicode="\" horiz-adv-x="337" 
d="M21 711q-4 16 11 16h76q14 0 18 -15l190 -702q4 -16 -11 -16h-76q-14 0 -18 15z" />
    <glyph glyph-name="bracketright" unicode="]" horiz-adv-x="299" 
d="M124 665h-94q-13 0 -13 13v62q0 13 13 13h191q13 0 13 -13v-859q0 -13 -13 -13h-191q-13 0 -13 13v62q0 13 13 13h94v709z" />
    <glyph glyph-name="braceleft" unicode="{" horiz-adv-x="293" 
d="M236 -128q-81 0 -115.5 41t-34.5 126v122q0 54 -9.5 76.5t-38.5 28.5q-13 3 -13 13v68q0 11 13 13q29 5 38.5 26.5t9.5 73.5v119q0 87 35.5 130.5t115.5 43.5h28q13 0 13 -13v-62q0 -13 -13 -13h-17q-21 0 -31.5 -10t-15 -25.5t-5 -35.5t-0.5 -41v-99q0 -48 -15 -86.5
t-51 -55.5q19 -9 31.5 -24t20 -34.5t10.5 -42t3 -45.5v-97q0 -26 1 -46.5t5.5 -34.5t15 -21t30.5 -7h18q13 0 13 -13v-62q0 -13 -13 -13h-29z" />
    <glyph glyph-name="bar" unicode="|" horiz-adv-x="252" 
d="M89 -242q-17 0 -17 16v976q0 16 17 16h74q17 0 17 -16v-976q0 -16 -16 -16h-75z" />
    <glyph glyph-name="braceright" unicode="}" horiz-adv-x="293" 
d="M28 -128q-13 0 -13 13v62q0 13 13 13h18q19 0 30 7t15.5 21t5.5 34.5t1 46.5v97q0 23 3 45.5t10.5 42t20 34.5t31.5 24q-36 17 -51 55.5t-15 86.5v99q0 21 -0.5 41t-5 35.5t-15 25.5t-31.5 10h-17q-13 0 -13 13v62q0 13 13 13h28q80 0 115.5 -43.5t35.5 -130.5v-119
q0 -52 9.5 -73.5t38.5 -26.5q13 -2 13 -13v-68q0 -10 -13 -13q-29 -6 -38.5 -28.5t-9.5 -76.5v-122q0 -85 -34.5 -126t-115.5 -41h-29z" />
    <glyph glyph-name="hyphen" unicode="-" horiz-adv-x="373" 
d="M325 263q0 -17 -14 -17h-249q-14 0 -14 17v61q0 17 14 17h249q14 0 14 -17v-61z" />
    <glyph glyph-name="uni00AD" unicode="&#xad;" horiz-adv-x="373" 
d="M325 263q0 -17 -14 -17h-249q-14 0 -14 17v61q0 17 14 17h249q14 0 14 -17v-61z" />
    <glyph glyph-name="endash" unicode="&#x2013;" horiz-adv-x="500" 
d="M480 263q0 -17 -14 -17h-432q-14 0 -14 17v61q0 17 14 17h432q14 0 14 -17v-61z" />
    <glyph glyph-name="emdash" unicode="&#x2014;" horiz-adv-x="1000" 
d="M960 263q0 -17 -15 -17h-890q-15 0 -15 17v61q0 17 15 17h890q15 0 15 -17v-61z" />
    <glyph glyph-name="underscore" unicode="_" horiz-adv-x="440" 
d="M452 -194q0 -17 -14 -17h-436q-14 0 -14 17v57q0 17 14 17h436q14 0 14 -17v-57z" />
    <glyph glyph-name="dagger" unicode="&#x2020;" horiz-adv-x="425" 
d="M267 -121q0 -16 -15 -16h-79q-15 0 -15 16v515h-125q-15 0 -15 17v65q0 17 15 17h125v211q0 16 15 16h79q15 0 15 -16v-211h125q15 0 15 -17v-65q0 -17 -15 -17h-125v-515z" />
    <glyph glyph-name="daggerdbl" unicode="&#x2021;" horiz-adv-x="425" 
d="M267 85v-206q0 -16 -15 -16h-79q-15 0 -15 16v206h-125q-15 0 -15 17v65q0 17 15 17h125v215h-125q-15 0 -15 17v65q0 17 15 17h125v206q0 16 15 16h79q15 0 15 -16v-206h125q15 0 15 -17v-65q0 -17 -15 -17h-125v-215h125q15 0 15 -17v-65q0 -17 -15 -17h-125z" />
    <glyph glyph-name="section" unicode="&#xa7;" horiz-adv-x="471" 
d="M67 7q-7 6 -8.5 13t3.5 17l25 44q6 11 12 11.5t14 -4.5q20 -13 46 -21.5t50 -8.5q32 0 53 14t21 44q0 24 -18.5 37t-46 23t-60 19.5t-60 26.5t-46 44.5t-18.5 72.5q0 39 20 73.5t51 57.5q-15 17 -24 41t-9 56q0 39 14.5 69.5t39 51.5t57 31.5t68.5 10.5q39 0 77 -12.5
t69 -35.5q7 -6 8.5 -13t-3.5 -17l-25 -45q-6 -11 -12 -12t-14 5q-23 17 -46 25t-49 8q-25 0 -46.5 -12t-21.5 -43q0 -24 18 -37t45.5 -23t59.5 -20t59.5 -27t45.5 -45t18 -73q0 -43 -20.5 -78t-45.5 -55q14 -16 22.5 -38.5t8.5 -53.5q0 -38 -13 -69t-37 -53t-57.5 -34
t-74.5 -12t-80 13t-70 34zM184 421q-12 -11 -22.5 -27t-10.5 -35q0 -27 21 -40.5t47 -22.5q17 -5 34 -11t34 -14q13 11 22 26.5t9 35.5q0 21 -13 34t-33 22t-43.5 16t-44.5 16z" />
    <glyph glyph-name="paragraph" unicode="&#xb6;" horiz-adv-x="546" 
d="M455 632v-753q0 -16 -15 -16h-65q-16 0 -16 16v753h-55v-753q0 -16 -15 -16h-66q-15 0 -15 16v422q-41 2 -74.5 18t-56.5 43t-35.5 64t-12.5 80q0 48 13.5 87.5t40.5 67.5t66 43.5t90 15.5h274q15 0 15 -17v-54q0 -17 -15 -17h-58z" />
    <glyph glyph-name="registered" unicode="&#xae;" horiz-adv-x="714" 
d="M357 62q53 0 97.5 21t76.5 60t50 94t18 123t-17.5 123t-49.5 94t-76.5 60t-98.5 21q-53 0 -97.5 -21t-76.5 -60t-50 -94t-18 -123t17.5 -122.5t49.5 -93.5t76.5 -60t98.5 -22zM357 -10q-69 0 -128.5 26.5t-103 75t-68 116.5t-24.5 152t24.5 152t68 116.5t103 75
t128.5 26.5t128 -26.5t102.5 -75t68.5 -116.5t25 -152t-25 -152t-68.5 -116.5t-102.5 -75t-128 -26.5zM341 377q32 0 46.5 17t14.5 47q0 35 -18 45.5t-47 10.5h-24v-120h28zM247 159q-10 0 -10 10v386q0 8 7 8h98q71 0 104.5 -30.5t33.5 -88.5q0 -83 -66 -118l80 -148
q9 -19 -7 -19h-50q-8 0 -11.5 2t-7.5 9l-77 144h-28v-145q0 -10 -10 -10h-56z" />
    <glyph glyph-name="copyright" unicode="&#xa9;" horiz-adv-x="714" 
d="M357 62q53 0 97.5 21t76.5 60t50 94t18 123t-17.5 123t-49.5 94t-76.5 60t-98.5 21q-53 0 -97.5 -21t-76.5 -60t-50 -94t-18 -123t17.5 -122.5t49.5 -93.5t76.5 -60t98.5 -22zM357 -10q-69 0 -128.5 26.5t-103 75t-68 116.5t-24.5 152t24.5 152t68 116.5t103 75
t128.5 26.5t128 -26.5t102.5 -75t68.5 -116.5t25 -152t-25 -152t-68.5 -116.5t-102.5 -75t-128 -26.5zM364 152q-38 0 -67.5 14.5t-49.5 41.5t-31 65t-11 84q0 45 10.5 84t31.5 67.5t52 45t71 16.5q54 0 95 -30q5 -5 6.5 -9t-2.5 -11l-16 -33q-5 -12 -17 -5q-14 8 -28.5 13
t-31.5 5q-42 0 -66.5 -35t-24.5 -106q0 -60 20 -97.5t71 -37.5q16 0 32.5 4.5t31.5 11.5q5 2 9 2t6 -7l12 -37q4 -11 -5 -17q-19 -13 -45 -21t-53 -8z" />
    <glyph glyph-name="trademark" unicode="&#x2122;" horiz-adv-x="749" 
d="M197 332q0 -15 -13 -15h-56q-8 0 -10 3.5t-2 11.5v312h-87q-13 0 -13 14v48q0 14 13 14h254q13 0 13 -14v-48q0 -14 -13 -14h-86v-312zM714 331q0 -7 -2.5 -10.5t-10.5 -3.5h-52q-13 0 -13 15l-5 146q-1 30 -1.5 59.5t0.5 54.5q-8 -23 -17.5 -52t-20.5 -58l-31 -86
q-3 -8 -6.5 -11t-11.5 -3h-46q-8 0 -11.5 3t-6.5 11l-32 82q-11 29 -21 58t-17 51v-56t-2 -62l-6 -137q0 -15 -13 -15h-51q-8 0 -10 3.5t-2 10.5l17 372q1 11 5 14t10 3h63q10 0 13.5 -3.5t7.5 -11.5l52 -140q10 -25 17 -45.5t12 -37.5q5 17 11.5 38.5t14.5 44.5l52 140
q3 8 7 11.5t13 3.5h64q6 0 10 -3t5 -14z" />
    <glyph glyph-name="quotedblleft" unicode="&#x201c;" horiz-adv-x="421" 
d="M345 720q17 0 14 -18l-27 -152l22 -12q10 -5 13.5 -11.5t3.5 -21.5v-77q0 -19 -18 -19h-96q-19 0 -19 19v50q0 35 4.5 59.5t13.5 52.5l37 112q4 11 7.5 14.5t14.5 3.5h30zM157 720q17 0 14 -18l-27 -152l22 -12q10 -5 13.5 -11.5t3.5 -21.5v-77q0 -19 -18 -19h-96
q-19 0 -19 19v50q0 35 4.5 59.5t13.5 52.5l37 112q4 11 7.5 14.5t14.5 3.5h30z" />
    <glyph glyph-name="quotedblright" unicode="&#x201d;" horiz-adv-x="421" 
d="M76 409q-17 0 -14 18l27 152l-22 12q-10 5 -13.5 11.5t-3.5 21.5v77q0 19 18 19h96q19 0 19 -19v-50q0 -35 -4.5 -59.5t-13.5 -52.5l-37 -112q-4 -11 -7.5 -14.5t-14.5 -3.5h-30zM264 409q-17 0 -14 18l27 152l-22 12q-10 5 -13.5 11.5t-3.5 21.5v77q0 19 18 19h96
q19 0 19 -19v-50q0 -35 -4.5 -59.5t-13.5 -52.5l-37 -112q-4 -11 -7.5 -14.5t-14.5 -3.5h-30z" />
    <glyph glyph-name="quoteleft" unicode="&#x2018;" horiz-adv-x="233" 
d="M157 720q17 0 14 -18l-27 -152l22 -12q10 -5 13.5 -11.5t3.5 -21.5v-77q0 -19 -18 -19h-96q-19 0 -19 19v50q0 35 4.5 59.5t13.5 52.5l37 112q4 11 7.5 14.5t14.5 3.5h30z" />
    <glyph glyph-name="quoteright" unicode="&#x2019;" horiz-adv-x="233" 
d="M76 409q-17 0 -14 18l27 152l-22 12q-10 5 -13.5 11.5t-3.5 21.5v77q0 19 18 19h96q19 0 19 -19v-50q0 -35 -4.5 -59.5t-13.5 -52.5l-37 -112q-4 -11 -7.5 -14.5t-14.5 -3.5h-30z" />
    <glyph glyph-name="guillemotleft" unicode="&#xab;" horiz-adv-x="475" 
d="M48 268q-4 7 -6 12.5t-2 13.5v17q0 8 2 13t6 12l110 181q11 20 33 9l44 -23q10 -5 11.5 -11.5t-5.5 -19.5l-90 -169l91 -169q7 -13 5.5 -19.5t-11.5 -11.5l-44 -23q-12 -6 -18.5 -5.5t-14.5 14.5zM253 268q-4 7 -6 12.5t-2 13.5v17q0 8 2 13t6 12l110 181q11 20 33 9
l44 -23q10 -5 11.5 -11.5t-5.5 -19.5l-90 -169l91 -169q7 -13 5.5 -19.5t-11.5 -11.5l-44 -23q-12 -6 -18.5 -5.5t-14.5 14.5z" />
    <glyph glyph-name="guillemotright" unicode="&#xbb;" horiz-adv-x="475" 
d="M336 89q-8 -14 -14.5 -14.5t-18.5 5.5l-44 23q-10 5 -11.5 11.5t5.5 19.5l91 169l-90 169q-7 13 -5.5 19.5t11.5 11.5l44 23q22 11 33 -9l110 -181q4 -7 6 -12t2 -13v-17q0 -8 -2 -13.5t-6 -12.5zM131 89q-8 -14 -14.5 -14.5t-18.5 5.5l-44 23q-10 5 -11.5 11.5t5.5 19.5
l91 169l-90 169q-7 13 -5.5 19.5t11.5 11.5l44 23q22 11 33 -9l110 -181q4 -7 6 -12t2 -13v-17q0 -8 -2 -13.5t-6 -12.5z" />
    <glyph glyph-name="guilsinglleft" unicode="&#x2039;" horiz-adv-x="270" 
d="M50 268q-4 7 -6 12.5t-2 13.5v17q0 8 2 13t6 12l110 181q11 20 33 9l44 -23q10 -5 11.5 -11.5t-5.5 -19.5l-90 -169l91 -169q7 -13 5.5 -19.5t-11.5 -11.5l-44 -23q-12 -6 -18.5 -5.5t-14.5 14.5z" />
    <glyph glyph-name="guilsinglright" unicode="&#x203a;" horiz-adv-x="270" 
d="M131 89q-8 -14 -14.5 -14.5t-18.5 5.5l-44 23q-10 5 -11.5 11.5t5.5 19.5l91 169l-90 169q-7 13 -5.5 19.5t11.5 11.5l44 23q22 11 33 -9l110 -181q4 -7 6 -12t2 -13v-17q0 -8 -2 -13.5t-6 -12.5z" />
    <glyph glyph-name="quotesinglbase" unicode="&#x201a;" horiz-adv-x="233" 
d="M74 -230q-17 0 -14 18l27 152l-22 12q-10 5 -13.5 11.5t-3.5 21.5v77q0 19 18 19h96q19 0 19 -19v-50q0 -35 -4.5 -59.5t-13.5 -52.5l-37 -112q-4 -11 -7.5 -14.5t-14.5 -3.5h-30z" />
    <glyph glyph-name="quotedblbase" unicode="&#x201e;" horiz-adv-x="421" 
d="M74 -230q-17 0 -14 18l27 152l-22 12q-10 5 -13.5 11.5t-3.5 21.5v77q0 19 18 19h96q19 0 19 -19v-50q0 -35 -4.5 -59.5t-13.5 -52.5l-37 -112q-4 -11 -7.5 -14.5t-14.5 -3.5h-30zM262 -230q-17 0 -14 18l27 152l-22 12q-10 5 -13.5 11.5t-3.5 21.5v77q0 19 18 19h96
q19 0 19 -19v-50q0 -35 -4.5 -59.5t-13.5 -52.5l-37 -112q-4 -11 -7.5 -14.5t-14.5 -3.5h-30z" />
    <glyph glyph-name="arrowleft" unicode="&#x2190;" horiz-adv-x="677" 
d="M617 344q16 0 16 -17v-65q0 -17 -16 -17h-416l103 -105q9 -9 8.5 -13t-7.5 -11l-39 -40q-7 -8 -12.5 -7t-12.5 8l-177 186q-11 11 -13.5 15.5t-2.5 10.5v11q0 6 2.5 10.5t13.5 15.5l177 186q7 7 12.5 8t12.5 -7l39 -40q7 -7 7.5 -11t-8.5 -13l-103 -105h416z" />
    <glyph glyph-name="arrowup" unicode="&#x2191;" horiz-adv-x="677" 
d="M289 438l-105 -103q-9 -9 -13 -8.5t-11 7.5l-40 39q-8 7 -7 12.5t8 12.5l186 177q11 11 15.5 13.5t10.5 2.5h11q6 0 10.5 -2.5t15.5 -13.5l186 -177q7 -7 8 -12.5t-7 -12.5l-40 -39q-7 -7 -11 -7.5t-13 8.5l-105 103v-422q0 -16 -17 -16h-65q-17 0 -17 16v422z" />
    <glyph glyph-name="arrowright" unicode="&#x2192;" horiz-adv-x="677" 
d="M60 245q-16 0 -16 17v65q0 17 16 17h416l-103 105q-9 9 -8.5 13t7.5 11l39 40q7 8 12.5 7t12.5 -8l177 -186q11 -11 13.5 -15.5t2.5 -10.5v-11q0 -6 -2.5 -10.5t-13.5 -15.5l-177 -186q-7 -7 -12.5 -8t-12.5 7l-39 40q-7 7 -7.5 11t8.5 13l103 105h-416z" />
    <glyph glyph-name="arrowdown" unicode="&#x2193;" horiz-adv-x="677" 
d="M289 575q0 16 17 16h65q17 0 17 -16v-422l105 103q9 9 13 8.5t11 -7.5l40 -39q8 -7 7 -12.5t-8 -12.5l-186 -177q-11 -11 -15.5 -13.5t-10.5 -2.5h-11q-6 0 -10.5 2.5t-15.5 13.5l-186 177q-7 7 -8 12.5t7 12.5l40 39q7 7 11 7.5t13 -8.5l105 -103v422z" />
    <glyph glyph-name="uni266A" unicode="&#x266a;" horiz-adv-x="690" 
d="M216 -10q-56 0 -86 24t-30 56t29.5 56t82.5 24q24 0 50 -7t46 -20v588q0 9 11 9h31q12 0 12 -9v-25q24 -18 51 -29t53 -21q25 -9 47.5 -18t39.5 -22t27 -31t10 -46q0 -31 -20 -60.5t-57 -50.5q-7 -4 -11 2l-13 19q-4 7 2 11q32 22 32 50q0 16 -8.5 27t-22 19t-31.5 14
t-37 13q-17 5 -32.5 13t-29.5 20v-472q0 -64 -37.5 -99t-108.5 -35z" />
    <glyph glyph-name="grave" unicode="`" horiz-adv-x="312" 
d="M181 591q-8 0 -11.5 2.5t-7.5 7.5l-104 150q-5 7 -3 11t10 4h79q8 0 11 -2.5t7 -8.5l83 -151q4 -7 2 -10t-7 -3h-59z" />
    <glyph glyph-name="acute" unicode="&#xb4;" horiz-adv-x="312" 
d="M73 591q-6 0 -9 3t1 10l83 151q4 6 7 8.5t11 2.5h79q8 0 10 -4t-3 -11l-104 -150q-4 -5 -8.5 -7.5t-14.5 -2.5h-52z" />
    <glyph glyph-name="dieresis" unicode="&#xa8;" horiz-adv-x="312" 
d="M18 612q-15 0 -15 16v86q0 16 15 16h77q16 0 16 -16v-86q0 -16 -16 -16h-77zM215 612q-15 0 -15 16v86q0 16 15 16h77q16 0 16 -16v-86q0 -16 -16 -16h-77z" />
    <glyph glyph-name="circumflex" unicode="&#x2c6;" horiz-adv-x="312" 
d="M296 641q4 -5 5 -10t-5 -12l-27 -31q-7 -8 -11.5 -7.5t-10.5 6.5l-91 89l-92 -89q-10 -10 -21 1l-28 31q-6 7 -5 11.5t5 9.5l81 97q7 8 12.5 11.5t16.5 3.5h62q17 0 29 -15z" />
    <glyph glyph-name="tilde" unicode="&#x2dc;" horiz-adv-x="312" 
d="M303 677q-17 -25 -41.5 -43t-53.5 -18q-17 0 -31 6t-26 12.5t-23.5 12.5t-24.5 6t-25 -8.5t-25 -22.5q-3 -3 -6 -4t-8 4l-32 39q-7 8 1 19q17 25 41.5 43t53.5 18q17 0 31 -6t26 -12.5t23.5 -12.5t24.5 -6t25 8.5t25 22.5q3 3 6 4t8 -4l32 -39q7 -8 -1 -19z" />
    <glyph glyph-name="macron" unicode="&#xaf;" horiz-adv-x="312" 
d="M288 649q0 -17 -15 -17h-234q-15 0 -15 17v54q0 17 15 17h234q15 0 15 -17v-54z" />
    <glyph glyph-name="breve" unicode="&#x2d8;" horiz-adv-x="312" 
d="M156 602q-60 0 -96 34.5t-39 100.5q0 8 3 10.5t10 2.5h52q10 0 12 -12q8 -59 58 -59t58 59q1 12 12 12h52q7 0 10 -2.5t3 -10.5q-3 -66 -39 -100.5t-96 -34.5z" />
    <glyph glyph-name="dotaccent" unicode="&#x2d9;" horiz-adv-x="312" 
d="M117 610q-15 0 -15 16v86q0 16 15 16h77q16 0 16 -16v-86q0 -16 -16 -16h-77z" />
    <glyph glyph-name="ring" unicode="&#x2da;" horiz-adv-x="312" 
d="M156 586q-20 0 -38 8t-31.5 21.5t-22 32.5t-8.5 41q0 21 8.5 40t22 32.5t31.5 21.5t38 8q19 0 37 -8t31.5 -21.5t21.5 -32t8 -40.5t-8 -40.5t-21.5 -32.5t-31.5 -22t-37 -8zM156 648q15 0 25 12t10 29t-10 28.5t-25 11.5q-16 0 -26.5 -11t-10.5 -29t10.5 -29.5
t26.5 -11.5z" />
    <glyph glyph-name="cedilla" unicode="&#xb8;" horiz-adv-x="312" 
d="M140 -235q-20 0 -38 4t-30 9q-6 2 -7 6t0 9l10 42q2 8 4.5 9.5t9.5 -0.5q10 -3 22 -4.5t21 -1.5q18 0 26 9t8 23q0 31 -41 31q-18 0 -40 -3q-8 0 -9 3t0 11l13 100q0 9 8 9h54q6 0 7.5 -2.5t0.5 -10.5l-4 -46h2q40 0 70 -22t30 -68q0 -20 -7.5 -39.5t-22 -34.5t-36.5 -24
t-51 -9z" />
    <glyph glyph-name="hungarumlaut" unicode="&#x2dd;" horiz-adv-x="312" 
d="M-7 595q-4 0 -6.5 2.5t1.5 10.5l72 147q5 11 19 11h71q15 0 7 -14l-94 -147q-5 -10 -16 -10h-54zM161 595q-5 0 -7.5 2.5t1.5 10.5l72 147q7 11 19 11h71q16 0 7 -14l-93 -147q-4 -6 -6.5 -8t-10.5 -2h-53z" />
    <glyph glyph-name="ogonek" unicode="&#x2db;" horiz-adv-x="312" 
d="M168 -233q-49 0 -78 30.5t-29 79.5q0 41 23.5 77.5t58.5 56.5q8 5 16 6.5t22 1.5h34q12 0 12 -7q0 -2 -3 -5q-47 -32 -64 -62.5t-17 -58.5q0 -20 11.5 -29t29.5 -9q8 0 18 2.5t18 6.5q8 3 10.5 1.5t4.5 -8.5l13 -40q2 -6 2 -10q0 -7 -11 -14q-15 -8 -34.5 -13.5
t-36.5 -5.5z" />
    <glyph glyph-name="caron" unicode="&#x2c7;" horiz-adv-x="312" 
d="M216 605q-12 -15 -29 -15h-62q-11 0 -16.5 3.5t-12.5 11.5l-81 97q-4 5 -5 9.5t5 11.5l30 33q5 6 8.5 6t8.5 -5l94 -91l93 91q5 5 8.5 5t8.5 -6l30 -33q6 -7 5 -12t-5 -10z" />
    <glyph glyph-name="grave.cap" horiz-adv-x="312" 
d="M181 780q-8 0 -11.5 2.5t-7.5 7.5l-104 150q-5 7 -3 11t10 4h79q8 0 11 -2.5t7 -8.5l83 -151q4 -7 2 -10t-7 -3h-59z" />
    <glyph glyph-name="acute.cap" horiz-adv-x="312" 
d="M70 780q-5 0 -7 3t2 10l83 151q4 6 7 8.5t11 2.5h79q8 0 10 -4t-3 -11l-104 -150q-4 -5 -7.5 -7.5t-11.5 -2.5h-59z" />
    <glyph glyph-name="dieresis.cap" horiz-adv-x="312" 
d="M18 791q-15 0 -15 16v86q0 16 15 16h77q16 0 16 -16v-86q0 -16 -16 -16h-77zM215 791q-15 0 -15 16v86q0 16 15 16h77q16 0 16 -16v-86q0 -16 -16 -16h-77z" />
    <glyph glyph-name="circumflex.cap" horiz-adv-x="312" 
d="M296 826q4 -5 5 -10t-5 -12l-27 -31q-7 -8 -11.5 -7.5t-10.5 6.5l-91 89l-92 -89q-10 -10 -21 1l-28 31q-6 7 -5 11.5t5 9.5l81 97q7 8 12.5 11.5t16.5 3.5h62q17 0 29 -15z" />
    <glyph glyph-name="tilde.cap" horiz-adv-x="312" 
d="M303 858q-17 -25 -41.5 -43t-53.5 -18q-17 0 -31 6t-26 12.5t-23.5 12.5t-24.5 6t-25 -8.5t-25 -22.5q-3 -3 -6 -4t-8 4l-32 39q-7 8 1 19q17 25 41.5 43t53.5 18q17 0 31 -6t26 -12.5t23.5 -12.5t24.5 -6t25 8.5t25 22.5q3 3 6 4t8 -4l32 -39q7 -8 -1 -19z" />
    <glyph glyph-name="macron.cap" horiz-adv-x="312" 
d="M288 835q0 -17 -15 -17h-234q-15 0 -15 17v54q0 17 15 17h234q15 0 15 -17v-54z" />
    <glyph glyph-name="breve.cap" horiz-adv-x="312" 
d="M156 778q-60 0 -96 34.5t-39 100.5q0 8 3 10.5t10 2.5h52q10 0 12 -12q8 -59 58 -59t58 59q1 12 12 12h52q7 0 10 -2.5t3 -10.5q-3 -66 -39 -100.5t-96 -34.5z" />
    <glyph glyph-name="dotaccent.cap" horiz-adv-x="312" 
d="M117 807q-15 0 -15 16v86q0 16 15 16h77q16 0 16 -16v-86q0 -16 -16 -16h-77z" />
    <glyph glyph-name="ring.cap" horiz-adv-x="312" 
d="M156 781q-20 0 -38 8t-31.5 21.5t-22 32.5t-8.5 41q0 21 8.5 40t22 32.5t31.5 21.5t38 8q19 0 37 -8t31.5 -21.5t21.5 -32t8 -40.5t-8 -40.5t-21.5 -32.5t-31.5 -22t-37 -8zM156 843q15 0 25 12t10 29t-10 28.5t-25 11.5q-16 0 -26.5 -11t-10.5 -29t10.5 -29.5
t26.5 -11.5z" />
    <glyph glyph-name="hungarumlaut.cap" horiz-adv-x="312" 
d="M-7 783q-4 0 -6.5 2.5t1.5 10.5l72 147q5 11 19 11h71q15 0 7 -14l-94 -147q-5 -10 -16 -10h-54zM161 783q-5 0 -7.5 2.5t1.5 10.5l72 147q7 11 19 11h71q16 0 7 -14l-93 -147q-4 -6 -6.5 -8t-10.5 -2h-53z" />
    <glyph glyph-name="caron.cap" horiz-adv-x="312" 
d="M216 797q-12 -15 -29 -15h-62q-11 0 -16.5 3.5t-12.5 11.5l-81 97q-4 5 -5 9.5t5 11.5l30 33q5 6 8.5 6t8.5 -5l94 -91l93 91q5 5 8.5 5t8.5 -6l30 -33q6 -7 5 -12t-5 -10z" />
    <glyph glyph-name="zero" unicode="0" 
d="M264 627q-55 0 -80 -71t-25 -203t23.5 -196t74.5 -64q55 0 79.5 71.5t24.5 202.5q0 132 -23 196t-74 64zM267 730q104 0 162 -87.5t58 -268.5q0 -191 -61 -287.5t-173 -96.5q-101 0 -160.5 87t-59.5 269q0 189 61.5 286.5t172.5 97.5z" />
    <glyph glyph-name="one" unicode="1" 
d="M99 0q-15 0 -15 15v67q0 15 15 15h117v483l-109 -58q-17 -9 -25 7l-28 56q-8 17 9 27l179 101q5 2 10.5 4.5t14.5 2.5h52q12 0 16 -4t4 -16v-603h108q15 0 15 -15v-67q0 -15 -15 -15h-348z" />
    <glyph glyph-name="two" unicode="2" 
d="M428 104q13 0 13 -15v-74q0 -15 -13 -15h-369q-18 0 -18 21v43q0 57 20 104t50.5 87t66 75t66 68t50.5 66t20 70q0 48 -25 71.5t-67 23.5q-35 0 -69 -15.5t-57 -32.5q-14 -9 -21 5l-28 51q-5 9 -3.5 15t10.5 14q34 27 81.5 45.5t95.5 18.5q54 0 95 -15.5t67 -44.5
q21 -25 33.5 -58.5t12.5 -76.5q0 -45 -20 -85.5t-50.5 -77t-66 -71t-66.5 -67t-53 -65t-25 -65.5h270z" />
    <glyph glyph-name="three" unicode="3" 
d="M414 720q9 0 12 -3.5t3 -12.5v-47q0 -20 -8 -36t-29 -44l-122 -165q88 -7 141 -54.5t53 -139.5q0 -56 -19 -98.5t-51 -71.5t-75 -43.5t-91 -14.5q-55 0 -103 16t-78 40q-11 10 -6 24l24 57q7 15 20 8q32 -19 66 -31.5t74 -12.5q51 0 82 30t31 87q0 35 -10 57t-28.5 35
t-44 17.5t-56.5 4.5h-37q-13 0 -13 14v40q0 17 2.5 25.5t10.5 19.5l144 195h-222q-13 0 -13 15v74q0 15 13 15h330z" />
    <glyph glyph-name="four" unicode="4" 
d="M196 704q4 10 9 13t15 3h88q17 0 11 -17l-168 -432h143v158q0 15 14 15h95q13 0 13 -15v-158h65q13 0 13 -15v-73q0 -15 -13 -15h-65v-153q0 -15 -13 -15h-95q-14 0 -14 15v153h-251q-12 0 -15.5 4t-3.5 15v37q0 21 1.5 31.5t6.5 22.5z" />
    <glyph glyph-name="five" unicode="5" 
d="M183 437q19 6 37.5 8.5t41.5 2.5q93 0 146.5 -57t53.5 -159q0 -59 -18.5 -104t-50.5 -75.5t-76 -46.5t-96 -16q-55 0 -97.5 13t-71.5 33q-7 5 -7.5 10.5t2.5 13.5l24 57q6 16 20 8q29 -16 61 -25t69 -9q31 0 53 10.5t36 29t20.5 43t6.5 52.5q0 68 -29 98t-85 30
q-32 0 -63.5 -5.5t-68.5 -16.5q-16 -5 -16 12v361q0 15 13 15h327q14 0 14 -15v-74q0 -15 -14 -15h-232v-179v0z" />
    <glyph glyph-name="six" unicode="6" 
d="M267 -10q-59 0 -101 23.5t-69 65.5t-39.5 100t-12.5 127q0 100 17 179t50.5 133.5t83 83t113.5 28.5q42 0 72 -9.5t52 -26.5q7 -5 8.5 -10t-3.5 -18l-23 -51q-7 -14 -22 -6q-17 9 -36.5 15.5t-44.5 6.5q-36 0 -60 -16t-39.5 -44t-24 -66t-12.5 -81q25 18 55.5 29.5
t62.5 11.5q43 0 78.5 -17t61 -47t39 -71.5t13.5 -90.5q0 -51 -16 -96.5t-44.5 -79t-69 -53.5t-89.5 -20zM270 90q24 0 41.5 11.5t29 30.5t17 44.5t5.5 54.5q0 28 -5 53t-16 43t-28.5 28.5t-43.5 10.5t-51.5 -8.5t-48.5 -22.5v-29q0 -46 5 -85.5t16.5 -68.5t30.5 -45.5
t48 -16.5z" />
    <glyph glyph-name="seven" unicode="7" 
d="M448 720q13 0 13 -15v-52q0 -14 -3 -26t-10 -30l-215 -580q-3 -8 -8 -12.5t-16 -4.5h-90q-18 0 -11 19l237 597h-271q-13 0 -13 15v74q0 15 13 15h374z" />
    <glyph glyph-name="eight" unicode="8" 
d="M251 -11q-44 0 -83.5 12.5t-69.5 37.5t-47.5 62.5t-17.5 86.5q0 33 9.5 60.5t26 50.5t38.5 41t47 31q-18 12 -35.5 27t-30.5 35t-21 45t-8 55q0 46 17 82t46 61.5t66.5 39t78.5 13.5q39 0 75.5 -12t64 -35t44.5 -56t17 -75q0 -27 -9 -51t-24 -44.5t-34 -37.5t-40 -30
q24 -13 46.5 -30t40 -40t28.5 -52.5t11 -66.5q0 -51 -19.5 -90.5t-52 -66t-75 -40t-89.5 -13.5zM257 90q47 0 76.5 27.5t29.5 74.5q0 27 -11 46.5t-29 35t-41 27.5l-46 24q-38 -23 -59 -56.5t-21 -75.5q0 -50 28.5 -76.5t72.5 -26.5zM277 431q28 19 50 47.5t22 66.5
t-24 62.5t-61 24.5t-60.5 -25t-23.5 -61q0 -22 8 -39t21 -31t30.5 -25t37.5 -20z" />
    <glyph glyph-name="nine" unicode="9" 
d="M345 312q-20 -18 -52.5 -29.5t-64.5 -11.5q-47 0 -84 17t-63 47t-40 70t-14 86q0 50 15.5 93.5t44 76t68 51t87.5 18.5q62 0 105.5 -25.5t71.5 -69t40.5 -100.5t12.5 -121q0 -84 -15.5 -161t-48 -135.5t-82 -93t-116.5 -34.5q-42 0 -78.5 11t-61.5 29q-7 5 -8.5 10.5
t4.5 18.5l21 48q6 15 21 6q20 -11 46.5 -17.5t49.5 -6.5q39 0 65 16.5t41.5 45.5t23.5 70t11 91zM348 422q0 45 -5.5 83t-17.5 65.5t-31.5 43.5t-48.5 16q-24 0 -41.5 -10.5t-29.5 -28t-17.5 -40.5t-5.5 -49q0 -27 5 -51t17 -42.5t31.5 -29t48.5 -10.5q24 0 49.5 9t45.5 20
v24z" />
    <glyph glyph-name="dollar" unicode="$" 
d="M279 815q15 0 15 -16v-80q34 -5 68 -17t57 -29q14 -11 6 -31l-25 -49q-8 -18 -25 -7q-22 14 -41 22t-40 11v-202q37 -21 68 -41.5t53.5 -45.5t35 -55t12.5 -69t-12.5 -72t-35 -59.5t-53 -44.5t-67.5 -27v-84q0 -16 -15 -16h-42q-15 0 -15 16v81q-54 4 -101 21t-74 37
q-7 5 -7.5 13.5t3.5 16.5l26 55q5 10 11 10.5t14 -4.5q28 -20 62 -33.5t65 -14.5v223q-28 15 -58 31.5t-55 40t-41 55.5t-16 78q0 37 13 69t36.5 56t54.5 40t67 22v83q0 16 15 16h41zM341 195q0 28 -13.5 48.5t-33.5 36.5v-163q21 11 34 31t13 47zM174 537q0 -25 13.5 -43
t34.5 -34v151q-23 -10 -35.5 -29.5t-12.5 -44.5z" />
    <glyph glyph-name="cent" unicode="&#xa2;" 
d="M426 476q9 -8 9 -16t-5 -16l-25 -47q-10 -20 -27 -7q-28 22 -62 31v-326q17 3 32 9t30 14q8 5 14 3.5t11 -12.5l19 -45q5 -11 4 -18t-9 -12q-47 -31 -101 -40v-93q0 -16 -15 -16h-41q-15 0 -15 16v90q-92 8 -144.5 75t-52.5 189q0 66 15 115t41.5 82t62.5 51.5t78 23.5
v90q0 16 15 16h41q15 0 15 -16v-92q61 -11 110 -49zM172 262q0 -132 73 -160v316q-33 -14 -53 -52t-20 -104z" />
    <glyph glyph-name="Euro" unicode="&#x20ac;" 
d="M397 259q0 -17 -14 -17h-160q6 -33 17 -59.5t28 -45t41 -29t57 -10.5q29 0 55 7.5t48 16.5q10 4 15.5 3t8.5 -9l23 -55q8 -21 -7 -29q-32 -20 -73.5 -31t-87.5 -11q-50 0 -92.5 17.5t-75.5 50t-55 79t-32 105.5h-57q-15 0 -15 17v48q0 17 15 17h49v28v19.5t1 19.5h-45
q-14 0 -14 17v48q0 17 14 17h55q10 57 32.5 104t56 81t77 53t96.5 19q51 0 88 -13t64 -35q8 -7 9.5 -13.5t-2.5 -15.5l-25 -51q-10 -20 -26 -10q-26 17 -48.5 25t-54.5 8q-58 0 -92 -41t-48 -111h165q14 0 14 -17v-48q0 -17 -14 -17h-174q-1 -8 -1 -17v-17v-33h170
q14 0 14 -17v-48z" />
    <glyph glyph-name="florin" unicode="&#x192;" 
d="M424 372q0 -17 -15 -17h-110l-28 -233q-13 -107 -59 -169.5t-129 -62.5q-27 0 -48.5 4.5t-40.5 12.5q-7 3 -9 8t1 16l14 55q3 11 7.5 13t12.5 0q15 -4 26 -6t22 -2q44 0 60 31t24 99l28 234h-66q-14 0 -14 17v60q0 17 14 17h77l7 54q6 49 20 90.5t38.5 72t59 47.5
t80.5 17q41 0 80 -17q7 -3 9 -8t-1 -16l-14 -55q-3 -11 -7.5 -13t-12.5 0q-15 4 -26 6t-22 2q-44 0 -61 -32t-24 -94l-7 -54h99q15 0 15 -17v-60z" />
    <glyph glyph-name="sterling" unicode="&#xa3;" 
d="M136 421v64q0 55 16 100.5t45.5 77.5t70.5 49.5t92 17.5q30 0 64 -9t61 -23q8 -5 10 -10.5t-3 -17.5l-19 -51q-4 -11 -8.5 -12.5t-12.5 3.5q-21 10 -41.5 14.5t-44.5 4.5q-53 0 -81 -36t-28 -98v-74h144q15 0 15 -17v-59q0 -17 -15 -17h-144v-58q0 -68 -18.5 -106
t-46.5 -62h265q15 0 15 -17v-68q0 -17 -15 -17h-374q-15 0 -15 17v58q0 9 2.5 14.5t12.5 12.5q34 25 43.5 62.5t9.5 96.5v67h-59q-14 0 -14 17v59q0 17 14 17h59z" />
    <glyph glyph-name="yen" unicode="&#xa5;" 
d="M442 147q0 -17 -15 -17h-105v-111q0 -19 -18 -19h-91q-18 0 -18 19v111h-107q-14 0 -14 17v48q0 17 14 17h107v57h-107q-14 0 -14 17v48q0 17 14 17h79l-154 349q-4 11 -0.5 15.5t12.5 4.5h87q14 0 20.5 -4t10.5 -15l55 -132q9 -22 18.5 -46.5t18.5 -47t16.5 -42.5
t12.5 -33q8 27 24 71.5t38 97.5l54 133q5 11 11 14.5t18 3.5h85q10 0 13 -5t-1 -15l-157 -349h78q15 0 15 -17v-48q0 -17 -15 -17h-105v-57h105q15 0 15 -17v-48z" />
    <glyph glyph-name="uni20B9" unicode="&#x20b9;" 
d="M393 447q-6 -37 -23.5 -68t-44 -53t-59 -34.5t-67.5 -13.5l242 -257q7 -8 4 -14.5t-13 -6.5h-88q-14 0 -20.5 2.5t-14.5 10.5l-228 236q-12 13 -16 23t-4 29v43q0 19 17 19h68q48 0 83.5 21t43.5 63h-193q-18 0 -12 19l17 60q3 9 7 12t13 3h168q-2 19 -8 31.5t-15 23.5
q-13 14 -31.5 19.5t-44.5 5.5h-106q-19 0 -13 19l20 65q2 10 7 12.5t14 2.5h363q19 0 13 -19l-19 -65q-3 -10 -7.5 -12.5t-14.5 -2.5h-82q14 -13 25.5 -34t16.5 -46h81q19 0 13 -19l-20 -60q-2 -10 -7 -12.5t-14 -2.5h-51z" />
    <glyph glyph-name="uni20AE" unicode="&#x20ae;" 
d="M324 241v-222q0 -19 -20 -19h-87q-20 0 -20 19v158l-95 -48q-11 -5 -11 5v59q0 16 9 21l97 48v84l-95 -48q-11 -5 -11 5v60q0 8 1.5 13t7.5 8l97 48v185h-144q-20 0 -20 19v65q0 19 20 19h415q20 0 20 -19v-65q0 -19 -20 -19h-144v-121l94 47q10 5 10 -5v-58
q0 -8 -1.5 -13t-7.5 -8l-95 -49v-84l94 47q10 7 10 -5v-57q0 -8 -1.5 -13t-7.5 -8z" />
    <glyph glyph-name="uni20B1" unicode="&#x20b1;" 
d="M78 0q-18 0 -18 19v372h-40q-14 0 -14 17v34q0 17 14 17h40v54h-40q-14 0 -14 17v34q0 17 14 17h40v120q0 19 18 19h129q63 0 117 -13.5t92 -51.5q28 -30 43 -74h47q14 0 14 -17v-34q0 -17 -14 -17h-37q1 -6 1.5 -13t0.5 -12q0 -9 -0.5 -16.5t-1.5 -12.5h37q14 0 14 -17
v-34q0 -17 -14 -17h-51q-6 -15 -13 -29.5t-15 -26.5q-29 -41 -74.5 -63t-112.5 -22h-65v-231q0 -19 -18 -19h-79zM359 485q0 5 -0.5 12.5t-1.5 15.5h-182v-54h182q1 8 1.5 13.5t0.5 12.5zM240 340q39 0 65.5 11.5t36.5 39.5h-167v-51h65zM175 629v-48h162q-15 29 -43.5 38.5
t-67.5 9.5h-51z" />
    <glyph glyph-name="won" unicode="&#x20a9;" horiz-adv-x="873" 
d="M763 373l-13 -57h88q15 0 15 -17v-34q0 -17 -15 -17h-104l-52 -227q-3 -13 -9.5 -17t-18.5 -4h-93q-14 0 -21 4.5t-9 16.5l-45 227h-100v-3l-43 -224q-2 -13 -9 -17t-19 -4h-93q-14 0 -20.5 4.5t-9.5 16.5l-54 227h-102q-15 0 -15 17v34q0 17 15 17h85l-13 57h-72
q-15 0 -15 17v34q0 17 15 17h55l-61 257q-6 22 15 22h90q11 0 17.5 -4t9.5 -15l55 -260h99l53 259q2 13 8 16.5t20 3.5h83q14 0 20 -4t8 -16l52 -259h104l53 260q2 11 8 15t19 4h79q11 0 14 -5.5t1 -16.5l-60 -257h60q15 0 15 -17v-34q0 -17 -15 -17h-75zM651 373h-77
l11 -57h55zM399 316h74l-10 57h-54zM303 373h-71l10 -57h51zM613 135l18 113h-37zM285 248h-35l18 -112zM420 441h32l-16 107z" />
    <glyph glyph-name="lira" unicode="&#x20a4;" 
d="M256 237q-5 -52 -22 -83t-42 -52h265q15 0 15 -17v-68q0 -17 -15 -17h-374q-15 0 -15 17v58q0 9 2.5 14.5t12.5 12.5q30 22 40.5 54.5t12.5 80.5h-58q-15 0 -15 17v48q0 17 15 17h58v68h-58q-15 0 -15 17v46q0 17 15 17h58v18q0 55 16 100.5t45.5 77.5t70.5 49.5t92 17.5
q30 0 64 -9t61 -23q8 -5 10 -10.5t-3 -17.5l-19 -51q-4 -11 -8.5 -12.5t-12.5 3.5q-21 10 -41.5 14.5t-44.5 4.5q-53 0 -81 -36t-28 -98v-28h150q15 0 15 -17v-46q0 -17 -15 -17h-150v-68h150q15 0 15 -17v-48q0 -17 -15 -17h-151z" />
    <glyph glyph-name="uni20B4" unicode="&#x20b4;" 
d="M374 387q-20 -18 -41 -34.5t-42 -33.5h185q15 0 15 -17v-48q0 -17 -15 -17h-254q-7 -11 -10.5 -26.5t-3.5 -31.5q0 -37 20 -60t65 -23q32 0 59.5 8.5t53.5 24.5q8 5 15 5t11 -11l20 -59q6 -19 -7 -27q-35 -22 -77 -34.5t-92 -12.5q-48 0 -84.5 13.5t-60.5 36.5t-36 55
t-12 70q0 20 5 39t10 33h-49q-15 0 -15 17v48q0 17 15 17h100q16 19 34.5 35.5t38.5 32.5h-173q-15 0 -15 17v46q0 17 15 17h252q11 17 17.5 35t6.5 40q0 37 -21.5 60.5t-66.5 23.5q-30 0 -60.5 -9.5t-55.5 -24.5q-18 -12 -26 7l-20 51q-8 21 7 31q33 20 77.5 34.5
t98.5 14.5q42 0 77.5 -11.5t62 -33.5t41 -54.5t14.5 -75.5q0 -29 -6 -48.5t-17 -39.5h46q15 0 15 -17v-46q0 -17 -15 -17h-102z" />
    <glyph glyph-name="dong" unicode="&#x20ab;" 
d="M306 578h-124q-8 0 -10.5 3t-2.5 12v41q0 8 2.5 10.5t10.5 2.5h124v59q0 14 14 14h94q13 0 13 -14v-59h33q8 0 10.5 -2.5t2.5 -10.5v-41q0 -9 -2.5 -12t-10.5 -3h-33v-359q0 -12 7 -15.5t16 -3.5q12 0 12 -15v-55q0 -7 -2.5 -9.5t-9.5 -5.5q-11 -5 -27 -7t-30 -2
q-24 0 -46 10.5t-30 32.5q-17 -23 -43 -37t-59 -14q-35 0 -66.5 15t-54.5 42.5t-36.5 67.5t-13.5 90q0 53 15 94.5t39.5 70.5t56.5 44t67 15q22 0 44.5 -7t39.5 -22v70zM306 412q-11 14 -28 21t-34 7q-33 0 -55.5 -30.5t-22.5 -97.5q0 -54 18.5 -86.5t56.5 -32.5
q30 0 47.5 19t17.5 61v139zM75 0q-14 0 -14 17v35q0 17 14 17h374q14 0 14 -17v-35q0 -17 -14 -17h-374z" />
    <glyph glyph-name="uni20BA" unicode="&#x20ba;" 
d="M248 423v-71l133 74q11 7 11 -5v-57q0 -8 -1.5 -13t-7.5 -8l-135 -76v-159q66 13 102.5 51t54.5 91q4 14 18 8l66 -26q12 -4 6 -20q-18 -52 -50.5 -91.5t-74.5 -66.5t-91 -40.5t-100 -13.5h-35q-23 0 -23 26v177l-77 -43q-11 -6 -11 5v59q0 16 9 21l79 44v70l-77 -43
q-11 -6 -11 5v60q0 16 9 21l79 44v255q0 19 18 19h91q18 0 18 -19v-192l133 74q11 5 11 -5v-58q0 -8 -1.5 -13t-7.5 -8z" />
    <glyph glyph-name="uni0E3F" unicode="&#xe3f;" 
d="M231 0h-154q-20 0 -20 19v682q0 19 20 19h154v79q0 16 15 16h34q15 0 15 -16v-85q78 -12 123 -55t45 -125q0 -48 -24 -88t-64 -63q53 -22 87.5 -63t34.5 -108q0 -95 -55.5 -146.5t-146.5 -62.5v-84q0 -16 -15 -16h-34q-15 0 -15 16v81zM367 211q0 45 -18 70t-54 35v-208
q72 20 72 103zM184 101h47v221h-47v-221zM184 419h47v199h-47v-199zM336 522q0 30 -10 52t-31 33v-175q21 14 31 37.5t10 52.5z" />
    <glyph glyph-name="numbersign" unicode="#" horiz-adv-x="524" 
d="M271 73q-9 0 -11 4t-1 12l24 132h-97l-26 -134q-2 -8 -5 -11t-13 -3h-67q-14 0 -11 16l24 132h-48q-14 0 -14 17v51q0 17 14 17h65l21 111h-48q-14 0 -14 17v51q0 17 14 17h63l25 131q2 8 5 11t13 3h66q9 0 11 -4t1 -12l-24 -129h98l26 131q1 14 17 14h67q14 0 11 -16
l-24 -129h48q14 0 14 -17v-51q0 -17 -14 -17h-64l-21 -111h48q14 0 14 -17v-51q0 -17 -14 -17h-64l-25 -134q-2 -8 -5 -11t-13 -3h-66zM222 417l-21 -111h98l21 111h-98z" />
    <glyph glyph-name="percent" unicode="%" horiz-adv-x="849" 
d="M202 650q-60 0 -60 -129q0 -66 14 -94t41 -28q60 0 60 130q0 64 -14 92.5t-41 28.5zM203 730q33 0 61.5 -12.5t49.5 -37t33 -62t12 -86.5q0 -52 -12 -91.5t-34 -66.5t-51.5 -41t-65.5 -14q-33 0 -61.5 12.5t-49.5 37.5t-33 62t-12 86q0 52 12 92t34 67t51.5 40.5
t65.5 13.5zM652 321q-60 0 -60 -129q0 -66 14 -94t41 -28q60 0 60 130q0 64 -14 92.5t-41 28.5zM653 401q33 0 61.5 -12.5t49.5 -37t33 -62t12 -86.5q0 -52 -12 -91.5t-34 -66.5t-51.5 -41t-65.5 -14q-33 0 -61.5 12.5t-49.5 37.5t-33 62t-12 86q0 52 12 92t34 67t51.5 40.5
t65.5 13.5zM517 722q4 8 8.5 11.5t15.5 3.5h41q24 0 16 -16l-264 -724q-4 -8 -7.5 -11.5t-12.5 -3.5h-53q-8 0 -12 4t0 12z" />
    <glyph glyph-name="perthousand" unicode="&#x2030;" horiz-adv-x="1216" 
d="M202 650q-60 0 -60 -129q0 -66 14 -94t41 -28q60 0 60 130q0 64 -14 92.5t-41 28.5zM203 730q33 0 61.5 -12.5t49.5 -37t33 -62t12 -86.5q0 -52 -12 -91.5t-34 -66.5t-51.5 -41t-65.5 -14q-33 0 -61.5 12.5t-49.5 37.5t-33 62t-12 86q0 52 12 92t34 67t51.5 40.5
t65.5 13.5zM652 321q-60 0 -60 -129q0 -66 14 -94t41 -28q60 0 60 130q0 64 -14 92.5t-41 28.5zM653 401q33 0 61.5 -12.5t49.5 -37t33 -62t12 -86.5q0 -52 -12 -91.5t-34 -66.5t-51.5 -41t-65.5 -14q-33 0 -61.5 12.5t-49.5 37.5t-33 62t-12 86q0 52 12 92t34 67t51.5 40.5
t65.5 13.5zM517 722q4 8 8.5 11.5t15.5 3.5h41q24 0 16 -16l-264 -724q-4 -8 -7.5 -11.5t-12.5 -3.5h-53q-8 0 -12 4t0 12zM1019 321q-60 0 -60 -129q0 -66 14 -94t41 -28q60 0 60 130q0 64 -14 92.5t-41 28.5zM1020 401q33 0 61.5 -12.5t49.5 -37t33 -62t12 -86.5
q0 -52 -12 -91.5t-34 -66.5t-51.5 -41t-65.5 -14q-33 0 -61.5 12.5t-49.5 37.5t-33 62t-12 86q0 52 12 92t34 67t51.5 40.5t65.5 13.5z" />
    <glyph glyph-name="plus" unicode="+" horiz-adv-x="518" 
d="M307 402h160q14 0 14 -17v-63q0 -17 -14 -17h-160v-189q0 -16 -15 -16h-66q-16 0 -16 16v189h-159q-15 0 -15 17v63q0 17 15 17h159v188q0 16 16 16h66q15 0 15 -16v-188z" />
    <glyph glyph-name="minus" unicode="&#x2212;" horiz-adv-x="518" 
d="M51 305q-15 0 -15 17v63q0 17 15 17h416q14 0 14 -17v-63q0 -17 -14 -17h-416z" />
    <glyph glyph-name="multiply" unicode="&#xd7;" horiz-adv-x="518" 
d="M258 422l118 131q10 12 20 -1l47 -44q10 -13 0 -23l-123 -132l126 -134q9 -10 -1 -23l-47 -45q-11 -12 -21 0l-119 133l-116 -130q-10 -11 -21 0l-47 45q-11 11 -1 23l125 131l-127 133q-10 11 0 23l48 45q12 12 21 1z" />
    <glyph glyph-name="less" unicode="&#x3c;" horiz-adv-x="518" 
d="M49 376q0 11 3 16t9 9l357 234q14 10 22 -5l37 -55q8 -19 -5 -27l-302 -193l302 -193q13 -8 5 -27l-37 -55q-8 -15 -22 -5l-357 234q-6 4 -9 9t-3 16v42z" />
    <glyph glyph-name="divide" unicode="&#xf7;" horiz-adv-x="518" 
d="M51 305q-15 0 -15 17v63q0 17 15 17h416q14 0 14 -17v-63q0 -17 -14 -17h-416zM215 71q-17 0 -17 19v96q0 19 17 19h87q18 0 18 -19v-96q0 -19 -18 -19h-87zM215 502q-17 0 -17 19v96q0 19 17 19h87q18 0 18 -19v-96q0 -19 -18 -19h-87z" />
    <glyph glyph-name="equal" unicode="=" horiz-adv-x="518" 
d="M51 418q-15 0 -15 17v63q0 17 15 17h416q14 0 14 -17v-63q0 -17 -14 -17h-416zM51 192q-15 0 -15 17v63q0 17 15 17h416q14 0 14 -17v-63q0 -17 -14 -17h-416z" />
    <glyph glyph-name="logicalnot" unicode="&#xac;" horiz-adv-x="518" 
d="M481 208q0 -16 -15 -16h-70q-15 0 -15 16v210h-330q-15 0 -15 17v63q0 17 15 17h416q14 0 14 -17v-290z" />
    <glyph glyph-name="greater" unicode="&#x3e;" horiz-adv-x="518" 
d="M470 334q0 -11 -3 -16t-9 -9l-357 -234q-14 -10 -22 5l-37 55q-8 19 5 27l302 193l-302 193q-13 8 -5 27l37 55q8 15 22 5l357 -234q6 -4 9 -9t3 -16v-42z" />
    <glyph glyph-name="notequal" unicode="&#x2260;" horiz-adv-x="518" 
d="M143 192h-92q-15 0 -15 17v63q0 17 15 17h137l59 129h-196q-15 0 -15 17v63q0 17 15 17h240l45 98q5 11 16 11h66q11 0 6 -13l-45 -96h88q14 0 14 -17v-63q0 -17 -14 -17h-132l-59 -129h191q14 0 14 -17v-63q0 -17 -14 -17h-236l-44 -97q-3 -6 -5.5 -8.5t-10.5 -2.5h-66
q-4 0 -6 3.5t1 9.5z" />
    <glyph glyph-name="approxequal" unicode="&#x2248;" horiz-adv-x="518" 
d="M353 469q23 0 36.5 14.5t21.5 41.5q2 8 5.5 11t12.5 1l49 -11q10 -3 11.5 -7.5t-0.5 -11.5q-11 -57 -47.5 -91.5t-90.5 -34.5q-35 0 -60 12t-46 26t-40 26t-41 12q-23 0 -36.5 -14.5t-21.5 -41.5q-2 -8 -5.5 -11t-12.5 -1l-47 11q-10 3 -11.5 7.5t0.5 11.5q5 28 18 51.5
t31 40t40.5 25.5t46.5 9q33 0 58 -12t46.5 -26t41 -26t41.5 -12zM353 243q23 0 36.5 14.5t21.5 41.5q2 8 5.5 11t12.5 1l49 -11q10 -3 11.5 -7.5t-0.5 -11.5q-11 -57 -47.5 -91.5t-90.5 -34.5q-35 0 -60 12t-46 26t-40 26t-41 12q-23 0 -36.5 -14.5t-21.5 -41.5
q-2 -8 -5.5 -11t-12.5 -1l-47 11q-10 3 -11.5 7.5t0.5 11.5q5 28 18 51.5t31 40t40.5 25.5t46.5 9q33 0 58 -12t46.5 -26t41 -26t41.5 -12z" />
    <glyph glyph-name="plusminus" unicode="&#xb1;" horiz-adv-x="518" 
d="M307 501h160q14 0 14 -17v-63q0 -17 -14 -17h-160v-189q0 -16 -15 -16h-66q-16 0 -16 16v189h-159q-15 0 -15 17v63q0 17 15 17h159v188q0 16 16 16h66q15 0 15 -16v-188zM51 0q-15 0 -15 17v63q0 17 15 17h416q14 0 14 -17v-63q0 -17 -14 -17h-416z" />
    <glyph glyph-name="lessequal" unicode="&#x2264;" horiz-adv-x="518" 
d="M51 0q-15 0 -15 17v63q0 17 15 17h416q14 0 14 -17v-63q0 -17 -14 -17h-416zM48 465q0 11 3 16t9 9l357 234q14 10 22 -5l32 -55q8 -19 -5 -27l-301 -193l301 -193q13 -8 5 -27l-32 -55q-8 -15 -22 -5l-357 234q-6 4 -9 9t-3 16v42z" />
    <glyph glyph-name="greaterequal" unicode="&#x2265;" horiz-adv-x="518" 
d="M50 0q-14 0 -14 17v63q0 17 14 17h416q15 0 15 -17v-63q0 -17 -15 -17h-416zM469 423q0 -11 -3 -16t-9 -9l-357 -234q-14 -10 -22 5l-32 55q-8 19 5 27l301 193l-301 193q-13 8 -5 27l32 55q8 15 22 5l357 -234q6 -4 9 -9t3 -16v-42z" />
    <glyph glyph-name="asciicircum" unicode="^" horiz-adv-x="518" 
d="M473 339q3 -7 1 -13t-11 -6h-74q-9 0 -12.5 2t-7.5 10l-109 266l-110 -266q-4 -8 -7.5 -10t-12.5 -2h-75q-8 0 -10.5 6t1.5 13l157 370q4 8 7 11.5t13 3.5h75q9 0 12.5 -3.5t7.5 -11.5z" />
    <glyph glyph-name="asciitilde" unicode="~" horiz-adv-x="519" 
d="M354 385q23 0 36.5 14.5t21.5 41.5q2 8 5.5 11t12.5 1l47 -11q10 -3 11.5 -7.5t-0.5 -11.5q-11 -56 -49 -91t-87 -35q-35 0 -60 12t-46 26t-40 26t-41 12q-23 0 -36.5 -14.5t-21.5 -41.5q-2 -8 -5.5 -11t-12.5 -1l-47 11q-10 3 -11.5 7.5t0.5 11.5q5 28 18 51.5t31 40
t40.5 25.5t46.5 9q33 0 58 -12t46.5 -26t41 -26t41.5 -12z" />
    <glyph glyph-name="lozenge" unicode="&#x25ca;" horiz-adv-x="534" 
d="M511 353q0 -14 -1.5 -21t-7.5 -17l-194 -305q-6 -10 -19 -10h-44q-13 0 -19 10l-194 305q-6 10 -7.5 17t-1.5 21v14q0 14 1.5 21t7.5 17l194 305q6 10 19 10h44q13 0 19 -10l194 -305q6 -10 7.5 -17t1.5 -21v-14zM267 581l-137 -221l137 -222l137 222z" />
    <glyph glyph-name="degree" unicode="&#xb0;" horiz-adv-x="315" 
d="M158 446q-27 0 -51.5 9t-42.5 26.5t-28.5 43.5t-10.5 60q0 33 10 60t28 45.5t42.5 29t54.5 10.5q28 0 52 -9t42 -26t28.5 -43.5t10.5 -60.5q0 -66 -37.5 -105.5t-97.5 -39.5zM159 513q29 0 42.5 20t13.5 57q0 35 -14.5 54t-42.5 19q-29 0 -43 -20.5t-14 -55.5t15 -54.5
t43 -19.5z" />
    <glyph glyph-name="quotesingle" unicode="'" horiz-adv-x="209" 
d="M79 441q-10 0 -13 4.5t-3 12.5l-10 245q0 17 16 17h71q16 0 16 -17l-11 -245q-1 -8 -3.5 -12.5t-12.5 -4.5h-50z" />
    <glyph glyph-name="quotedbl" unicode="&#x22;" horiz-adv-x="377" 
d="M79 441q-10 0 -13 4.5t-3 12.5l-9 245q0 8 3 12.5t13 4.5h70q16 0 16 -17l-11 -245q-1 -8 -3 -12.5t-13 -4.5h-50zM247 441q-11 0 -13.5 4.5t-2.5 12.5l-10 245q0 17 16 17h70q10 0 13 -4.5t3 -12.5l-10 -245q-1 -8 -3.5 -12.5t-12.5 -4.5h-50z" />
    <glyph glyph-name="radical" unicode="&#x221a;" horiz-adv-x="583" 
d="M45 544q0 11 3.5 15t11.5 4h115q14 0 20 -5t11 -22l108 -371l199 734q4 15 15 15h85q17 0 13 -15l-254 -887q-3 -12 -17 -12h-88q-14 0 -18 12l-138 456h-51q-8 0 -11.5 4t-3.5 15v57z" />
    <glyph glyph-name="currency" unicode="&#xa4;" horiz-adv-x="519" 
d="M267 247q37 0 56 31.5t19 78.5q0 58 -21 87t-56 29t-56 -29t-21 -87q0 -47 21 -78.5t58 -31.5zM267 152q-19 0 -42 3t-37 10l-38 -71q-4 -8 -8 -10t-12 -2h-73q-5 0 -7.5 3.5t1.5 9.5l69 125q-17 26 -26.5 58.5t-9.5 73.5q0 47 11.5 84.5t30.5 64.5l-68 124q-8 13 6 13
h72q10 0 13.5 -2t8.5 -10l37 -71q29 13 70 13t70 -13l37 71q5 8 8.5 10t13.5 2h72q14 0 6 -13l-68 -124q19 -27 30.5 -64.5t11.5 -84.5q0 -41 -9.5 -73.5t-26.5 -58.5l69 -125q4 -6 1.5 -9.5t-7.5 -3.5h-73q-8 0 -12 2t-8 10l-38 71q-14 -7 -35 -10t-40 -3z" />
    <glyph glyph-name="infinity" unicode="&#x221e;" horiz-adv-x="725" 
d="M193 159q-30 0 -58 11t-50 32t-35 51.5t-13 69.5q0 37 12.5 67.5t33.5 52.5t50 34t62 12q49 0 89.5 -26t79.5 -74q33 41 74 69.5t92 28.5q33 0 61.5 -11t50 -31.5t34 -50.5t12.5 -69q0 -41 -14 -71.5t-36.5 -51t-51 -31t-58.5 -10.5q-45 0 -83 23t-81 74
q-34 -43 -76.5 -71t-94.5 -28zM200 252q33 0 58.5 21t47.5 52q-24 31 -48.5 53t-59.5 22q-32 0 -49 -20t-17 -54q0 -35 19 -54.5t49 -19.5zM519 252q35 0 53 21.5t18 54.5q0 34 -20.5 52t-49.5 18q-32 0 -56 -21.5t-45 -51.5q31 -39 52 -56t48 -17z" />
    <glyph glyph-name="uni00B5" unicode="&#xb5;" horiz-adv-x="534" 
d="M64 -225q-2 54 -3 121.5t-1 134.5v481q0 16 17 16h86q17 0 17 -16v-296q0 -57 18.5 -88t57.5 -31q17 0 32.5 5.5t27.5 18.5q19 20 21 56t2 98v237q0 16 18 16h85q17 0 17 -16v-381q0 -28 1 -59t3 -50q1 -22 -20 -22h-65q-17 0 -19 14q-2 11 -2.5 26t-1.5 32
q-14 -36 -40.5 -59t-61.5 -23q-51 0 -74 38q0 -69 1.5 -134.5t3.5 -118.5q1 -17 -17 -17h-86q-16 0 -17 17z" />
    <glyph glyph-name="Ohm" unicode="&#x2126;" horiz-adv-x="673" 
d="M376 0q-8 0 -11 6t-3 37v6q0 21 3 27.5t11 12.5q52 36 86 105t34 177q0 127 -44 190t-114 63q-71 0 -116 -63.5t-45 -191.5q0 -108 34.5 -176t85.5 -104q8 -6 10.5 -13t2.5 -27v-6q0 -31 -2.5 -37t-10.5 -6h-227q-20 0 -20 19v64q0 19 20 19h86q-21 20 -40 48.5t-33 64
t-22.5 75.5t-8.5 83q0 88 22 155t61 112t91 67.5t112 22.5t111.5 -22.5t90 -67.5t60 -111t21.5 -153q0 -44 -8.5 -85t-23 -76t-33.5 -64t-40 -49h86q20 0 20 -19v-64q0 -19 -20 -19h-226z" />
    <glyph glyph-name="glyph190" unicode="&#x2206;" horiz-adv-x="581" 
d="M325 720q15 0 22.5 -4t11.5 -16l191 -588q8 -23 8 -47v-43q0 -22 -26 -22h-485q-15 0 -19.5 6.5t-4.5 19.5v38q0 14 1.5 25t6.5 25l192 586q4 11 10.5 15.5t22.5 4.5h69zM155 112h265l-132 439z" />
    <glyph glyph-name="partialdiff" unicode="&#x2202;" horiz-adv-x="515" 
d="M246 -10q-49 0 -88.5 18.5t-67.5 52t-43 79t-15 99.5q0 49 14 90.5t39 71.5t60.5 47t79.5 17q32 0 62.5 -11.5t55.5 -29.5q-4 43 -12.5 81t-24 66t-39.5 44t-60 16q-40 0 -81 -22q-15 -8 -22 6l-21 48q-5 13 -3.5 18t8.5 10q24 17 58 28t70 11q128 0 193 -111t65 -313
q0 -68 -13.5 -125.5t-41.5 -100t-71 -66.5t-102 -24zM249 90q29 0 48 16.5t30.5 45.5t16.5 68.5t5 85.5v29q-23 14 -48.5 22.5t-51.5 8.5t-44 -10.5t-29 -28.5t-16 -43t-5 -53q0 -29 6 -54.5t17.5 -44.5t29 -30.5t41.5 -11.5z" />
    <glyph glyph-name="summation" unicode="&#x2211;" horiz-adv-x="517" 
d="M482 -64q18 0 18 -19v-65q0 -19 -18 -19h-440q-14 0 -14 14v47q0 14 4 22t14 22l245 336l-243 329q-10 13 -14 21.5t-4 22.5v57q0 16 13 16h433q18 0 18 -19v-65q0 -19 -18 -19h-298l215 -291q3 -4 5.5 -10.5t2.5 -20.5v-24q0 -13 -2 -20.5t-7 -13.5l-217 -301h307z" />
    <glyph glyph-name="product" unicode="&#x220f;" horiz-adv-x="669" 
d="M437 617h-206v-765q0 -19 -18 -19h-92q-17 0 -17 19v765h-72q-17 0 -17 19v65q0 19 17 19h605q17 0 17 -19v-65q0 -19 -17 -19h-73v-765q0 -19 -18 -19h-92q-17 0 -17 19v765z" />
    <glyph glyph-name="integral" unicode="&#x222b;" horiz-adv-x="330" 
d="M33 -136q-11 4 -7 30l9 47q2 12 6.5 15.5t12.5 1.5q18 -5 38 -5q36 0 48.5 26.5t12.5 72.5q0 54 -13.5 110t-30 114.5t-30 119.5t-13.5 126q0 46 10.5 84.5t31 66t51 42.5t69.5 15q23 0 39.5 -3t29.5 -8q7 -3 8 -9.5t-1 -20.5l-9 -47q-2 -10 -4.5 -14.5t-10.5 -2.5t-17 3
t-19 1q-37 0 -48 -26t-11 -72q0 -56 13.5 -113t30 -116t30.5 -120t14 -124q0 -45 -11.5 -83t-32.5 -65t-51.5 -42t-69.5 -15q-23 0 -42 3t-33 8z" />
    <glyph glyph-name="litre" unicode="&#x2113;" horiz-adv-x="254" 
d="M216 8q-24 -8 -56 -8q-30 0 -50 8.5t-31.5 25.5t-16 42.5t-4.5 59.5v340q0 37 -1 78.5t-2 80t-2 69.5t-2 47q-1 15 16 15h84q18 0 19 -16q1 -12 2 -40.5t2.5 -67.5t2.5 -87t1 -100v-319q0 -24 6 -34.5t21 -10.5h9q7 0 9.5 -2.5t2.5 -12.5v-47q0 -8 -1.5 -13.5t-8.5 -7.5z
" />
    <glyph glyph-name="estimated" unicode="&#x212e;" horiz-adv-x="922" 
d="M462 -10q-85 0 -160 29t-131 79.5t-88.5 117.5t-32.5 144t32.5 144.5t88.5 117.5t131 79t160 29t159.5 -29t130 -79t88 -117.5t32.5 -144.5v-8h-666q-5 0 -5 -6v-202q0 -12 9 -24q48 -48 113 -78t140 -30q80 0 148 32.5t116 89.5h60q-57 -66 -141 -105t-184 -39zM716 371
q5 0 5 6v203q0 13 -10 25q-48 48 -112 75.5t-136 27.5q-75 0 -139 -29t-113 -77q-10 -10 -10 -26v-199q0 -6 5 -6h510z" />
    <glyph glyph-name="numero" unicode="&#x2116;" horiz-adv-x="989" 
d="M953 467q0 -104 -45 -160t-129 -56q-77 0 -120.5 52t-43.5 149q0 104 46 160t129 56q77 0 120 -52t43 -149zM846 462q0 51 -14 80.5t-45 29.5q-32 0 -48 -29.5t-16 -85.5q0 -50 13.5 -80t45.5 -30q64 0 64 115zM65 701q0 19 20 19h69q15 0 22.5 -3.5t13.5 -14.5l130 -238
q38 -70 70 -136t56 -125q-2 65 -2.5 133t-0.5 123v242q0 19 20 19h78q20 0 20 -19v-682q0 -19 -20 -19h-71q-15 0 -21 3t-12 14l-151 284q-34 64 -60.5 117t-48.5 102q3 -72 4.5 -135.5t1.5 -116.5v-249q0 -19 -20 -19h-78q-20 0 -20 19v682z" />
    <glyph glyph-name="ordfeminine" unicode="&#xaa;" horiz-adv-x="350" 
d="M314 442q0 -36 1.5 -67t2.5 -56q0 -14 -12 -14h-60q-10 0 -12 11l-3 34q-11 -23 -34 -37.5t-49 -14.5t-49.5 11.5t-41.5 34t-28.5 55t-10.5 74.5q0 46 12 81.5t31.5 59.5t44 36.5t50.5 12.5q25 0 42.5 -9.5t31.5 -25.5q5 19 7.5 23.5t10.5 4.5h54q8 0 10.5 -3t2.5 -9z
M218 556q-16 28 -45 28q-30 0 -43.5 -29t-13.5 -76q0 -42 11.5 -72t44.5 -30q21 0 33.5 17.5t12.5 65.5v96z" />
    <glyph glyph-name="ordmasculine" unicode="&#xba;" horiz-adv-x="345" 
d="M176 584q-28 0 -44 -25t-16 -82q0 -43 11.5 -71.5t43.5 -28.5q27 0 43.5 25t16.5 82q0 42 -11.5 71t-43.5 29zM178 663q70 0 110.5 -45t40.5 -130q0 -93 -43.5 -141.5t-116.5 -48.5q-69 0 -110 44t-41 131q0 93 43.5 141.5t116.5 48.5z" />
    <glyph glyph-name="onesuperior" unicode="&#xb9;" horiz-adv-x="275" 
d="M253 473q10 0 10 -12v-48q0 -12 -10 -12h-199q-11 0 -11 12v48q0 12 11 12h57v221l-53 -33q-11 -5 -15 5l-21 46q-3 6 -1.5 9.5t5.5 6.5l93 57q11 7 18 9t18 2h38q12 0 12 -10v-313h48z" />
    <glyph glyph-name="twosuperior" unicode="&#xb2;" horiz-adv-x="278" 
d="M256 681q0 -38 -22 -66.5t-49 -51.5t-50.5 -44t-26.5 -44h138q6 0 9 -3t3 -13v-42q0 -10 -3 -13t-9 -3h-215q-6 0 -9.5 3t-3.5 13v36q0 46 22.5 77.5t49 55.5t49 44.5t22.5 43.5q0 45 -38 45q-30 0 -63 -19q-13 -9 -19 4l-22 40q-4 8 -2 12t7 9q20 16 50.5 25.5t59.5 9.5
q24 0 46.5 -8t39 -23t26.5 -37.5t10 -50.5z" />
    <glyph glyph-name="threesuperior" unicode="&#xb3;" horiz-adv-x="286" 
d="M250 796q8 0 8 -8v-17q0 -13 -3.5 -21.5t-17.5 -29.5l-66 -90q46 -5 72.5 -34t26.5 -77q0 -31 -11.5 -54t-30.5 -38t-44.5 -22.5t-52.5 -7.5q-29 0 -57 5.5t-52 19.5q-7 4 -8 8.5t1 11.5l15 43q3 8 6 9t11 -3q17 -8 35.5 -13t40.5 -5q26 0 39 13.5t13 37.5
q0 23 -12.5 32.5t-44.5 9.5h-33q-7 0 -7 8v33q0 10 1.5 14.5t4.5 9.5l64 86h-116q-8 0 -8 8v64q0 7 8 7h218z" />
    <glyph glyph-name="fraction" unicode="&#x2044;" horiz-adv-x="305" 
d="M246 722q3 8 8 11.5t16 3.5h41q24 0 16 -16l-264 -724q-3 -8 -7 -11.5t-13 -3.5h-53q-18 0 -12 16z" />
    <glyph glyph-name="onehalf" unicode="&#xbd;" horiz-adv-x="855" 
d="M273 397q10 0 10 -12v-48q0 -12 -10 -12h-199q-11 0 -11 12v48q0 12 11 12h57v221l-53 -33q-11 -5 -15 5l-21 46q-3 6 -1.5 9.5t5.5 6.5l93 57q11 7 18 9t18 2h38q12 0 12 -10v-313h48zM786 280q0 -38 -22 -66.5t-49 -51.5t-50.5 -44t-26.5 -44h138q6 0 9 -3t3 -13v-42
q0 -10 -3 -13t-9 -3h-215q-6 0 -9.5 3t-3.5 13v36q0 46 22.5 77.5t49 55.5t49 44.5t22.5 43.5q0 45 -38 45q-30 0 -63 -19q-13 -9 -19 4l-22 40q-4 8 -2 12t7 9q20 16 50.5 25.5t59.5 9.5q24 0 46.5 -8t39 -23t26.5 -37.5t10 -50.5zM510 722q3 8 8 11.5t16 3.5h41
q24 0 16 -16l-264 -724q-3 -8 -7 -11.5t-13 -3.5h-53q-18 0 -12 16z" />
    <glyph glyph-name="onequarter" unicode="&#xbc;" horiz-adv-x="854" 
d="M273 397q10 0 10 -12v-48q0 -12 -10 -12h-199q-11 0 -11 12v48q0 12 11 12h57v221l-53 -33q-11 -5 -15 5l-21 46q-3 6 -1.5 9.5t5.5 6.5l93 57q11 7 18 9t18 2h38q12 0 12 -10v-313h48zM768 167q11 0 11 -12v-54q0 -12 -11 -12h-30v-77q0 -12 -11 -12h-70q-10 0 -10 12
v77h-144q-11 0 -11 12v26q0 11 2 19t7 20l86 221q4 8 13 8h69q6 0 8 -4t0 -9l-92 -215h62v65q0 12 10 12h70q11 0 11 -12v-65h30zM510 722q3 8 8 11.5t16 3.5h41q24 0 16 -16l-264 -724q-3 -8 -7 -11.5t-13 -3.5h-53q-18 0 -12 16z" />
    <glyph glyph-name="threequarters" unicode="&#xbe;" horiz-adv-x="854" 
d="M768 167q11 0 11 -12v-54q0 -12 -11 -12h-30v-77q0 -12 -11 -12h-70q-10 0 -10 12v77h-144q-11 0 -11 12v26q0 11 2 19t7 20l86 221q4 8 13 8h69q6 0 8 -4t0 -9l-92 -215h62v65q0 12 10 12h70q11 0 11 -12v-65h30zM290 720q8 0 8 -8v-17q0 -13 -3.5 -21.5t-17.5 -29.5
l-66 -90q46 -5 72.5 -34t26.5 -77q0 -31 -11.5 -54t-30.5 -38t-44.5 -22.5t-52.5 -7.5q-29 0 -57 5.5t-52 19.5q-7 4 -8 8.5t1 11.5l15 43q3 8 6 9t11 -3q17 -8 35.5 -13t40.5 -5q26 0 39 13.5t13 37.5q0 23 -12.5 32.5t-44.5 9.5h-33q-7 0 -7 8v33q0 10 1.5 14.5t4.5 9.5
l64 86h-116q-8 0 -8 8v64q0 7 8 7h218zM510 722q3 8 8 11.5t16 3.5h41q24 0 16 -16l-264 -724q-3 -8 -7 -11.5t-13 -3.5h-53q-18 0 -12 16z" />
    <glyph glyph-name="Agrave" unicode="&#xc0;" horiz-adv-x="592" 
d="M293 564q-18 -71 -32.5 -126.5t-28.5 -104.5l-17 -59h154l-17 61q-5 17 -13 46t-16.5 62t-16.5 65.5t-13 55.5zM576 20q3 -9 -1 -14.5t-13 -5.5h-90q-20 0 -27 19l-47 156h-213l-45 -156q-5 -19 -27 -19h-83q-21 0 -14 22l212 680q3 10 9 14t19 4h77q13 0 19 -4t9 -14z
M286 780q-8 0 -11.5 2.5t-7.5 7.5l-104 150q-5 7 -3 11t10 4h79q8 0 11 -2.5t7 -8.5l83 -151q4 -7 2 -10t-7 -3h-59z" />
    <glyph glyph-name="Aacute" unicode="&#xc1;" horiz-adv-x="592" 
d="M293 564q-18 -71 -32.5 -126.5t-28.5 -104.5l-17 -59h154l-17 61q-5 17 -13 46t-16.5 62t-16.5 65.5t-13 55.5zM576 20q3 -9 -1 -14.5t-13 -5.5h-90q-20 0 -27 19l-47 156h-213l-45 -156q-5 -19 -27 -19h-83q-21 0 -14 22l212 680q3 10 9 14t19 4h77q13 0 19 -4t9 -14z
M243 780q-5 0 -7 3t2 10l83 151q4 6 7 8.5t11 2.5h79q8 0 10 -4t-3 -11l-104 -150q-4 -5 -7.5 -7.5t-11.5 -2.5h-59z" />
    <glyph glyph-name="Acircumflex" unicode="&#xc2;" horiz-adv-x="592" 
d="M293 564q-18 -71 -32.5 -126.5t-28.5 -104.5l-17 -59h154l-17 61q-5 17 -13 46t-16.5 62t-16.5 65.5t-13 55.5zM576 20q3 -9 -1 -14.5t-13 -5.5h-90q-20 0 -27 19l-47 156h-213l-45 -156q-5 -19 -27 -19h-83q-21 0 -14 22l212 680q3 10 9 14t19 4h77q13 0 19 -4t9 -14z
M432 826q4 -5 5 -10t-5 -12l-27 -31q-7 -8 -11.5 -7.5t-10.5 6.5l-91 89l-92 -89q-10 -10 -21 1l-28 31q-6 7 -5 11.5t5 9.5l81 97q7 8 12.5 11.5t16.5 3.5h62q17 0 29 -15z" />
    <glyph glyph-name="Atilde" unicode="&#xc3;" horiz-adv-x="592" 
d="M293 564q-18 -71 -32.5 -126.5t-28.5 -104.5l-17 -59h154l-17 61q-5 17 -13 46t-16.5 62t-16.5 65.5t-13 55.5zM576 20q3 -9 -1 -14.5t-13 -5.5h-90q-20 0 -27 19l-47 156h-213l-45 -156q-5 -19 -27 -19h-83q-21 0 -14 22l212 680q3 10 9 14t19 4h77q13 0 19 -4t9 -14z
M440 857q-17 -25 -41.5 -43t-53.5 -18q-17 0 -31 6t-26 12.5t-23.5 12.5t-24.5 6t-25 -8.5t-25 -22.5q-3 -3 -6 -4t-8 4l-32 39q-7 8 1 19q17 25 41.5 43t53.5 18q17 0 31 -6t26 -12.5t23.5 -12.5t24.5 -6t25 8.5t25 22.5q3 3 6 4t8 -4l32 -39q7 -8 -1 -19z" />
    <glyph glyph-name="Adieresis" unicode="&#xc4;" horiz-adv-x="592" 
d="M293 564q-18 -71 -32.5 -126.5t-28.5 -104.5l-17 -59h154l-17 61q-5 17 -13 46t-16.5 62t-16.5 65.5t-13 55.5zM576 20q3 -9 -1 -14.5t-13 -5.5h-90q-20 0 -27 19l-47 156h-213l-45 -156q-5 -19 -27 -19h-83q-21 0 -14 22l212 680q3 10 9 14t19 4h77q13 0 19 -4t9 -14z
M155 791q-15 0 -15 16v86q0 16 15 16h77q16 0 16 -16v-86q0 -16 -16 -16h-77zM352 791q-15 0 -15 16v86q0 16 15 16h77q16 0 16 -16v-86q0 -16 -16 -16h-77z" />
    <glyph glyph-name="Aring" unicode="&#xc5;" horiz-adv-x="592" 
d="M293 564q-18 -71 -32.5 -126.5t-28.5 -104.5l-17 -59h154l-17 61q-5 17 -13 46t-16.5 62t-16.5 65.5t-13 55.5zM576 20q3 -9 -1 -14.5t-13 -5.5h-90q-20 0 -27 19l-47 156h-213l-45 -156q-5 -19 -27 -19h-83q-21 0 -14 22l212 680q3 10 9 14t19 4h77q13 0 19 -4t9 -14z
M292 781q-20 0 -38 8t-31.5 21.5t-22 32.5t-8.5 41q0 21 8.5 40t22 32.5t31.5 21.5t38 8q19 0 37 -8t31.5 -21.5t21.5 -32t8 -40.5t-8 -40.5t-21.5 -32.5t-31.5 -22t-37 -8zM292 843q15 0 25 12t10 29t-10 28.5t-25 11.5q-16 0 -26.5 -11t-10.5 -29t10.5 -29.5t26.5 -11.5z
" />
    <glyph glyph-name="AE" unicode="&#xc6;" horiz-adv-x="858" 
d="M426 592q-14 -32 -38 -81t-50 -98l-69 -134h157v313zM426 179h-208l-83 -164q-5 -11 -11.5 -13t-20.5 -2h-82q-16 0 -17 7.5t2 12.5l369 680q6 11 13.5 15.5t21.5 4.5h385q22 0 22 -19v-65q0 -19 -20 -19h-244v-202h201q20 0 20 -18v-65q0 -19 -20 -19h-201v-210h248
q20 0 20 -19v-65q0 -19 -21 -19h-354q-20 0 -20 19v160z" />
    <glyph glyph-name="Ccedilla" unicode="&#xc7;" horiz-adv-x="519" 
d="M479 42q-35 -24 -78 -37t-89 -15l-2 -28h2q40 0 70 -22t30 -68q0 -20 -7.5 -39.5t-22 -34.5t-36.5 -24t-51 -9q-20 0 -38 4t-30 9q-6 2 -7 6t0 9l10 42q2 8 4.5 9.5t9.5 -0.5q10 -3 22 -4.5t21 -1.5q18 0 26 9t8 23q0 31 -41 31q-18 0 -40 -3q-8 0 -9 3t0 11l11 85
q-95 20 -152 108.5t-57 246.5q0 92 21 162.5t58 118.5t88.5 72.5t111.5 24.5q51 0 93 -15t77 -42q16 -12 8 -29l-28 -48q-5 -9 -13 -12.5t-16 2.5q-24 17 -53.5 27t-58.5 10q-75 0 -116.5 -66.5t-41.5 -199.5q0 -60 8.5 -108t27 -81.5t48.5 -51.5t73 -18q29 0 60 8.5
t57 23.5q11 6 16 4.5t9 -10.5l25 -53q9 -18 -8 -29z" />
    <glyph glyph-name="Eth" unicode="&#xd0;" horiz-adv-x="606" 
d="M95 0q-20 0 -20 19v297h-54q-16 0 -16 17v63q0 17 16 17h54v288q0 19 20 19h153q168 0 246.5 -88.5t78.5 -268.5q0 -197 -94 -289q-41 -39 -96.5 -56.5t-130.5 -17.5h-157zM202 413h90q16 0 16 -17v-63q0 -17 -16 -17h-90v-214h50q47 0 82.5 13.5t59.5 44.5t36.5 80
t12.5 121q0 60 -9 108t-30.5 81t-57.5 50.5t-90 17.5h-54v-205z" />
    <glyph glyph-name="Egrave" unicode="&#xc8;" horiz-adv-x="497" 
d="M440 103q20 0 20 -19v-65q0 -19 -21 -19h-354q-20 0 -20 19v682q0 19 20 19h351q20 0 20 -19v-65q0 -19 -20 -19h-244v-202h201q20 0 20 -18v-65q0 -19 -20 -19h-201v-210h248zM277 780q-8 0 -11.5 2.5t-7.5 7.5l-104 150q-5 7 -3 11t10 4h79q8 0 11 -2.5t7 -8.5l83 -151
q4 -7 2 -10t-7 -3h-59z" />
    <glyph glyph-name="Eacute" unicode="&#xc9;" horiz-adv-x="497" 
d="M440 103q20 0 20 -19v-65q0 -19 -21 -19h-354q-20 0 -20 19v682q0 19 20 19h351q20 0 20 -19v-65q0 -19 -20 -19h-244v-202h201q20 0 20 -18v-65q0 -19 -20 -19h-201v-210h248zM193 780q-5 0 -7 3t2 10l83 151q4 6 7 8.5t11 2.5h79q8 0 10 -4t-3 -11l-104 -150
q-4 -5 -7.5 -7.5t-11.5 -2.5h-59z" />
    <glyph glyph-name="Ecircumflex" unicode="&#xca;" horiz-adv-x="497" 
d="M440 103q20 0 20 -19v-65q0 -19 -21 -19h-354q-20 0 -20 19v682q0 19 20 19h351q20 0 20 -19v-65q0 -19 -20 -19h-244v-202h201q20 0 20 -18v-65q0 -19 -20 -19h-201v-210h248zM409 826q4 -5 5 -10t-5 -12l-27 -31q-7 -8 -11.5 -7.5t-10.5 6.5l-91 89l-92 -89
q-10 -10 -21 1l-28 31q-6 7 -5 11.5t5 9.5l81 97q7 8 12.5 11.5t16.5 3.5h62q17 0 29 -15z" />
    <glyph glyph-name="Edieresis" unicode="&#xcb;" horiz-adv-x="497" 
d="M440 103q20 0 20 -19v-65q0 -19 -21 -19h-354q-20 0 -20 19v682q0 19 20 19h351q20 0 20 -19v-65q0 -19 -20 -19h-244v-202h201q20 0 20 -18v-65q0 -19 -20 -19h-201v-210h248zM131 791q-15 0 -15 16v86q0 16 15 16h77q16 0 16 -16v-86q0 -16 -16 -16h-77zM328 791
q-15 0 -15 16v86q0 16 15 16h77q16 0 16 -16v-86q0 -16 -16 -16h-77z" />
    <glyph glyph-name="Igrave" unicode="&#xcc;" horiz-adv-x="263" 
d="M195 19q0 -19 -20 -19h-87q-20 0 -20 19v682q0 19 20 19h87q20 0 20 -19v-682zM121 780q-8 0 -11.5 2.5t-7.5 7.5l-104 150q-5 7 -3 11t10 4h79q8 0 11 -2.5t7 -8.5l83 -151q4 -7 2 -10t-7 -3h-59z" />
    <glyph glyph-name="Iacute" unicode="&#xcd;" horiz-adv-x="263" 
d="M195 19q0 -19 -20 -19h-87q-20 0 -20 19v682q0 19 20 19h87q20 0 20 -19v-682zM84 780q-5 0 -7 3t2 10l83 151q4 6 7 8.5t11 2.5h79q8 0 10 -4t-3 -11l-104 -150q-4 -5 -7.5 -7.5t-11.5 -2.5h-59z" />
    <glyph glyph-name="Icircumflex" unicode="&#xce;" horiz-adv-x="263" 
d="M195 19q0 -19 -20 -19h-87q-20 0 -20 19v682q0 19 20 19h87q20 0 20 -19v-682zM270 826q4 -5 5 -10t-5 -12l-27 -31q-7 -8 -11.5 -7.5t-10.5 6.5l-91 89l-92 -89q-10 -10 -21 1l-28 31q-6 7 -5 11.5t5 9.5l81 97q7 8 12.5 11.5t16.5 3.5h62q17 0 29 -15z" />
    <glyph glyph-name="Idieresis" unicode="&#xcf;" horiz-adv-x="263" 
d="M195 19q0 -19 -20 -19h-87q-20 0 -20 19v682q0 19 20 19h87q20 0 20 -19v-682zM-8 791q-15 0 -15 16v86q0 16 15 16h77q16 0 16 -16v-86q0 -16 -16 -16h-77zM189 791q-15 0 -15 16v86q0 16 15 16h77q16 0 16 -16v-86q0 -16 -16 -16h-77z" />
    <glyph glyph-name="Lslash" unicode="&#x141;" horiz-adv-x="465" 
d="M94 0q-20 0 -20 19v249l-54 -35q-9 -6 -12.5 -2t-3.5 9v76q0 10 2.5 14.5t9.5 9.5l58 38v323q0 19 20 19h87q20 0 20 -19v-240l102 68q9 5 12.5 1t3.5 -9v-76q0 -10 -2.5 -14.5t-9.5 -9.5l-106 -70v-248h220q20 0 20 -19v-65q0 -19 -20 -19h-327z" />
    <glyph glyph-name="Ntilde" unicode="&#xd1;" horiz-adv-x="626" 
d="M65 701q0 19 20 19h69q15 0 22.5 -3.5t13.5 -14.5l130 -238q38 -70 70 -136t56 -125q-2 65 -2.5 133t-0.5 123v242q0 19 20 19h78q20 0 20 -19v-682q0 -19 -20 -19h-71q-15 0 -21 3t-12 14l-151 284q-34 64 -60.5 117t-48.5 102q3 -72 4.5 -135.5t1.5 -116.5v-249
q0 -19 -20 -19h-78q-20 0 -20 19v682zM463 856q-17 -25 -41.5 -43t-53.5 -18q-17 0 -31 6t-26 12.5t-23.5 12.5t-24.5 6t-25 -8.5t-25 -22.5q-3 -3 -6 -4t-8 4l-32 39q-7 8 1 19q17 25 41.5 43t53.5 18q17 0 31 -6t26 -12.5t23.5 -12.5t24.5 -6t25 8.5t25 22.5q3 3 6 4t8 -4
l32 -39q7 -8 -1 -19z" />
    <glyph glyph-name="Ograve" unicode="&#xd2;" horiz-adv-x="603" 
d="M309 624q-72 0 -109 -68.5t-37 -202.5q0 -135 33 -196t98 -61q74 0 110 68.5t36 202.5q0 136 -34 196.5t-97 60.5zM311 730q57 0 104.5 -20.5t82 -64t53.5 -111.5t19 -164q0 -90 -18 -160.5t-53.5 -119t-87 -74.5t-118.5 -26q-57 0 -105 20.5t-82.5 64t-53.5 112
t-19 163.5q0 89 18 159.5t53.5 119.5t87 75t119.5 26zM314 780q-8 0 -11.5 2.5t-7.5 7.5l-104 150q-5 7 -3 11t10 4h79q8 0 11 -2.5t7 -8.5l83 -151q4 -7 2 -10t-7 -3h-59z" />
    <glyph glyph-name="Oacute" unicode="&#xd3;" horiz-adv-x="603" 
d="M309 624q-72 0 -109 -68.5t-37 -202.5q0 -135 33 -196t98 -61q74 0 110 68.5t36 202.5q0 136 -34 196.5t-97 60.5zM311 730q57 0 104.5 -20.5t82 -64t53.5 -111.5t19 -164q0 -90 -18 -160.5t-53.5 -119t-87 -74.5t-118.5 -26q-57 0 -105 20.5t-82.5 64t-53.5 112
t-19 163.5q0 89 18 159.5t53.5 119.5t87 75t119.5 26zM248 780q-5 0 -7 3t2 10l83 151q4 6 7 8.5t11 2.5h79q8 0 10 -4t-3 -11l-104 -150q-4 -5 -7.5 -7.5t-11.5 -2.5h-59z" />
    <glyph glyph-name="Ocircumflex" unicode="&#xd4;" horiz-adv-x="603" 
d="M309 624q-72 0 -109 -68.5t-37 -202.5q0 -135 33 -196t98 -61q74 0 110 68.5t36 202.5q0 136 -34 196.5t-97 60.5zM311 730q57 0 104.5 -20.5t82 -64t53.5 -111.5t19 -164q0 -90 -18 -160.5t-53.5 -119t-87 -74.5t-118.5 -26q-57 0 -105 20.5t-82.5 64t-53.5 112
t-19 163.5q0 89 18 159.5t53.5 119.5t87 75t119.5 26zM447 826q4 -5 5 -10t-5 -12l-27 -31q-7 -8 -11.5 -7.5t-10.5 6.5l-91 89l-92 -89q-10 -10 -21 1l-28 31q-6 7 -5 11.5t5 9.5l81 97q7 8 12.5 11.5t16.5 3.5h62q17 0 29 -15z" />
    <glyph glyph-name="Otilde" unicode="&#xd5;" horiz-adv-x="603" 
d="M309 624q-72 0 -109 -68.5t-37 -202.5q0 -135 33 -196t98 -61q74 0 110 68.5t36 202.5q0 136 -34 196.5t-97 60.5zM311 730q57 0 104.5 -20.5t82 -64t53.5 -111.5t19 -164q0 -90 -18 -160.5t-53.5 -119t-87 -74.5t-118.5 -26q-57 0 -105 20.5t-82.5 64t-53.5 112
t-19 163.5q0 89 18 159.5t53.5 119.5t87 75t119.5 26zM454 856q-17 -25 -41.5 -43t-53.5 -18q-17 0 -31 6t-26 12.5t-23.5 12.5t-24.5 6t-25 -8.5t-25 -22.5q-3 -3 -6 -4t-8 4l-32 39q-7 8 1 19q17 25 41.5 43t53.5 18q17 0 31 -6t26 -12.5t23.5 -12.5t24.5 -6t25 8.5
t25 22.5q3 3 6 4t8 -4l32 -39q7 -8 -1 -19z" />
    <glyph glyph-name="Odieresis" unicode="&#xd6;" horiz-adv-x="603" 
d="M309 624q-72 0 -109 -68.5t-37 -202.5q0 -135 33 -196t98 -61q74 0 110 68.5t36 202.5q0 136 -34 196.5t-97 60.5zM311 730q57 0 104.5 -20.5t82 -64t53.5 -111.5t19 -164q0 -90 -18 -160.5t-53.5 -119t-87 -74.5t-118.5 -26q-57 0 -105 20.5t-82.5 64t-53.5 112
t-19 163.5q0 89 18 159.5t53.5 119.5t87 75t119.5 26zM169 791q-15 0 -15 16v86q0 16 15 16h77q16 0 16 -16v-86q0 -16 -16 -16h-77zM366 791q-15 0 -15 16v86q0 16 15 16h77q16 0 16 -16v-86q0 -16 -16 -16h-77z" />
    <glyph glyph-name="Oslash" unicode="&#xd8;" horiz-adv-x="603" 
d="M311 730q64 0 113 -25l31 60q8 17 23 9l54 -32q8 -5 10.5 -9.5t-4.5 -17.5l-38 -73q33 -44 51.5 -111t18.5 -161q0 -90 -18 -160.5t-53.5 -119t-87 -74.5t-118.5 -26q-64 0 -113 24l-30 -58q-8 -17 -25 -7l-53 31q-14 8 -5 26l36 71q-33 45 -51.5 112t-18.5 161
q0 89 18 159.5t53.5 119.5t87 75t119.5 26zM309 624q-72 0 -109 -68.5t-37 -202.5q0 -82 12 -136l197 387q-28 20 -63 20zM440 367q0 79 -12 133l-197 -385q26 -19 63 -19q74 0 110 68.5t36 202.5z" />
    <glyph glyph-name="OE" unicode="&#x152;" horiz-adv-x="862" 
d="M801 720q20 0 20 -19v-65q0 -19 -20 -19h-244v-202h201q20 0 20 -18v-65q0 -19 -20 -19h-201v-210h248q20 0 20 -19v-65q0 -19 -21 -19h-276q-54 0 -107 -5t-113 -5t-110 21t-87 64.5t-57.5 111.5t-20.5 162q0 91 19.5 161.5t57 119.5t92.5 74.5t125 25.5q45 0 91 -5
t100 -5h283zM430 617q-21 3 -41.5 5t-37.5 2q-45 0 -80 -14t-59 -46.5t-36.5 -84t-12.5 -126.5q0 -69 10.5 -118t32 -80t53.5 -45t75 -14q20 0 48 1.5t48 5.5v514z" />
    <glyph glyph-name="Thorn" unicode="&#xde;" horiz-adv-x="499" 
d="M192 583q18 1 25 1h12q117 0 183 -53t66 -166q0 -48 -13.5 -90.5t-41.5 -74t-72.5 -50t-105.5 -18.5q-13 0 -26.5 0.5t-26.5 1.5v-115q0 -19 -20 -19h-87q-20 0 -20 19v682q0 19 20 19h87q20 0 20 -19v-118zM228 480h-19t-17 -1v-241q11 -1 23 -1.5t23 -0.5q62 0 86 36
t24 92q0 66 -31.5 91t-88.5 25z" />
    <glyph glyph-name="Scaron" unicode="&#x160;" horiz-adv-x="484" 
d="M41 54q-15 12 -5 31l27 57q10 19 29 6q28 -21 64 -36.5t70 -15.5q46 0 70.5 26.5t24.5 71.5q0 25 -8 43t-22.5 32.5t-33.5 26.5t-40 24q-39 22 -69 44t-49.5 47t-29.5 55t-10 70q0 44 15 79.5t42 61t64 39.5t81 14t85 -13.5t73 -37.5q16 -11 6 -31l-28 -50
q-10 -20 -29 -7q-22 15 -45.5 25t-52.5 10q-42 0 -64.5 -24t-22.5 -62q0 -21 8.5 -37.5t23.5 -31t34 -27t40 -25.5q27 -17 54.5 -36t50 -44t36.5 -58t14 -77q0 -47 -13.5 -86.5t-40.5 -68t-67.5 -44t-93.5 -15.5q-57 0 -106.5 19t-81.5 45zM317 794q-12 -15 -29 -15h-62
q-11 0 -16.5 3.5t-12.5 11.5l-81 97q-4 5 -5 9.5t5 11.5l30 33q5 6 8.5 6t8.5 -5l94 -91l93 91q5 5 8.5 5t8.5 -6l30 -33q6 -7 5 -12t-5 -10z" />
    <glyph glyph-name="Ugrave" unicode="&#xd9;" horiz-adv-x="615" 
d="M554 286q-1 -80 -15.5 -132t-44.5 -88q-61 -76 -191 -76q-64 0 -112 18.5t-78 58.5q-26 33 -39 79t-13 119v436q0 19 20 19h87q20 0 20 -19v-435q0 -51 7.5 -84.5t27.5 -53.5q28 -32 84 -32q54 0 85 34q20 20 27.5 53t7.5 83v435q0 19 20 19h87q20 0 20 -19v-415z
M312 780q-8 0 -11.5 2.5t-7.5 7.5l-104 150q-5 7 -3 11t10 4h79q8 0 11 -2.5t7 -8.5l83 -151q4 -7 2 -10t-7 -3h-59z" />
    <glyph glyph-name="Uacute" unicode="&#xda;" horiz-adv-x="615" 
d="M554 286q-1 -80 -15.5 -132t-44.5 -88q-61 -76 -191 -76q-64 0 -112 18.5t-78 58.5q-26 33 -39 79t-13 119v436q0 19 20 19h87q20 0 20 -19v-435q0 -51 7.5 -84.5t27.5 -53.5q28 -32 84 -32q54 0 85 34q20 20 27.5 53t7.5 83v435q0 19 20 19h87q20 0 20 -19v-415z
M260 780q-5 0 -7 3t2 10l83 151q4 6 7 8.5t11 2.5h79q8 0 10 -4t-3 -11l-104 -150q-4 -5 -7.5 -7.5t-11.5 -2.5h-59z" />
    <glyph glyph-name="Ucircumflex" unicode="&#xdb;" horiz-adv-x="615" 
d="M554 286q-1 -80 -15.5 -132t-44.5 -88q-61 -76 -191 -76q-64 0 -112 18.5t-78 58.5q-26 33 -39 79t-13 119v436q0 19 20 19h87q20 0 20 -19v-435q0 -51 7.5 -84.5t27.5 -53.5q28 -32 84 -32q54 0 85 34q20 20 27.5 53t7.5 83v435q0 19 20 19h87q20 0 20 -19v-415z
M447 826q4 -5 5 -10t-5 -12l-27 -31q-7 -8 -11.5 -7.5t-10.5 6.5l-91 89l-92 -89q-10 -10 -21 1l-28 31q-6 7 -5 11.5t5 9.5l81 97q7 8 12.5 11.5t16.5 3.5h62q17 0 29 -15z" />
    <glyph glyph-name="Udieresis" unicode="&#xdc;" horiz-adv-x="615" 
d="M554 286q-1 -80 -15.5 -132t-44.5 -88q-61 -76 -191 -76q-64 0 -112 18.5t-78 58.5q-26 33 -39 79t-13 119v436q0 19 20 19h87q20 0 20 -19v-435q0 -51 7.5 -84.5t27.5 -53.5q28 -32 84 -32q54 0 85 34q20 20 27.5 53t7.5 83v435q0 19 20 19h87q20 0 20 -19v-415z
M170 791q-15 0 -15 16v86q0 16 15 16h77q16 0 16 -16v-86q0 -16 -16 -16h-77zM367 791q-15 0 -15 16v86q0 16 15 16h77q16 0 16 -16v-86q0 -16 -16 -16h-77z" />
    <glyph glyph-name="Yacute" unicode="&#xdd;" horiz-adv-x="515" 
d="M319 283v-264q0 -19 -20 -19h-87q-20 0 -20 19v264l-182 417q-8 20 13 20h87q15 0 22.5 -4t12.5 -15l64 -157q15 -38 29.5 -77t23.5 -69q11 34 24 70.5t29 76.5l63 157q5 11 12 14.5t21 3.5h80q22 0 13 -20zM212 783q-5 0 -7 3t2 10l83 151q4 6 7 8.5t11 2.5h79
q8 0 10 -4t-3 -11l-104 -150q-4 -5 -7.5 -7.5t-11.5 -2.5h-59z" />
    <glyph glyph-name="Ydieresis" unicode="&#x178;" horiz-adv-x="515" 
d="M319 283v-264q0 -19 -20 -19h-87q-20 0 -20 19v264l-182 417q-8 20 13 20h87q15 0 22.5 -4t12.5 -15l64 -157q15 -38 29.5 -77t23.5 -69q11 34 24 70.5t29 76.5l63 157q5 11 12 14.5t21 3.5h80q22 0 13 -20zM124 791q-15 0 -15 16v86q0 16 15 16h77q16 0 16 -16v-86
q0 -16 -16 -16h-77zM321 791q-15 0 -15 16v86q0 16 15 16h77q16 0 16 -16v-86q0 -16 -16 -16h-77z" />
    <glyph glyph-name="Zcaron" unicode="&#x17d;" horiz-adv-x="505" 
d="M323 617h-256q-20 0 -20 19v65q0 19 20 19h373q20 0 20 -19v-51q0 -15 -4 -26t-12 -26l-274 -495h280q20 0 20 -19v-65q0 -19 -20 -19h-395q-20 0 -20 19v49q0 16 4.5 28t12.5 28zM326 794q-12 -15 -29 -15h-62q-11 0 -16.5 3.5t-12.5 11.5l-81 97q-4 5 -5 9.5t5 11.5
l30 33q5 6 8.5 6t8.5 -5l94 -91l93 91q5 5 8.5 5t8.5 -6l30 -33q6 -7 5 -12t-5 -10z" />
    <glyph glyph-name="agrave" unicode="&#xe0;" horiz-adv-x="512" 
d="M329 384q-30 50 -75 50q-48 0 -71.5 -46.5t-23.5 -129.5q0 -167 91 -167q39 0 57 25q11 15 16.5 41.5t5.5 70.5v156zM460 16q1 -16 -17 -16h-67q-18 0 -22 15q-3 9 -6.5 22t-6.5 28q-16 -32 -46 -53.5t-72 -21.5q-40 0 -74.5 16.5t-59.5 49.5t-39.5 82.5t-14.5 115.5
q0 69 15.5 122t41.5 89t61.5 54.5t76.5 18.5q35 0 63.5 -15t48.5 -41l5 28q1 11 6 14.5t16 3.5h63q19 0 19 -16q0 -12 -0.5 -34t-0.5 -48t-0.5 -54t-0.5 -53v-97q0 -71 3 -121t8 -89zM269 591q-8 0 -11.5 2.5t-7.5 7.5l-104 150q-5 7 -3 11t10 4h79q8 0 11 -2.5t7 -8.5
l83 -151q4 -7 2 -10t-7 -3h-59z" />
    <glyph glyph-name="aacute" unicode="&#xe1;" horiz-adv-x="512" 
d="M329 384q-30 50 -75 50q-48 0 -71.5 -46.5t-23.5 -129.5q0 -167 91 -167q39 0 57 25q11 15 16.5 41.5t5.5 70.5v156zM460 16q1 -16 -17 -16h-67q-18 0 -22 15q-3 9 -6.5 22t-6.5 28q-16 -32 -46 -53.5t-72 -21.5q-40 0 -74.5 16.5t-59.5 49.5t-39.5 82.5t-14.5 115.5
q0 69 15.5 122t41.5 89t61.5 54.5t76.5 18.5q35 0 63.5 -15t48.5 -41l5 28q1 11 6 14.5t16 3.5h63q19 0 19 -16q0 -12 -0.5 -34t-0.5 -48t-0.5 -54t-0.5 -53v-97q0 -71 3 -121t8 -89zM225 591q-6 0 -9 3t1 10l83 151q4 6 7 8.5t11 2.5h79q8 0 10 -4t-3 -11l-104 -150
q-4 -5 -8.5 -7.5t-14.5 -2.5h-52z" />
    <glyph glyph-name="acircumflex" unicode="&#xe2;" horiz-adv-x="512" 
d="M329 384q-30 50 -75 50q-48 0 -71.5 -46.5t-23.5 -129.5q0 -167 91 -167q39 0 57 25q11 15 16.5 41.5t5.5 70.5v156zM460 16q1 -16 -17 -16h-67q-18 0 -22 15q-3 9 -6.5 22t-6.5 28q-16 -32 -46 -53.5t-72 -21.5q-40 0 -74.5 16.5t-59.5 49.5t-39.5 82.5t-14.5 115.5
q0 69 15.5 122t41.5 89t61.5 54.5t76.5 18.5q35 0 63.5 -15t48.5 -41l5 28q1 11 6 14.5t16 3.5h63q19 0 19 -16q0 -12 -0.5 -34t-0.5 -48t-0.5 -54t-0.5 -53v-97q0 -71 3 -121t8 -89zM402 641q4 -5 5 -10t-5 -12l-27 -31q-7 -8 -11.5 -7.5t-10.5 6.5l-91 89l-92 -89
q-10 -10 -21 1l-28 31q-6 7 -5 11.5t5 9.5l81 97q7 8 12.5 11.5t16.5 3.5h62q17 0 29 -15z" />
    <glyph glyph-name="atilde" unicode="&#xe3;" horiz-adv-x="512" 
d="M329 384q-30 50 -75 50q-48 0 -71.5 -46.5t-23.5 -129.5q0 -167 91 -167q39 0 57 25q11 15 16.5 41.5t5.5 70.5v156zM460 16q1 -16 -17 -16h-67q-18 0 -22 15q-3 9 -6.5 22t-6.5 28q-16 -32 -46 -53.5t-72 -21.5q-40 0 -74.5 16.5t-59.5 49.5t-39.5 82.5t-14.5 115.5
q0 69 15.5 122t41.5 89t61.5 54.5t76.5 18.5q35 0 63.5 -15t48.5 -41l5 28q1 11 6 14.5t16 3.5h63q19 0 19 -16q0 -12 -0.5 -34t-0.5 -48t-0.5 -54t-0.5 -53v-97q0 -71 3 -121t8 -89zM413 677q-17 -25 -41.5 -43t-53.5 -18q-17 0 -31 6t-26 12.5t-23.5 12.5t-24.5 6
t-25 -8.5t-25 -22.5q-3 -3 -6 -4t-8 4l-32 39q-7 8 1 19q17 25 41.5 43t53.5 18q17 0 31 -6t26 -12.5t23.5 -12.5t24.5 -6t25 8.5t25 22.5q3 3 6 4t8 -4l32 -39q7 -8 -1 -19z" />
    <glyph glyph-name="adieresis" unicode="&#xe4;" horiz-adv-x="512" 
d="M329 384q-30 50 -75 50q-48 0 -71.5 -46.5t-23.5 -129.5q0 -167 91 -167q39 0 57 25q11 15 16.5 41.5t5.5 70.5v156zM460 16q1 -16 -17 -16h-67q-18 0 -22 15q-3 9 -6.5 22t-6.5 28q-16 -32 -46 -53.5t-72 -21.5q-40 0 -74.5 16.5t-59.5 49.5t-39.5 82.5t-14.5 115.5
q0 69 15.5 122t41.5 89t61.5 54.5t76.5 18.5q35 0 63.5 -15t48.5 -41l5 28q1 11 6 14.5t16 3.5h63q19 0 19 -16q0 -12 -0.5 -34t-0.5 -48t-0.5 -54t-0.5 -53v-97q0 -71 3 -121t8 -89zM125 612q-15 0 -15 16v86q0 16 15 16h77q16 0 16 -16v-86q0 -16 -16 -16h-77zM322 612
q-15 0 -15 16v86q0 16 15 16h77q16 0 16 -16v-86q0 -16 -16 -16h-77z" />
    <glyph glyph-name="aring" unicode="&#xe5;" horiz-adv-x="512" 
d="M329 384q-30 50 -75 50q-48 0 -71.5 -46.5t-23.5 -129.5q0 -167 91 -167q39 0 57 25q11 15 16.5 41.5t5.5 70.5v156zM460 16q1 -16 -17 -16h-67q-18 0 -22 15q-3 9 -6.5 22t-6.5 28q-16 -32 -46 -53.5t-72 -21.5q-40 0 -74.5 16.5t-59.5 49.5t-39.5 82.5t-14.5 115.5
q0 69 15.5 122t41.5 89t61.5 54.5t76.5 18.5q35 0 63.5 -15t48.5 -41l5 28q1 11 6 14.5t16 3.5h63q19 0 19 -16q0 -12 -0.5 -34t-0.5 -48t-0.5 -54t-0.5 -53v-97q0 -71 3 -121t8 -89zM261 586q-20 0 -38 8t-31.5 21.5t-22 32.5t-8.5 41q0 21 8.5 40t22 32.5t31.5 21.5t38 8
q19 0 37 -8t31.5 -21.5t21.5 -32t8 -40.5t-8 -40.5t-21.5 -32.5t-31.5 -22t-37 -8zM261 648q15 0 25 12t10 29t-10 28.5t-25 11.5q-16 0 -26.5 -11t-10.5 -29t10.5 -29.5t26.5 -11.5z" />
    <glyph glyph-name="ae" unicode="&#xe6;" horiz-adv-x="770" 
d="M731 269q0 -29 -5 -39t-16 -10h-274q5 -68 35 -97.5t83 -29.5q30 0 62 9t59 23q10 5 14.5 2t8.5 -12l20 -49q4 -11 1.5 -17t-12.5 -12q-35 -23 -78.5 -35t-90.5 -12q-62 0 -105.5 24.5t-72.5 69.5q-23 -38 -63.5 -66t-97.5 -28q-32 0 -63 10t-55 30t-38.5 51.5
t-14.5 73.5q0 81 50.5 123t139.5 42q24 0 49 -4.5t48 -12.5v37q0 48 -23.5 74t-69.5 26q-29 0 -60.5 -9.5t-54.5 -20.5q-14 -7 -19.5 -4t-9.5 12l-17 44q-5 13 -3 19t10 11q29 17 74 31t96 14q18 0 38 -3t39 -10.5t35.5 -20.5t27.5 -34q29 33 67 51t86 18q51 0 88.5 -21
t62.5 -57t37 -85t12 -106zM312 214q-40 16 -76 16q-37 0 -60.5 -15t-23.5 -54q0 -32 21 -51.5t54 -19.5q13 0 28 5.5t28 19t21.5 37.5t8.5 60v2h-1zM611 311q-5 60 -24 93t-57 33t-62.5 -31t-31.5 -95h175z" />
    <glyph glyph-name="ccedilla" unicode="&#xe7;" horiz-adv-x="441" 
d="M249 -235q-20 0 -38 4t-30 9q-6 2 -7 6t0 9l10 42q2 8 4.5 9.5t9.5 -0.5q10 -3 22 -4.5t21 -1.5q18 0 26 9t8 23q0 31 -41 31q-18 0 -40 -3q-8 0 -9 3t0 11l11 86q-76 19 -118.5 85.5t-42.5 175.5q0 72 18 125t49 87t73 50.5t89 16.5q42 0 79.5 -14t69.5 -39q9 -8 9 -16
t-5 -16l-25 -47q-10 -20 -27 -7q-20 16 -44 25.5t-49 9.5q-50 0 -81.5 -41.5t-31.5 -126.5q0 -84 29.5 -128t90.5 -44q24 0 45 6.5t41 17.5q8 5 14 3.5t11 -12.5l19 -45q5 -11 4 -18t-9 -12q-59 -41 -138 -44l-2 -28h2q40 0 70 -22t30 -68q0 -20 -7.5 -39.5t-22 -34.5
t-36.5 -24t-51 -9z" />
    <glyph glyph-name="eth" unicode="&#xf0;" horiz-adv-x="515" 
d="M429 709q5 2 9 0.5t7 -9.5l15 -42q5 -14 -7 -17l-77 -28q48 -59 73.5 -137t25.5 -171q0 -74 -15 -132t-43.5 -99t-70.5 -62.5t-96 -21.5q-50 0 -90 18.5t-68 52.5t-42.5 82t-14.5 107q0 62 16 110t43 81t63 50t77 17q48 0 86 -22q-8 24 -22 46.5t-31 42.5l-95 -35
q-12 -4 -17 9l-15 42q-5 14 7 17l67 25q-14 13 -30.5 25.5t-32.5 21.5q-7 4 -9 10t3 14l33 51q6 9 11.5 10t13.5 -3q33 -17 64.5 -41t57.5 -50zM346 372q-20 18 -43 28.5t-46 10.5q-27 0 -45.5 -12.5t-30 -34.5t-17 -52t-5.5 -64q0 -76 24 -116.5t68 -40.5q35 0 55 22
t29.5 54.5t12 70t2.5 67.5q0 17 -1 33t-3 34z" />
    <glyph glyph-name="egrave" unicode="&#xe8;" horiz-adv-x="493" 
d="M454 269q0 -29 -5 -39t-16 -10h-274q5 -68 35 -97.5t83 -29.5q30 0 62 9t59 23q10 5 14.5 2t8.5 -12l20 -49q4 -11 1.5 -17t-12.5 -12q-35 -23 -78.5 -35t-90.5 -12q-106 0 -166 69t-60 197q0 63 15.5 115t44 89t69 57.5t90.5 20.5q51 0 88.5 -21t62.5 -57t37 -85
t12 -106zM334 311q-5 60 -24 93t-57 33t-62.5 -31t-31.5 -95h175zM253 591q-8 0 -11.5 2.5t-7.5 7.5l-104 150q-5 7 -3 11t10 4h79q8 0 11 -2.5t7 -8.5l83 -151q4 -7 2 -10t-7 -3h-59z" />
    <glyph glyph-name="eacute" unicode="&#xe9;" horiz-adv-x="493" 
d="M454 269q0 -29 -5 -39t-16 -10h-274q5 -68 35 -97.5t83 -29.5q30 0 62 9t59 23q10 5 14.5 2t8.5 -12l20 -49q4 -11 1.5 -17t-12.5 -12q-35 -23 -78.5 -35t-90.5 -12q-106 0 -166 69t-60 197q0 63 15.5 115t44 89t69 57.5t90.5 20.5q51 0 88.5 -21t62.5 -57t37 -85
t12 -106zM334 311q-5 60 -24 93t-57 33t-62.5 -31t-31.5 -95h175zM200 591q-6 0 -9 3t1 10l83 151q4 6 7 8.5t11 2.5h79q8 0 10 -4t-3 -11l-104 -150q-4 -5 -8.5 -7.5t-14.5 -2.5h-52z" />
    <glyph glyph-name="ecircumflex" unicode="&#xea;" horiz-adv-x="493" 
d="M454 269q0 -29 -5 -39t-16 -10h-274q5 -68 35 -97.5t83 -29.5q30 0 62 9t59 23q10 5 14.5 2t8.5 -12l20 -49q4 -11 1.5 -17t-12.5 -12q-35 -23 -78.5 -35t-90.5 -12q-106 0 -166 69t-60 197q0 63 15.5 115t44 89t69 57.5t90.5 20.5q51 0 88.5 -21t62.5 -57t37 -85
t12 -106zM334 311q-5 60 -24 93t-57 33t-62.5 -31t-31.5 -95h175zM391 641q4 -5 5 -10t-5 -12l-27 -31q-7 -8 -11.5 -7.5t-10.5 6.5l-91 89l-92 -89q-10 -10 -21 1l-28 31q-6 7 -5 11.5t5 9.5l81 97q7 8 12.5 11.5t16.5 3.5h62q17 0 29 -15z" />
    <glyph glyph-name="edieresis" unicode="&#xeb;" horiz-adv-x="493" 
d="M454 269q0 -29 -5 -39t-16 -10h-274q5 -68 35 -97.5t83 -29.5q30 0 62 9t59 23q10 5 14.5 2t8.5 -12l20 -49q4 -11 1.5 -17t-12.5 -12q-35 -23 -78.5 -35t-90.5 -12q-106 0 -166 69t-60 197q0 63 15.5 115t44 89t69 57.5t90.5 20.5q51 0 88.5 -21t62.5 -57t37 -85
t12 -106zM334 311q-5 60 -24 93t-57 33t-62.5 -31t-31.5 -95h175zM113 612q-15 0 -15 16v86q0 16 15 16h77q16 0 16 -16v-86q0 -16 -16 -16h-77zM310 612q-15 0 -15 16v86q0 16 15 16h77q16 0 16 -16v-86q0 -16 -16 -16h-77z" />
    <glyph glyph-name="dotlessi" unicode="&#x131;" horiz-adv-x="248" 
d="M81 0q-17 0 -17 16v496q0 16 17 16h86q17 0 17 -16v-496q0 -16 -17 -16h-86z" />
    <glyph glyph-name="igrave" unicode="&#xec;" horiz-adv-x="248" 
d="M116 591q-8 0 -11.5 2.5t-7.5 7.5l-104 150q-5 7 -3 11t10 4h79q8 0 11 -2.5t7 -8.5l83 -151q4 -7 2 -10t-7 -3h-59zM81 0q-17 0 -17 16v496q0 16 17 16h86q17 0 17 -16v-496q0 -16 -17 -16h-86z" />
    <glyph glyph-name="iacute" unicode="&#xed;" horiz-adv-x="248" 
d="M79 591q-6 0 -9 3t1 10l83 151q4 6 7 8.5t11 2.5h79q8 0 10 -4t-3 -11l-104 -150q-4 -5 -8.5 -7.5t-14.5 -2.5h-52zM81 0q-17 0 -17 16v496q0 16 17 16h86q17 0 17 -16v-496q0 -16 -17 -16h-86z" />
    <glyph glyph-name="icircumflex" unicode="&#xee;" horiz-adv-x="248" 
d="M81 0q-17 0 -17 16v496q0 16 17 16h86q17 0 17 -16v-496q0 -16 -17 -16h-86zM263 641q4 -5 5 -10t-5 -12l-27 -31q-7 -8 -11.5 -7.5t-10.5 6.5l-91 89l-92 -89q-10 -10 -21 1l-28 31q-6 7 -5 11.5t5 9.5l81 97q7 8 12.5 11.5t16.5 3.5h62q17 0 29 -15z" />
    <glyph glyph-name="idieresis" unicode="&#xef;" horiz-adv-x="248" 
d="M-15 612q-15 0 -15 16v86q0 16 15 16h77q16 0 16 -16v-86q0 -16 -16 -16h-77zM182 612q-15 0 -15 16v86q0 16 15 16h77q16 0 16 -16v-86q0 -16 -16 -16h-77zM81 0q-17 0 -17 16v496q0 16 17 16h86q17 0 17 -16v-496q0 -16 -17 -16h-86z" />
    <glyph glyph-name="lslash" unicode="&#x142;" horiz-adv-x="288" 
d="M14 242q-8 -5 -12 -1.5t-4 11.5v73q0 9 2.5 13.5t9.5 9.5l63 41v87q0 37 -1 78.5t-2 80t-2 69.5t-2 47q-1 15 16 15h84q18 0 19 -16q1 -12 2 -39t2.5 -64t2.5 -83t1 -95l77 50q8 5 12 1.5t4 -11.5v-73q0 -9 -2.5 -13.5t-9.5 -9.5l-81 -53v-224q0 -24 6 -34.5t21 -10.5h9
q7 0 9.5 -2.5t2.5 -12.5v-47q0 -8 -1.5 -13.5t-8.5 -7.5q-24 -8 -56 -8q-30 0 -50 8.5t-31.5 25.5t-16 42.5t-4.5 59.5v144z" />
    <glyph glyph-name="ntilde" unicode="&#xf1;" 
d="M465 16q0 -16 -17 -16h-86q-17 0 -17 16v270q0 45 -5 73t-15 43.5t-25 21t-34 5.5q-35 0 -57 -19q-11 -9 -16.5 -22t-7.5 -31.5t-2 -44v-58.5v-238q0 -16 -17 -16h-86q-17 0 -17 16v273q0 29 -0.5 60.5t-1.5 61.5t-1.5 56.5t-1.5 44.5q0 16 17 16h76q10 0 13.5 -3.5
t5.5 -11.5q3 -17 5 -41q20 30 55 48t74 18q81 0 121 -52.5t40 -164.5v-305zM412 677q-17 -25 -41.5 -43t-53.5 -18q-17 0 -31 6t-26 12.5t-23.5 12.5t-24.5 6t-25 -8.5t-25 -22.5q-3 -3 -6 -4t-8 4l-32 39q-7 8 1 19q17 25 41.5 43t53.5 18q17 0 31 -6t26 -12.5t23.5 -12.5
t24.5 -6t25 8.5t25 22.5q3 3 6 4t8 -4l32 -39q7 -8 -1 -19z" />
    <glyph glyph-name="ograve" unicode="&#xf2;" horiz-adv-x="506" 
d="M260 538q100 0 155.5 -67.5t55.5 -195.5q0 -139 -57 -212t-168 -73q-99 0 -155 66.5t-56 198.5q0 138 58 210.5t167 72.5zM258 434q-51 0 -75 -44.5t-24 -130.5q0 -76 20.5 -120.5t68.5 -44.5q51 0 75 44.5t24 130.5q0 78 -21 121.5t-68 43.5zM255 591q-8 0 -11.5 2.5
t-7.5 7.5l-104 150q-5 7 -3 11t10 4h79q8 0 11 -2.5t7 -8.5l83 -151q4 -7 2 -10t-7 -3h-59z" />
    <glyph glyph-name="oacute" unicode="&#xf3;" horiz-adv-x="506" 
d="M260 538q100 0 155.5 -67.5t55.5 -195.5q0 -139 -57 -212t-168 -73q-99 0 -155 66.5t-56 198.5q0 138 58 210.5t167 72.5zM258 434q-51 0 -75 -44.5t-24 -130.5q0 -76 20.5 -120.5t68.5 -44.5q51 0 75 44.5t24 130.5q0 78 -21 121.5t-68 43.5zM209 591q-6 0 -9 3t1 10
l83 151q4 6 7 8.5t11 2.5h79q8 0 10 -4t-3 -11l-104 -150q-4 -5 -8.5 -7.5t-14.5 -2.5h-52z" />
    <glyph glyph-name="ocircumflex" unicode="&#xf4;" horiz-adv-x="506" 
d="M260 538q100 0 155.5 -67.5t55.5 -195.5q0 -139 -57 -212t-168 -73q-99 0 -155 66.5t-56 198.5q0 138 58 210.5t167 72.5zM258 434q-51 0 -75 -44.5t-24 -130.5q0 -76 20.5 -120.5t68.5 -44.5q51 0 75 44.5t24 130.5q0 78 -21 121.5t-68 43.5zM397 641q4 -5 5 -10t-5 -12
l-27 -31q-7 -8 -11.5 -7.5t-10.5 6.5l-91 89l-92 -89q-10 -10 -21 1l-28 31q-6 7 -5 11.5t5 9.5l81 97q7 8 12.5 11.5t16.5 3.5h62q17 0 29 -15z" />
    <glyph glyph-name="otilde" unicode="&#xf5;" horiz-adv-x="506" 
d="M260 538q100 0 155.5 -67.5t55.5 -195.5q0 -139 -57 -212t-168 -73q-99 0 -155 66.5t-56 198.5q0 138 58 210.5t167 72.5zM258 434q-51 0 -75 -44.5t-24 -130.5q0 -76 20.5 -120.5t68.5 -44.5q51 0 75 44.5t24 130.5q0 78 -21 121.5t-68 43.5zM407 677q-17 -25 -41.5 -43
t-53.5 -18q-17 0 -31 6t-26 12.5t-23.5 12.5t-24.5 6t-25 -8.5t-25 -22.5q-3 -3 -6 -4t-8 4l-32 39q-7 8 1 19q17 25 41.5 43t53.5 18q17 0 31 -6t26 -12.5t23.5 -12.5t24.5 -6t25 8.5t25 22.5q3 3 6 4t8 -4l32 -39q7 -8 -1 -19z" />
    <glyph glyph-name="odieresis" unicode="&#xf6;" horiz-adv-x="506" 
d="M260 538q100 0 155.5 -67.5t55.5 -195.5q0 -139 -57 -212t-168 -73q-99 0 -155 66.5t-56 198.5q0 138 58 210.5t167 72.5zM258 434q-51 0 -75 -44.5t-24 -130.5q0 -76 20.5 -120.5t68.5 -44.5q51 0 75 44.5t24 130.5q0 78 -21 121.5t-68 43.5zM119 612q-15 0 -15 16v86
q0 16 15 16h77q16 0 16 -16v-86q0 -16 -16 -16h-77zM316 612q-15 0 -15 16v86q0 16 15 16h77q16 0 16 -16v-86q0 -16 -16 -16h-77z" />
    <glyph glyph-name="oslash" unicode="&#xf8;" horiz-adv-x="506" 
d="M260 538q42 0 75 -12l28 53q8 16 26 6l46 -27q11 -7 11 -12t-5 -14l-30 -57q60 -69 60 -200q0 -139 -57 -212t-168 -73q-22 0 -41.5 3.5t-37.5 9.5l-27 -53q-9 -16 -26 -6l-45 27q-11 7 -11 12t5 14l30 58q-58 67 -58 200q0 138 58 210.5t167 72.5zM347 269
q0 20 -1.5 37.5t-3.5 33.5l-127 -244q14 -7 33 -7q51 0 75 47t24 133zM258 440q-51 0 -75 -47.5t-24 -133.5q0 -19 1 -35.5t3 -31.5l125 241q-16 7 -30 7z" />
    <glyph glyph-name="oe" unicode="&#x153;" horiz-adv-x="812" 
d="M260 538q51 0 91.5 -21.5t66.5 -57.5q26 36 66.5 57.5t88.5 21.5q51 0 88.5 -21t62.5 -57t37 -85t12 -106q0 -29 -5 -39t-16 -10h-274q5 -68 35 -97.5t83 -29.5q30 0 62 9t59 23q10 5 14.5 2t8.5 -12l20 -49q4 -11 1.5 -17t-12.5 -12q-35 -23 -78.5 -35t-90.5 -12
q-54 0 -98.5 22.5t-68.5 57.5q-25 -34 -69 -57t-98 -23q-99 0 -155 66.5t-56 198.5q0 138 58 210.5t167 72.5zM258 434q-51 0 -75 -44.5t-24 -130.5q0 -76 20.5 -120.5t68.5 -44.5q51 0 75 44.5t24 130.5q0 78 -21 121.5t-68 43.5zM653 311q-5 60 -24 93t-57 33t-62.5 -31
t-31.5 -95h175z" />
    <glyph glyph-name="thorn" unicode="&#xfe;" horiz-adv-x="512" 
d="M181 486q22 25 51.5 38.5t63.5 13.5q43 0 77 -19.5t57 -54.5t35 -84t12 -107q0 -27 -4 -58.5t-13 -63t-24 -60.5t-36.5 -51.5t-50.5 -36t-67 -13.5q-25 0 -51.5 9.5t-49.5 27.5v-252q0 -17 -17 -17h-86q-17 0 -17 17v975q0 16 17 16h86q17 0 17 -16v-264zM181 131
q30 -38 76 -38q48 0 72 46.5t24 133.5t-24 124.5t-69 37.5q-20 0 -38 -7.5t-27 -21.5q-9 -12 -11.5 -29.5t-2.5 -51.5v-194z" />
    <glyph glyph-name="scaron" unicode="&#x161;" horiz-adv-x="419" 
d="M319 412q-18 13 -40.5 20.5t-45.5 7.5q-30 0 -50 -14t-20 -42q0 -26 19 -38t45 -23q25 -9 53.5 -19.5t51.5 -28t38.5 -45t15.5 -70.5q0 -38 -13.5 -69.5t-37.5 -54t-58.5 -34.5t-76.5 -12q-47 0 -89 15t-74 39q-14 11 -5 30l26 46q11 20 26 9q54 -41 110 -41q34 0 55 17
t21 44q0 15 -7.5 26t-20.5 18.5t-29.5 14t-34.5 12.5q-25 8 -48.5 20t-42 30t-29.5 44t-11 62t14 65.5t39 51t57.5 33.5t70.5 12q40 0 76.5 -12t65.5 -35q16 -13 5 -30l-27 -42q-7 -11 -13.5 -11.5t-15.5 4.5zM280 605q-12 -15 -29 -15h-62q-11 0 -16.5 3.5t-12.5 11.5
l-81 97q-4 5 -5 9.5t5 11.5l30 33q5 6 8.5 6t8.5 -5l94 -91l93 91q5 5 8.5 5t8.5 -6l30 -33q6 -7 5 -12t-5 -10z" />
    <glyph glyph-name="germandbls" unicode="&#xdf;" horiz-adv-x="588" 
d="M179 16q0 -16 -17 -16h-86q-17 0 -17 16v512q0 66 16 112.5t45 76.5t71 44t93 14q41 0 75.5 -11t60 -31t40 -49t14.5 -66q0 -36 -16.5 -65t-36 -53.5t-36 -45.5t-16.5 -42q0 -30 19 -46t54 -35q21 -12 42 -25.5t38 -32.5t27.5 -45.5t10.5 -62.5q0 -41 -13.5 -73.5
t-37.5 -55t-56.5 -34.5t-69.5 -12q-41 0 -81 13.5t-75 40.5q-8 5 -7 12t11 28l8 16q11 23 17.5 27.5t13.5 -0.5q53 -39 106 -39q29 0 48 16t19 54q0 19 -7 32.5t-19.5 24t-29 19.5t-35.5 18q-50 25 -73.5 56.5t-23.5 86.5q0 42 15 68.5t33.5 48.5t33.5 44.5t15 57.5
q0 32 -21.5 52t-52.5 20q-51 0 -75 -35.5t-24 -116.5v-518z" />
    <glyph glyph-name="ugrave" unicode="&#xf9;" 
d="M461 16q1 -16 -18 -16h-77q-18 0 -19 16l-4 38q-21 -29 -51.5 -46.5t-68.5 -17.5q-85 0 -128 54q-22 28 -31 69t-9 95v304q0 16 17 16h86q17 0 17 -16v-282q0 -34 3 -59t13 -42t26 -24.5t34 -7.5q37 0 60 21q20 18 22 54t2 98v242q0 16 18 16h85q17 0 17 -16v-271
q0 -30 0.5 -62t1.5 -62t2 -56.5t2 -44.5zM261 591q-8 0 -11.5 2.5t-7.5 7.5l-104 150q-5 7 -3 11t10 4h79q8 0 11 -2.5t7 -8.5l83 -151q4 -7 2 -10t-7 -3h-59z" />
    <glyph glyph-name="uacute" unicode="&#xfa;" 
d="M461 16q1 -16 -18 -16h-77q-18 0 -19 16l-4 38q-21 -29 -51.5 -46.5t-68.5 -17.5q-85 0 -128 54q-22 28 -31 69t-9 95v304q0 16 17 16h86q17 0 17 -16v-282q0 -34 3 -59t13 -42t26 -24.5t34 -7.5q37 0 60 21q20 18 22 54t2 98v242q0 16 18 16h85q17 0 17 -16v-271
q0 -30 0.5 -62t1.5 -62t2 -56.5t2 -44.5zM205 591q-6 0 -9 3t1 10l83 151q4 6 7 8.5t11 2.5h79q8 0 10 -4t-3 -11l-104 -150q-4 -5 -8.5 -7.5t-14.5 -2.5h-52z" />
    <glyph glyph-name="ucircumflex" unicode="&#xfb;" 
d="M461 16q1 -16 -18 -16h-77q-18 0 -19 16l-4 38q-21 -29 -51.5 -46.5t-68.5 -17.5q-85 0 -128 54q-22 28 -31 69t-9 95v304q0 16 17 16h86q17 0 17 -16v-282q0 -34 3 -59t13 -42t26 -24.5t34 -7.5q37 0 60 21q20 18 22 54t2 98v242q0 16 18 16h85q17 0 17 -16v-271
q0 -30 0.5 -62t1.5 -62t2 -56.5t2 -44.5zM399 641q4 -5 5 -10t-5 -12l-27 -31q-7 -8 -11.5 -7.5t-10.5 6.5l-91 89l-92 -89q-10 -10 -21 1l-28 31q-6 7 -5 11.5t5 9.5l81 97q7 8 12.5 11.5t16.5 3.5h62q17 0 29 -15z" />
    <glyph glyph-name="udieresis" unicode="&#xfc;" 
d="M461 16q1 -16 -18 -16h-77q-18 0 -19 16l-4 38q-21 -29 -51.5 -46.5t-68.5 -17.5q-85 0 -128 54q-22 28 -31 69t-9 95v304q0 16 17 16h86q17 0 17 -16v-282q0 -34 3 -59t13 -42t26 -24.5t34 -7.5q37 0 60 21q20 18 22 54t2 98v242q0 16 18 16h85q17 0 17 -16v-271
q0 -30 0.5 -62t1.5 -62t2 -56.5t2 -44.5zM121 612q-15 0 -15 16v86q0 16 15 16h77q16 0 16 -16v-86q0 -16 -16 -16h-77zM318 612q-15 0 -15 16v86q0 16 15 16h77q16 0 16 -16v-86q0 -16 -16 -16h-77z" />
    <glyph glyph-name="yacute" unicode="&#xfd;" horiz-adv-x="524" 
d="M462 1q0 -130 -48 -188q-27 -32 -71 -48.5t-101 -16.5q-38 0 -72 6.5t-60 15.5q-8 3 -11.5 8t-0.5 16l9 58q2 10 6 13.5t14 1.5q24 -6 53 -11t53 -5q37 0 60.5 10t34.5 25q12 16 18 40t6 66v60q-23 -26 -54 -44t-73 -18q-46 0 -78 14t-52 39q-23 28 -31.5 69.5t-8.5 95.5
v304q0 16 15 16h90q15 0 15 -16v-264q0 -55 2 -81t13 -41q20 -27 61 -27q21 0 36 5t28 16q13 10 17.5 23.5t6.5 31.5q2 20 2.5 45.5t0.5 66.5v225q0 16 16 16h89q15 0 15 -16v-511zM210 591q-6 0 -9 3t1 10l83 151q4 6 7 8.5t11 2.5h79q8 0 10 -4t-3 -11l-104 -150
q-4 -5 -8.5 -7.5t-14.5 -2.5h-52z" />
    <glyph glyph-name="ydieresis" unicode="&#xff;" horiz-adv-x="524" 
d="M462 1q0 -130 -48 -188q-27 -32 -71 -48.5t-101 -16.5q-38 0 -72 6.5t-60 15.5q-8 3 -11.5 8t-0.5 16l9 58q2 10 6 13.5t14 1.5q24 -6 53 -11t53 -5q37 0 60.5 10t34.5 25q12 16 18 40t6 66v60q-23 -26 -54 -44t-73 -18q-46 0 -78 14t-52 39q-23 28 -31.5 69.5t-8.5 95.5
v304q0 16 15 16h90q15 0 15 -16v-264q0 -55 2 -81t13 -41q20 -27 61 -27q21 0 36 5t28 16q13 10 17.5 23.5t6.5 31.5q2 20 2.5 45.5t0.5 66.5v225q0 16 16 16h89q15 0 15 -16v-511zM121 612q-15 0 -15 16v86q0 16 15 16h77q16 0 16 -16v-86q0 -16 -16 -16h-77zM318 612
q-15 0 -15 16v86q0 16 15 16h77q16 0 16 -16v-86q0 -16 -16 -16h-77z" />
    <glyph glyph-name="zcaron" unicode="&#x17e;" horiz-adv-x="413" 
d="M243 433h-193q-16 0 -16 18v60q0 17 16 17h317q17 0 17 -17v-28q0 -25 -14 -47l-202 -341h202q17 0 17 -18v-60q0 -17 -17 -17h-326q-16 0 -16 17v34q0 13 3.5 23.5t11.5 23.5zM279 605q-12 -15 -29 -15h-62q-11 0 -16.5 3.5t-12.5 11.5l-81 97q-4 5 -5 9.5t5 11.5l30 33
q5 6 8.5 6t8.5 -5l94 -91l93 91q5 5 8.5 5t8.5 -6l30 -33q6 -7 5 -12t-5 -10z" />
    <glyph glyph-name="afii10017" unicode="&#x410;" horiz-adv-x="592" 
d="M293 564q-18 -71 -32.5 -126.5t-28.5 -104.5l-17 -59h154l-17 61q-5 17 -13 46t-16.5 62t-16.5 65.5t-13 55.5zM576 20q3 -9 -1 -14.5t-13 -5.5h-90q-20 0 -27 19l-47 156h-213l-45 -156q-5 -19 -27 -19h-83q-21 0 -14 22l212 680q3 10 9 14t19 4h77q13 0 19 -4t9 -14z
" />
    <glyph glyph-name="afii10018" unicode="&#x411;" horiz-adv-x="522" 
d="M259 430q51 0 94.5 -10.5t75.5 -34.5t50 -64.5t18 -100.5t-17.5 -101.5t-50 -68t-78 -38.5t-100.5 -12h-166q-20 0 -20 19v682q0 19 20 19h348q20 0 20 -19v-65q0 -19 -20 -19h-241v-192q9 1 15.5 2t14 1.5t16 1t21.5 0.5zM243 99q32 0 56.5 6t41 19.5t24.5 36t8 56.5
q0 63 -33.5 88.5t-90.5 25.5h-18.5t-13 -0.5t-11.5 -1.5t-14 -2v-228h51z" />
    <glyph glyph-name="afii10019" unicode="&#x412;" horiz-adv-x="535" 
d="M85 0q-20 0 -20 19v682q0 19 20 19h139q54 0 98 -10.5t75 -33t48 -57.5t17 -85q0 -48 -22 -88t-62 -63q53 -22 85.5 -63t32.5 -108q0 -55 -18.5 -95t-52 -66t-80.5 -38.5t-104 -12.5h-156zM192 101h48q64 0 95 26.5t31 83.5q0 60 -29.5 85.5t-93.5 25.5h-51v-221z
M192 419h37q57 0 81.5 27.5t24.5 75.5t-23.5 72t-82.5 24h-37v-199z" />
    <glyph glyph-name="afii10020" unicode="&#x413;" horiz-adv-x="467" 
d="M192 19q0 -19 -20 -19h-87q-20 0 -20 19v682q0 19 20 19h348q20 0 20 -19v-65q0 -19 -20 -19h-241v-598z" />
    <glyph glyph-name="afii10021" unicode="&#x414;" horiz-adv-x="676" 
d="M629 101q17 0 17 -19v-256q0 -19 -17 -19h-80q-18 0 -18 19v174h-404v-174q0 -19 -18 -19h-80q-17 0 -17 19v256q0 19 17 19h40q36 52 59.5 107.5t37.5 116t19.5 126t5.5 136.5v114q0 19 18 19h358q18 0 18 -19v-600h44zM316 618v-38q0 -128 -24 -250.5t-82 -228.5h249
v517h-143z" />
    <glyph glyph-name="afii10022" unicode="&#x415;" horiz-adv-x="497" 
d="M440 103q20 0 20 -19v-65q0 -19 -21 -19h-354q-20 0 -20 19v682q0 19 20 19h351q20 0 20 -19v-65q0 -19 -20 -19h-244v-202h201q20 0 20 -18v-65q0 -19 -20 -19h-201v-210h248z" />
    <glyph glyph-name="afii10024" unicode="&#x416;" horiz-adv-x="865" 
d="M496 19q0 -19 -20 -19h-87q-20 0 -20 19v292h-23q-11 0 -16 -3.5t-11 -14.5l-155 -273q-7 -13 -13.5 -16.5t-18.5 -3.5h-94q-8 0 -11 5.5t2 16.5l202 347l-200 327q-6 9 -3.5 16.5t13.5 7.5h91q11 0 16 -3t12 -15l157 -269q9 -16 27 -16h25v284q0 19 20 19h87
q20 0 20 -19v-284h22q18 0 27 16l155 269q7 12 12 15t16 3h91q11 0 13.5 -7.5t-3.5 -16.5l-195 -327l202 -347q5 -11 2 -16.5t-11 -5.5h-94q-12 0 -18.5 3.5t-13.5 16.5l-156 273q-6 11 -11 14.5t-16 3.5h-22v-292z" />
    <glyph glyph-name="afii10025" unicode="&#x417;" horiz-adv-x="503" 
d="M339 383q26 -7 50 -22t42 -36.5t29 -50.5t11 -65q0 -56 -21.5 -97.5t-57.5 -68.5t-83 -40t-98 -13q-20 0 -45 2.5t-49.5 7t-46.5 11.5t-37 16q-15 8 -9 27l18 53q3 9 7.5 12.5t15.5 -1.5q31 -14 70 -21.5t72 -7.5q65 0 100 29t35 89q0 35 -12 58.5t-33 37.5t-49 19.5
t-60 5.5h-49q-18 0 -18 19v58q0 19 18 19h40q32 0 58.5 5t45.5 17t29.5 33t10.5 53q0 52 -28 75.5t-82 23.5q-29 0 -65 -7t-68 -20q-11 -5 -15 -1.5t-7 12.5l-17 50q-5 13 -1.5 19t10.5 9q12 6 31 12.5t42 12t49.5 9t54.5 3.5q100 0 159 -49t59 -137q0 -56 -27.5 -98.5
t-78.5 -62.5z" />
    <glyph glyph-name="afii10026" unicode="&#x418;" horiz-adv-x="649" 
d="M567 720q17 0 17 -19v-682q0 -19 -17 -19h-86q-17 0 -17 19v451l-279 -377v-74q0 -19 -17 -19h-86q-17 0 -17 19v682q0 19 17 19h86q17 0 17 -19v-449l279 377v72q0 19 17 19h86z" />
    <glyph glyph-name="afii10027" unicode="&#x419;" horiz-adv-x="649" 
d="M567 720q17 0 17 -19v-682q0 -19 -17 -19h-86q-17 0 -17 19v451l-279 -377v-74q0 -19 -17 -19h-86q-17 0 -17 19v682q0 19 17 19h86q17 0 17 -19v-449l279 377v72q0 19 17 19h86zM329 794q-60 0 -96 34.5t-39 100.5q0 8 3 10.5t10 2.5h52q10 0 12 -12q8 -59 58 -59t58 59
q1 12 12 12h52q7 0 10 -2.5t3 -10.5q-3 -66 -39 -100.5t-96 -34.5z" />
    <glyph glyph-name="afii10028" unicode="&#x41a;" horiz-adv-x="541" 
d="M192 417h25q13 0 19.5 4t14.5 18l152 263q7 12 12 15t16 3h91q11 0 13.5 -7.5t-3.5 -16.5l-192 -324l185 -350q5 -11 2 -16.5t-11 -5.5h-92q-12 0 -18.5 3.5t-13.5 16.5l-143 273q-6 11 -13 14.5t-18 3.5h-26v-292q0 -19 -20 -19h-87q-20 0 -20 19v682q0 19 20 19h87
q20 0 20 -19v-284z" />
    <glyph glyph-name="afii10029" unicode="&#x41b;" horiz-adv-x="626" 
d="M543 720q18 0 18 -19v-682q0 -19 -18 -19h-91q-18 0 -18 19v599h-174v-62q0 -108 -6 -198t-25.5 -161t-56 -121.5t-97.5 -78.5q-9 -4 -14.5 -1.5t-11.5 10.5l-43 59q-11 15 8 26q46 26 70.5 69t36 105.5t13 145t1.5 187.5v103q0 19 18 19h390z" />
    <glyph glyph-name="afii10030" unicode="&#x41c;" horiz-adv-x="730" 
d="M669 23q1 -23 -23 -23h-76q-23 0 -23 22l-2 217q0 36 -0.5 69.5t-0.5 66.5t0.5 67t1.5 72q-16 -54 -36 -121t-42 -133l-40 -121q-5 -12 -12 -16t-24 -4h-50q-17 0 -24 4t-12 16l-42 119q-22 62 -41 125.5t-38 130.5q0 -26 0.5 -58t0.5 -66.5v-70t-1 -67.5l-6 -230
q0 -22 -21 -22h-74q-14 0 -19 5t-4 18l22 675q1 22 24 22h84q14 0 21 -4t11 -15l80 -235q10 -28 18.5 -53t16.5 -49.5t15.5 -49.5t16.5 -52q16 55 31.5 103t32.5 99l81 237q4 11 11.5 15t19.5 4h79q24 0 24 -22z" />
    <glyph glyph-name="afii10031" unicode="&#x41d;" horiz-adv-x="607" 
d="M415 313h-223v-294q0 -19 -20 -19h-87q-20 0 -20 19v682q0 19 20 19h87q20 0 20 -19v-286h223v286q0 19 20 19h87q20 0 20 -19v-682q0 -19 -20 -19h-87q-20 0 -20 19v294z" />
    <glyph glyph-name="afii10032" unicode="&#x41e;" horiz-adv-x="603" 
d="M309 624q-72 0 -109 -68.5t-37 -202.5q0 -135 33 -196t98 -61q74 0 110 68.5t36 202.5q0 136 -34 196.5t-97 60.5zM311 730q57 0 104.5 -20.5t82 -64t53.5 -111.5t19 -164q0 -90 -18 -160.5t-53.5 -119t-87 -74.5t-118.5 -26q-57 0 -105 20.5t-82.5 64t-53.5 112
t-19 163.5q0 89 18 159.5t53.5 119.5t87 75t119.5 26z" />
    <glyph glyph-name="afii10033" unicode="&#x41f;" horiz-adv-x="601" 
d="M518 720q18 0 18 -19v-682q0 -19 -18 -19h-91q-18 0 -18 19v599h-217v-599q0 -19 -18 -19h-91q-18 0 -18 19v682q0 19 18 19h435z" />
    <glyph glyph-name="afii10034" unicode="&#x420;" horiz-adv-x="502" 
d="M192 19q0 -19 -20 -19h-87q-20 0 -20 19v682q0 19 20 19h129q60 0 108.5 -10t82.5 -35.5t52.5 -69t18.5 -109.5q0 -51 -13.5 -94.5t-42 -75.5t-72.5 -50t-104 -18q-12 0 -25 0.5t-27 1.5v-241zM192 364q12 -1 25 -1.5t24 -0.5q31 0 51.5 10t32.5 28t16.5 42.5t4.5 52.5
q0 36 -8.5 59.5t-24.5 37t-39.5 18.5t-54.5 5h-27v-251z" />
    <glyph glyph-name="afii10035" unicode="&#x421;" horiz-adv-x="519" 
d="M479 42q-37 -25 -82 -38.5t-93 -13.5q-61 0 -111 22.5t-85.5 67.5t-55 113t-19.5 159q0 92 21 162.5t58 118.5t88.5 72.5t111.5 24.5q51 0 93 -15t77 -42q16 -12 8 -29l-28 -48q-5 -9 -13 -12.5t-16 2.5q-24 17 -53.5 27t-58.5 10q-75 0 -116.5 -66.5t-41.5 -199.5
q0 -60 8.5 -108t27 -81.5t48.5 -51.5t73 -18q29 0 60 8.5t57 23.5q11 6 16 4.5t9 -10.5l25 -53q9 -18 -8 -29z" />
    <glyph glyph-name="afii10036" unicode="&#x422;" horiz-adv-x="475" 
d="M30 617q-20 0 -20 19v65q0 19 20 19h415q20 0 20 -19v-65q0 -19 -20 -19h-144v-598q0 -19 -20 -19h-87q-20 0 -20 19v598h-144z" />
    <glyph glyph-name="afii10037" unicode="&#x423;" horiz-adv-x="530" 
d="M346 242q-25 -69 -46.5 -117t-46.5 -78t-57 -43.5t-79 -13.5q-23 0 -49 5t-40 12q-17 8 -12 25l16 52q3 10 8.5 13.5t16.5 0.5q12 -4 26 -7t29 -3q40 0 63.5 20t39.5 70l-197 519q-8 23 15 23h97q9 0 14 -3t8 -13l47 -147q21 -66 38.5 -124t34.5 -120q16 61 31.5 118
t34.5 123l43 150q5 16 22 16h93q24 0 14 -23z" />
    <glyph glyph-name="afii10038" unicode="&#x424;" horiz-adv-x="731" 
d="M426 150q72 11 109 66t37 149q0 99 -37.5 148t-108.5 59v-422zM305 570q-72 -11 -109 -65t-37 -148q0 -190 146 -209v422zM305 55q-60 5 -111 26.5t-87.5 59t-57 90.5t-20.5 121t20 122.5t56 94.5t87 64t113 31v87q0 19 18 19h86q17 0 17 -19v-86q55 -5 105 -25t88 -56.5
t60.5 -90t22.5 -125.5q0 -67 -20.5 -121t-57 -94t-87 -64.5t-111.5 -31.5v-88q0 -19 -17 -19h-86q-18 0 -18 19v86z" />
    <glyph glyph-name="afii10039" unicode="&#x425;" horiz-adv-x="536" 
d="M521 22q5 -9 2 -15.5t-13 -6.5h-87q-14 0 -21.5 3.5t-12.5 14.5l-58 116q-17 34 -31.5 66t-30.5 69l-69 -139l-56 -112q-5 -10 -12.5 -14t-21.5 -4h-85q-11 0 -13.5 6t2.5 16q22 42 46.5 88.5t49.5 93t49 91t46 82.5q-11 23 -28 51.5t-31 55.5l-116 215q-5 8 -1.5 14.5
t13.5 6.5h88q13 0 20.5 -3t12.5 -14l45 -90q20 -41 35.5 -73t30.5 -67q15 32 29.5 63.5t31.5 63.5l52 103q5 10 12 13.5t21 3.5h84q10 0 12.5 -6t-2.5 -14l-113 -206l-66 -118q13 -25 26.5 -51.5t27.5 -52.5z" />
    <glyph glyph-name="afii10040" unicode="&#x426;" horiz-adv-x="647" 
d="M599 101q18 0 18 -19v-256q0 -19 -18 -19h-79q-18 0 -18 19v174h-419q-18 0 -18 19v682q0 19 18 19h92q17 0 17 -19v-600h237v600q0 19 18 19h92q17 0 17 -19v-600h43z" />
    <glyph glyph-name="afii10041" unicode="&#x427;" horiz-adv-x="584" 
d="M501 720q18 0 18 -19v-682q0 -19 -18 -19h-92q-17 0 -17 19v229q-25 -5 -55 -8.5t-62 -3.5q-55 0 -98 13t-72.5 41.5t-45 75t-15.5 114.5v221q0 19 18 19h92q17 0 17 -19v-216q0 -42 6.5 -70.5t20 -46t35.5 -24.5t53 -7t58 3t48 7v354q0 19 17 19h92z" />
    <glyph glyph-name="afii10042" unicode="&#x428;" horiz-adv-x="881" 
d="M798 720q18 0 18 -19v-682q0 -19 -18 -19h-715q-18 0 -18 19v682q0 19 18 19h91q18 0 18 -19v-600h185v600q0 19 18 19h91q18 0 18 -19v-600h185v600q0 19 18 19h91z" />
    <glyph glyph-name="afii10043" unicode="&#x429;" horiz-adv-x="907" 
d="M859 101q18 0 18 -19v-256q0 -19 -18 -19h-79q-18 0 -18 19v174h-679q-18 0 -18 19v682q0 19 18 19h91q18 0 18 -19v-600h185v600q0 19 18 19h91q18 0 18 -19v-600h185v600q0 19 18 19h92q17 0 17 -19v-600h43z" />
    <glyph glyph-name="afii10044" unicode="&#x42a;" horiz-adv-x="633" 
d="M346 99q67 0 99.5 27.5t32.5 94.5q0 59 -26 88t-89 29q-20 0 -41.5 -2t-37.5 -4v-233h62zM267 720q17 0 17 -19v-270q19 3 42 5t42 2q51 0 94.5 -11.5t76 -37t51 -65.5t18.5 -97q0 -62 -18.5 -105.5t-54 -70.5t-86.5 -39t-115 -12h-159q-18 0 -18 19v602h-115
q-18 0 -18 19v61q0 19 18 19h225z" />
    <glyph glyph-name="afii10045" unicode="&#x42b;" horiz-adv-x="802" 
d="M254 99q67 0 99.5 27.5t32.5 94.5q0 59 -26 88t-89 29q-20 0 -41.5 -2t-37.5 -4v-233h62zM175 720q17 0 17 -19v-270q19 3 42 5t42 2q51 0 94.5 -11.5t76 -37t51 -65.5t18.5 -97q0 -62 -18.5 -105.5t-54 -70.5t-86.5 -39t-115 -12h-159q-18 0 -18 19v682q0 19 17 19h93z
M734 19q0 -19 -20 -19h-87q-20 0 -20 19v682q0 19 20 19h87q20 0 20 -19v-682z" />
    <glyph glyph-name="afii10046" unicode="&#x42c;" horiz-adv-x="541" 
d="M254 99q67 0 99.5 27.5t32.5 94.5q0 59 -26 88t-89 29q-20 0 -41.5 -2t-37.5 -4v-233h62zM175 720q17 0 17 -19v-270q19 3 42 5t42 2q51 0 94.5 -11.5t76 -37t51 -65.5t18.5 -97q0 -62 -18.5 -105.5t-54 -70.5t-86.5 -39t-115 -12h-159q-18 0 -18 19v682q0 19 17 19h93z
" />
    <glyph glyph-name="afii10047" unicode="&#x42d;" horiz-adv-x="540" 
d="M373 414q-8 103 -46 158.5t-108 55.5q-40 0 -72.5 -11t-61.5 -26q-11 -6 -16 -4t-9 11l-24 55q-4 8 -3 14.5t9 11.5q41 24 90.5 37.5t96.5 13.5q63 0 114.5 -22t87.5 -67.5t56 -116t20 -167.5q0 -85 -19 -153t-56.5 -115.5t-92 -73t-125.5 -25.5q-43 0 -91 10.5t-87 37.5
q-9 6 -10 12.5t3 14.5l21 51q4 9 9 11.5t15 -2.5q32 -17 67.5 -24.5t67.5 -7.5q78 0 118 55.5t47 164.5h-251q-18 0 -18 19v63q0 19 18 19h250z" />
    <glyph glyph-name="afii10048" unicode="&#x42e;" horiz-adv-x="833" 
d="M169 720q18 0 18 -19v-289h91q6 73 27.5 132t56.5 100t83.5 63.5t108.5 22.5q56 0 103.5 -21t82 -65t54 -112t19.5 -162q0 -87 -19 -157t-54.5 -119.5t-87 -76.5t-116.5 -27q-57 0 -103 19t-79.5 59t-53.5 101.5t-23 145.5h-90v-296q0 -19 -18 -19h-91q-18 0 -18 19v682
q0 19 18 19h91zM549 624q-75 0 -109.5 -69.5t-34.5 -200.5q0 -133 32 -196t101 -63q73 0 109.5 70t36.5 201q0 134 -34 196t-101 62z" />
    <glyph glyph-name="afii10049" unicode="&#x42f;" horiz-adv-x="538" 
d="M473 19q0 -19 -18 -19h-92q-17 0 -17 19v260h-40q-14 0 -20 -5t-12 -19l-116 -240q-8 -15 -21 -15h-95q-11 0 -14 6.5t2 17.5l135 275q-60 29 -85.5 83.5t-25.5 120.5q0 115 65.5 166t193.5 51h142q18 0 18 -19v-682zM299 619q-56 0 -86 -27.5t-30 -87.5q0 -65 27 -94.5
t89 -29.5h47v239h-47z" />
    <glyph glyph-name="afii10052" unicode="&#x403;" horiz-adv-x="467" 
d="M192 19q0 -19 -20 -19h-87q-20 0 -20 19v682q0 19 20 19h348q20 0 20 -19v-65q0 -19 -20 -19h-241v-598zM215 783q-6 0 -9 3t1 10l83 151q4 6 7 8.5t11 2.5h79q8 0 10 -4t-3 -11l-104 -150q-4 -5 -8.5 -7.5t-14.5 -2.5h-52z" />
    <glyph glyph-name="afii10050" unicode="&#x490;" horiz-adv-x="473" 
d="M448 886q15 0 15 -16v-233q0 -16 -15 -16h-256v-602q0 -19 -18 -19h-91q-18 0 -18 19v682q0 19 18 19h271v150q0 16 15 16h79z" />
    <glyph glyph-name="afii10051" unicode="&#x402;" horiz-adv-x="631" 
d="M361 443q50 0 94.5 -12t78 -38t53 -66t19.5 -97q0 -116 -63.5 -173t-172.5 -57h-16q-17 0 -17 19v60q0 19 17 19h12q24 0 44.5 6.5t35 21t22.5 38.5t8 59q0 62 -33.5 90.5t-94.5 28.5q-43 0 -80 -8v-315q0 -19 -18 -19h-91q-18 0 -18 19v598h-113q-18 0 -18 19v65
q0 19 18 19h431q18 0 18 -19v-65q0 -19 -18 -19h-191v-182q23 3 46.5 5.5t46.5 2.5z" />
    <glyph glyph-name="afii10053" unicode="&#x404;" horiz-adv-x="539" 
d="M166 314q6 -107 48.5 -164t124.5 -57q26 0 59 8t68 26q16 9 23 -10l20 -53q3 -9 1.5 -15t-10.5 -11q-42 -26 -87 -37t-92 -11q-67 0 -120.5 25.5t-90.5 73t-57 115.5t-20 152q0 88 22 157.5t62 117.5t95 73.5t120 25.5q46 0 91 -13t82 -42q7 -5 8.5 -11t-4.5 -16l-27 -52
q-8 -18 -24 -7q-32 22 -61 30.5t-57 8.5q-76 0 -121 -56t-52 -157h249q18 0 18 -19v-63q0 -19 -18 -19h-250z" />
    <glyph glyph-name="afii10054" unicode="&#x405;" horiz-adv-x="484" 
d="M41 54q-15 12 -5 31l27 57q10 19 29 6q28 -21 64 -36.5t70 -15.5q46 0 70.5 26.5t24.5 71.5q0 25 -8 43t-22.5 32.5t-33.5 26.5t-40 24q-39 22 -69 44t-49.5 47t-29.5 55t-10 70q0 44 15 79.5t42 61t64 39.5t81 14t85 -13.5t73 -37.5q16 -11 6 -31l-28 -50
q-10 -20 -29 -7q-22 15 -45.5 25t-52.5 10q-42 0 -64.5 -24t-22.5 -62q0 -21 8.5 -37.5t23.5 -31t34 -27t40 -25.5q27 -17 54.5 -36t50 -44t36.5 -58t14 -77q0 -47 -13.5 -86.5t-40.5 -68t-67.5 -44t-93.5 -15.5q-57 0 -106.5 19t-81.5 45z" />
    <glyph glyph-name="uni0400" unicode="&#x400;" horiz-adv-x="497" 
d="M440 103q20 0 20 -19v-65q0 -19 -21 -19h-354q-20 0 -20 19v682q0 19 20 19h351q20 0 20 -19v-65q0 -19 -20 -19h-244v-202h201q20 0 20 -18v-65q0 -19 -20 -19h-201v-210h248zM277 780q-8 0 -11.5 2.5t-7.5 7.5l-104 150q-5 7 -3 11t10 4h79q8 0 11 -2.5t7 -8.5l83 -151
q4 -7 2 -10t-7 -3h-59z" />
    <glyph glyph-name="afii10023" unicode="&#x401;" horiz-adv-x="497" 
d="M440 103q20 0 20 -19v-65q0 -19 -21 -19h-354q-20 0 -20 19v682q0 19 20 19h351q20 0 20 -19v-65q0 -19 -20 -19h-244v-202h201q20 0 20 -18v-65q0 -19 -20 -19h-201v-210h248zM131 791q-15 0 -15 16v86q0 16 15 16h77q16 0 16 -16v-86q0 -16 -16 -16h-77zM328 791
q-15 0 -15 16v86q0 16 15 16h77q16 0 16 -16v-86q0 -16 -16 -16h-77z" />
    <glyph glyph-name="afii10055" unicode="&#x406;" horiz-adv-x="263" 
d="M195 19q0 -19 -20 -19h-87q-20 0 -20 19v682q0 19 20 19h87q20 0 20 -19v-682z" />
    <glyph glyph-name="afii10056" unicode="&#x407;" horiz-adv-x="263" 
d="M195 19q0 -19 -20 -19h-87q-20 0 -20 19v682q0 19 20 19h87q20 0 20 -19v-682zM-8 791q-15 0 -15 16v86q0 16 15 16h77q16 0 16 -16v-86q0 -16 -16 -16h-77zM189 791q-15 0 -15 16v86q0 16 15 16h77q16 0 16 -16v-86q0 -16 -16 -16h-77z" />
    <glyph glyph-name="afii10057" unicode="&#x408;" horiz-adv-x="415" 
d="M69 117q17 -8 36 -14.5t39 -6.5q28 0 44 10.5t24.5 30t10.5 47t2 61.5v372h-136q-20 0 -20 19v65q0 19 20 19h243q20 0 20 -19v-466q0 -67 -12.5 -113.5t-36.5 -76t-59.5 -42.5t-82.5 -13q-36 0 -68 9t-58 23q-8 4 -10.5 10.5t1.5 18.5l18 55q7 19 25 11z" />
    <glyph glyph-name="uni040D" unicode="&#x40d;" horiz-adv-x="649" 
d="M567 720q17 0 17 -19v-682q0 -19 -17 -19h-86q-17 0 -17 19v451l-279 -377v-74q0 -19 -17 -19h-86q-17 0 -17 19v682q0 19 17 19h86q17 0 17 -19v-449l279 377v72q0 19 17 19h86zM319 783q-8 0 -11.5 2.5t-7.5 7.5l-104 150q-5 7 -3 11t10 4h79q8 0 11 -2.5t7 -8.5
l83 -151q4 -7 2 -10t-7 -3h-59z" />
    <glyph glyph-name="afii10061" unicode="&#x40c;" horiz-adv-x="541" 
d="M246 783q-6 0 -9 3t1 10l83 151q4 6 7 8.5t11 2.5h79q8 0 10 -4t-3 -11l-104 -150q-4 -5 -8.5 -7.5t-14.5 -2.5h-52zM192 417h25q13 0 19.5 4t14.5 18l152 263q7 12 12 15t16 3h91q11 0 13.5 -7.5t-3.5 -16.5l-192 -324l185 -350q5 -11 2 -16.5t-11 -5.5h-92
q-12 0 -18.5 3.5t-13.5 16.5l-143 273q-6 11 -13 14.5t-18 3.5h-26v-292q0 -19 -20 -19h-87q-20 0 -20 19v682q0 19 20 19h87q20 0 20 -19v-284z" />
    <glyph glyph-name="afii10058" unicode="&#x409;" horiz-adv-x="936" 
d="M609 99q67 0 99.5 27.5t32.5 94.5q0 59 -26 88t-89 29q-20 0 -41.5 -2t-37.5 -4v-233h62zM260 556q0 -108 -6 -198t-25.5 -161t-56 -121.5t-97.5 -78.5q-9 -4 -14.5 -1.5t-11.5 10.5l-43 59q-11 15 8 26q46 26 70.5 69t36 105.5t13 145t1.5 187.5v103q0 19 18 19h377
q17 0 17 -19v-270q19 3 42 5t42 2q51 0 94.5 -11.5t76 -37t51 -65.5t18.5 -97q0 -62 -18.5 -105.5t-54 -70.5t-86.5 -39t-115 -12h-159q-18 0 -18 19v602h-160v-65z" />
    <glyph glyph-name="afii10059" unicode="&#x40a;" horiz-adv-x="891" 
d="M604 99q67 0 99.5 26.5t32.5 93.5q0 59 -26 86.5t-89 27.5q-20 0 -41.5 -2t-37.5 -4v-228h62zM192 313v-294q0 -19 -20 -19h-87q-20 0 -20 19v682q0 19 20 19h87q20 0 20 -19v-286h223v286q0 19 20 19h90q17 0 17 -19v-275q19 3 42 5t42 2q51 0 94.5 -11t76 -36t51 -64.5
t18.5 -96.5q0 -62 -18.5 -105t-54 -69.5t-86.5 -38.5t-115 -12h-159q-18 0 -18 19v294h-223z" />
    <glyph glyph-name="afii10060" unicode="&#x40b;" horiz-adv-x="655" 
d="M375 462q55 0 96 -11.5t68.5 -39t41 -73.5t13.5 -115v-207q0 -16 -15 -16h-97q-15 0 -15 16v211q0 38 -5.5 63.5t-18.5 41.5t-34.5 22.5t-52.5 6.5q-46 0 -92 -8v-334q0 -19 -17 -19h-91q-18 0 -18 19v598h-110q-18 0 -18 19v65q0 19 18 19h425q18 0 18 -19v-65
q0 -19 -18 -19h-189v-166q25 5 53 8t58 3z" />
    <glyph glyph-name="afii10062" unicode="&#x40e;" horiz-adv-x="530" 
d="M346 242q-25 -69 -46.5 -117t-46.5 -78t-57 -43.5t-79 -13.5q-23 0 -49 5t-40 12q-17 8 -12 25l16 52q3 10 8.5 13.5t16.5 0.5q12 -4 26 -7t29 -3q40 0 63.5 20t39.5 70l-197 519q-8 23 15 23h97q9 0 14 -3t8 -13l47 -147q21 -66 38.5 -124t34.5 -120q16 61 31.5 118
t34.5 123l43 150q5 16 22 16h93q24 0 14 -23zM268 794q-60 0 -96 34.5t-39 100.5q0 8 3 10.5t10 2.5h52q10 0 12 -12q8 -59 58 -59t58 59q1 12 12 12h52q7 0 10 -2.5t3 -10.5q-3 -66 -39 -100.5t-96 -34.5z" />
    <glyph glyph-name="afii10145" unicode="&#x40f;" horiz-adv-x="631" 
d="M255 0h-172q-18 0 -18 19v682q0 19 18 19h92q17 0 17 -19v-599h247v599q0 19 17 19h92q18 0 18 -19v-682q0 -19 -18 -19h-178v-174q0 -19 -20 -19h-75q-20 0 -20 19v174z" />
    <glyph glyph-name="uni0492" unicode="&#x492;" horiz-adv-x="504" 
d="M229 309v-290q0 -19 -20 -19h-87q-20 0 -20 19v290h-78q-17 0 -17 19v53q0 18 17 18h78v302q0 19 20 19h348q20 0 20 -19v-65q0 -19 -20 -19h-241v-218h126q18 0 18 -18v-53q0 -19 -18 -19h-126z" />
    <glyph glyph-name="uni049A" unicode="&#x49a;" horiz-adv-x="576" 
d="M539 101q15 0 15 -16v-262q0 -16 -15 -16h-73q-15 0 -15 16v177h-27q-13 0 -19 3.5t-13 16.5l-143 273q-6 11 -13 14.5t-18 3.5h-26v-292q0 -19 -20 -19h-87q-20 0 -20 19v682q0 19 20 19h87q20 0 20 -19v-284h25q13 0 19.5 4t14.5 18l152 263q7 12 12 15t16 3h91
q11 0 13.5 -7.5t-3.5 -16.5l-192 -324q15 -28 33.5 -62.5t38 -71.5t38.5 -72.5t35 -64.5h54z" />
    <glyph glyph-name="uni04A2" unicode="&#x4a2;" horiz-adv-x="633" 
d="M542 101h43q18 0 18 -19v-256q0 -19 -18 -19h-79q-18 0 -18 19v174h-53q-20 0 -20 19v294h-223v-294q0 -19 -20 -19h-87q-20 0 -20 19v682q0 19 20 19h87q20 0 20 -19v-286h223v286q0 19 20 19h87q20 0 20 -19v-600z" />
    <glyph glyph-name="uni04AE" unicode="&#x4ae;" horiz-adv-x="515" 
d="M319 283v-264q0 -19 -20 -19h-87q-20 0 -20 19v264l-182 417q-8 20 13 20h87q15 0 22.5 -4t12.5 -15l64 -157q15 -38 29.5 -77t23.5 -69q11 34 24 70.5t29 76.5l63 157q5 11 12 14.5t21 3.5h80q22 0 13 -20z" />
    <glyph glyph-name="uni04B0" unicode="&#x4b0;" horiz-adv-x="515" 
d="M358 371h79q17 0 17 -18v-54q0 -19 -17 -19h-118v-261q0 -19 -20 -19h-87q-20 0 -20 19v261h-117q-18 0 -18 19v54q0 18 18 18h78l-143 329q-8 20 13 20h87q15 0 22.5 -4t12.5 -15l64 -157q15 -38 29.5 -77t23.5 -69q11 34 24 70.5t29 76.5l63 157q5 11 12 14.5t21 3.5
h80q22 0 13 -20z" />
    <glyph glyph-name="uni04BA" unicode="&#x4ba;" horiz-adv-x="575" 
d="M308 475q52 0 92 -11t66.5 -37.5t40 -70t13.5 -108.5v-229q0 -19 -18 -19h-91q-18 0 -18 19v222q0 38 -5 63.5t-17.5 41.5t-33 22.5t-51.5 6.5q-23 0 -47.5 -2.5t-46.5 -5.5v-348q0 -19 -18 -19h-91q-18 0 -18 19v682q0 19 18 19h91q18 0 18 -19v-236q25 4 55.5 7t60.5 3
z" />
    <glyph glyph-name="uni04D8" unicode="&#x4d8;" horiz-adv-x="587" 
d="M271 730q132 0 207.5 -92t75.5 -282q0 -85 -17.5 -153t-51.5 -115t-84 -72.5t-114 -25.5q-70 0 -118.5 27t-79 73.5t-44 108.5t-13.5 133v24q0 16 6 23t22 7h364q-1 56 -11 101t-30 76.5t-49.5 48t-69.5 16.5q-46 0 -78 -11t-62 -27q-10 -5 -14.5 -2t-8.5 12l-22 52
q-7 19 3 25q33 23 84.5 38t104.5 15zM289 93q67 0 97.5 46t37.5 149h-261q2 -90 32 -142.5t94 -52.5z" />
    <glyph glyph-name="uni04E8" unicode="&#x4e8;" horiz-adv-x="620" 
d="M320 730q57 0 106 -20.5t84.5 -64t56 -111.5t20.5 -164q0 -90 -19.5 -160.5t-56 -119t-89.5 -74.5t-120 -26q-57 0 -106.5 20.5t-85.5 64t-56.5 112t-20.5 163.5q0 89 19.5 159.5t56.5 119.5t90 75t121 26zM318 624q-66 0 -106 -56t-48 -165h292q-5 116 -42.5 168.5
t-95.5 52.5zM303 96q66 0 105 55t47 162h-291q5 -114 42 -165.5t97 -51.5z" />
    <glyph glyph-name="afii10065" unicode="&#x430;" horiz-adv-x="512" 
d="M329 384q-30 50 -75 50q-48 0 -71.5 -46.5t-23.5 -129.5q0 -167 91 -167q39 0 57 25q11 15 16.5 41.5t5.5 70.5v156zM460 16q1 -16 -17 -16h-67q-18 0 -22 15q-3 9 -6.5 22t-6.5 28q-16 -32 -46 -53.5t-72 -21.5q-40 0 -74.5 16.5t-59.5 49.5t-39.5 82.5t-14.5 115.5
q0 69 15.5 122t41.5 89t61.5 54.5t76.5 18.5q35 0 63.5 -15t48.5 -41l5 28q1 11 6 14.5t16 3.5h63q19 0 19 -16q0 -12 -0.5 -34t-0.5 -48t-0.5 -54t-0.5 -53v-97q0 -71 3 -121t8 -89z" />
    <glyph glyph-name="afii10066" unicode="&#x431;" horiz-adv-x="533" 
d="M439 762q17 1 17 -19v-53q0 -31 -20 -34q-5 -1 -10.5 -1t-21.5 -1q-61 -5 -106 -15t-74.5 -32.5t-45 -61.5t-17.5 -101q27 28 63 45.5t82 17.5q40 0 75.5 -16.5t61 -48t40.5 -77t15 -103.5q0 -61 -17.5 -111t-48.5 -86t-74 -55.5t-93 -19.5q-62 0 -105 24.5t-71 71
t-40.5 114.5t-12.5 154q0 111 18 185.5t64 121t123.5 70t197.5 31.5zM277 408q-35 0 -64.5 -17t-52.5 -43v-17q0 -125 24.5 -184t84.5 -59q28 0 48 13.5t32.5 36t18.5 52.5t6 63q0 25 -3.5 52.5t-14 50t-29.5 37.5t-50 15z" />
    <glyph glyph-name="afii10066.locl" horiz-adv-x="509" 
d="M291 505q36 -18 71 -39t63 -50.5t45 -71t17 -101.5q0 -59 -19 -106t-51.5 -79.5t-75.5 -50t-90 -17.5q-51 0 -93 17t-72 48t-47 74t-17 96q0 37 11 72t30 65t44 54.5t53 41.5q-15 10 -30.5 24t-28.5 32t-21 40.5t-8 49.5q0 40 15 69.5t42.5 48.5t66 28.5t84.5 9.5
q33 0 72 1.5t67 6.5q15 3 14 -20l-4 -42q-2 -24 -17 -33.5t-50 -9.5h-77q-48 0 -68.5 -14t-20.5 -46q0 -18 7.5 -32t20 -25.5t30 -21t37.5 -19.5zM256 85q48 0 77.5 37t29.5 111q0 40 -9 68.5t-26 49.5t-41.5 36t-56.5 28q-39 -28 -61.5 -76.5t-22.5 -105.5q0 -73 31 -110.5
t79 -37.5z" />
    <glyph glyph-name="afii10067" unicode="&#x432;" horiz-adv-x="495" 
d="M77 0q-16 0 -16 16v496q0 16 16 16h178q89 0 141.5 -31.5t52.5 -102.5q0 -40 -21 -69t-60 -45v-2q47 -8 77 -38t30 -82q0 -45 -17 -75.5t-47 -49t-70.5 -26t-86.5 -7.5h-177zM256 93q46 0 70.5 14t24.5 55q0 42 -25.5 54t-77.5 12h-67v-135h75zM237 315q45 0 66.5 14
t21.5 50q0 19 -5 30t-15.5 16.5t-26 7t-36.5 1.5h-61v-119h56z" />
    <glyph glyph-name="afii10068" unicode="&#x433;" horiz-adv-x="406" 
d="M181 16q0 -16 -15 -16h-89q-16 0 -16 16v496q0 16 16 16h292q15 0 15 -17v-64q0 -17 -15 -17h-188v-414z" />
    <glyph glyph-name="afii10068.alt" horiz-adv-x="419" 
d="M227 88q25 0 51.5 9t60.5 32q17 11 24 -7l24 -52q10 -17 -5 -28q-35 -27 -77 -39.5t-85 -12.5q-85 0 -135.5 40t-50.5 122q0 46 18 75t44.5 47.5t58 29.5t58 21t44.5 23t18 36q0 31 -19.5 43t-43.5 12q-23 0 -48 -7t-52 -25q-16 -9 -25 7l-26 47q-9 16 2 25q30 24 72 38
t90 14q36 0 66 -11t52.5 -30.5t35 -48t12.5 -62.5q0 -51 -18 -82t-44.5 -50t-58 -29.5t-58 -20t-44.5 -22t-18 -35.5q0 -28 21.5 -43.5t55.5 -15.5z" />
    <glyph glyph-name="afii10069" unicode="&#x434;" horiz-adv-x="593" 
d="M546 97q15 0 15 -16v-223q0 -16 -15 -16h-79q-15 0 -15 16v142h-325v-142q0 -16 -15 -16h-79q-15 0 -15 16v223q0 16 15 16h26q54 69 77.5 144.5t23.5 165.5v105q0 16 15 16h308q15 0 15 -16v-415h48zM271 430v-34q0 -83 -19 -158.5t-62 -140.5h188v333h-107z" />
    <glyph glyph-name="afii10069.alt" horiz-adv-x="512" 
d="M354 511q2 9 6.5 13t17.5 4h47q19 0 22 -14q3 -17 4.5 -68.5t1.5 -141.5v-213q0 -55 -1 -97t-5.5 -74t-13.5 -56.5t-26 -44.5q-30 -37 -71.5 -53.5t-99.5 -16.5q-19 0 -38.5 2t-38 5.5t-34.5 8t-28 9.5q-8 4 -11 9t0 16l15 57q3 11 8 14.5t16 -0.5q20 -8 48.5 -13.5
t55.5 -5.5q29 0 50.5 7t34.5 27q11 16 15 40.5t4 58.5v65q-17 -22 -45 -38.5t-64 -16.5q-45 0 -80 19t-59 53.5t-37 83.5t-13 109q0 66 15 118t41 87.5t62.5 54.5t78.5 19q36 0 66.5 -15t51.5 -43zM253 97q47 0 65 30q10 16 12.5 43t2.5 62v147q-12 28 -34 41.5t-46 13.5
q-20 0 -37 -9.5t-29.5 -30.5t-20 -54t-7.5 -80q0 -84 24.5 -123.5t69.5 -39.5z" />
    <glyph glyph-name="afii10070" unicode="&#x435;" horiz-adv-x="493" 
d="M454 269q0 -29 -5 -39t-16 -10h-274q5 -68 35 -97.5t83 -29.5q30 0 62 9t59 23q10 5 14.5 2t8.5 -12l20 -49q4 -11 1.5 -17t-12.5 -12q-35 -23 -78.5 -35t-90.5 -12q-106 0 -166 69t-60 197q0 63 15.5 115t44 89t69 57.5t90.5 20.5q51 0 88.5 -21t62.5 -57t37 -85
t12 -106zM334 311q-5 60 -24 93t-57 33t-62.5 -31t-31.5 -95h175z" />
    <glyph glyph-name="afii10072" unicode="&#x436;" horiz-adv-x="726" 
d="M423 16q0 -16 -15 -16h-90q-15 0 -15 16v203h-13q-7 0 -12.5 -3t-12.5 -14l-114 -184q-11 -18 -35 -18h-88q-8 0 -11 6t2 14l161 251l-155 236q-5 8 -2 14.5t12 6.5h91q11 0 15 -3t10 -13l113 -178q7 -11 12 -14.5t13 -3.5h14v196q0 16 15 16h90q15 0 15 -16v-196h14
q8 0 13 3.5t12 14.5l113 178q6 10 10 13t15 3h91q9 0 12 -6.5t-2 -14.5l-155 -236l161 -251q5 -8 2 -14t-11 -6h-88q-25 0 -35 18l-114 184q-7 11 -12.5 14t-12.5 3h-13v-203z" />
    <glyph glyph-name="afii10073" unicode="&#x437;" horiz-adv-x="419" 
d="M123 236q-14 0 -14 17v51q0 17 14 17h56q48 0 68 15t20 50t-20 47.5t-55 12.5q-26 0 -56.5 -6.5t-52.5 -15.5q-12 -5 -16.5 -1t-7.5 12l-15 45q-7 19 9 26q29 14 71 23t81 9q35 0 66.5 -8t55 -25t37.5 -42.5t14 -59.5q0 -41 -19.5 -71.5t-57.5 -46.5v-1q40 -8 69 -41.5
t29 -81.5q0 -43 -17.5 -75t-46.5 -53.5t-67 -32t-79 -10.5q-42 0 -81.5 7.5t-69.5 21.5q-10 5 -11 11t2 15l17 51q3 10 8 13t16 -2q25 -11 52.5 -17t59.5 -6q51 0 72 19t21 60q0 39 -22.5 56t-75.5 17h-54z" />
    <glyph glyph-name="afii10074" unicode="&#x438;" horiz-adv-x="543" 
d="M467 528q15 0 15 -16v-496q0 -16 -15 -16h-90q-15 0 -15 16v284l-181 -228v-56q0 -16 -15 -16h-90q-15 0 -15 16v496q0 16 15 16h90q15 0 15 -16v-294l181 230v64q0 16 15 16h90z" />
    <glyph glyph-name="afii10075" unicode="&#x439;" horiz-adv-x="543" 
d="M467 528q15 0 15 -16v-496q0 -16 -15 -16h-90q-15 0 -15 16v284l-181 -228v-56q0 -16 -15 -16h-90q-15 0 -15 16v496q0 16 15 16h90q15 0 15 -16v-294l181 230v64q0 16 15 16h90zM272 602q-60 0 -96 34.5t-39 100.5q0 8 3 10.5t10 2.5h52q10 0 12 -12q8 -59 58 -59t58 59
q1 12 12 12h52q7 0 10 -2.5t3 -10.5q-3 -66 -39 -100.5t-96 -34.5z" />
    <glyph glyph-name="afii10076" unicode="&#x43a;" horiz-adv-x="484" 
d="M181 16q0 -16 -17 -16h-86q-17 0 -17 16v496q0 16 17 16h86q17 0 17 -16v-196h18q6 0 9 2t8 10l108 177q9 15 16.5 19t20.5 4h80q8 0 11.5 -6.5t-1.5 -14.5l-146 -231l158 -252q6 -10 3.5 -17t-9.5 -7h-92q-12 0 -17.5 4.5t-10.5 13.5l-120 191q-7 10 -17 10h-19v-203z
" />
    <glyph glyph-name="afii10077" unicode="&#x43b;" horiz-adv-x="557" 
d="M481 528q15 0 15 -16v-496q0 -16 -15 -16h-90q-15 0 -15 16v414h-136v-67q0 -81 -5.5 -141.5t-23 -104t-50.5 -73.5t-88 -50q-13 -5 -18 9l-36 65q-4 9 -2 13.5t10 7.5q30 12 48.5 30t28.5 45t13 64.5t3 88.5v195q0 16 15 16h346z" />
    <glyph glyph-name="afii10078" unicode="&#x43c;" horiz-adv-x="645" 
d="M561 528q9 0 12 -4.5t3 -11.5l19 -496q0 -16 -15 -16h-89q-14 0 -14 16l-4 178q0 18 -0.5 42.5t0 51.5t1 55.5t1.5 53.5l-104 -297q-3 -8 -7.5 -10.5t-11.5 -2.5h-60q-11 0 -16 12l-104 295q2 -50 3 -100.5t-1 -95.5l-5 -182q0 -16 -14 -16h-90q-15 0 -15 16l22 496
q1 9 4 12.5t12 3.5h122q14 0 18 -13l98 -306l99 306q3 8 5.5 10.5t11.5 2.5h119z" />
    <glyph glyph-name="afii10079" unicode="&#x43d;" horiz-adv-x="532" 
d="M455 528q16 0 16 -16v-496q0 -16 -16 -16h-89q-15 0 -15 16v205h-170v-205q0 -16 -15 -16h-89q-16 0 -16 16v496q0 16 16 16h89q15 0 15 -16v-201h170v201q0 16 15 16h89z" />
    <glyph glyph-name="afii10080" unicode="&#x43e;" horiz-adv-x="506" 
d="M260 538q100 0 155.5 -67.5t55.5 -195.5q0 -139 -57 -212t-168 -73q-99 0 -155 66.5t-56 198.5q0 138 58 210.5t167 72.5zM258 434q-51 0 -75 -44.5t-24 -130.5q0 -76 20.5 -120.5t68.5 -44.5q51 0 75 44.5t24 130.5q0 78 -21 121.5t-68 43.5z" />
    <glyph glyph-name="afii10081" unicode="&#x43f;" horiz-adv-x="525" 
d="M449 528q15 0 15 -16v-496q0 -16 -15 -16h-90q-15 0 -15 16v414h-163v-414q0 -16 -15 -16h-90q-15 0 -15 16v496q0 16 15 16h373z" />
    <glyph glyph-name="afii10081.alt" 
d="M465 16q0 -16 -17 -16h-86q-17 0 -17 16v270q0 45 -5 73t-15 43.5t-25 21t-34 5.5q-35 0 -57 -19q-11 -9 -16.5 -22t-7.5 -31.5t-2 -44v-58.5v-238q0 -16 -17 -16h-86q-17 0 -17 16v273q0 29 -0.5 60.5t-1.5 61.5t-1.5 56.5t-1.5 44.5q0 16 17 16h76q10 0 13.5 -3.5
t5.5 -11.5q3 -17 5 -41q20 30 55 48t74 18q81 0 121 -52.5t40 -164.5v-305z" />
    <glyph glyph-name="afii10082" unicode="&#x440;" horiz-adv-x="514" 
d="M183 131q30 -38 76 -38q48 0 72 46.5t24 133.5t-24 124.5t-69 37.5q-20 0 -38 -7.5t-27 -21.5q-9 -12 -11.5 -29.5t-2.5 -51.5v-194zM175 476q22 29 54 45.5t69 16.5q43 0 77 -19.5t57 -54.5t35 -84t12 -107q0 -27 -4 -58.5t-13 -63t-24 -60.5t-36.5 -51.5t-50.5 -36
t-67 -13.5q-25 0 -51.5 9.5t-49.5 27.5v-252q0 -17 -17 -17h-86q-17 0 -17 17v568q0 49 -1.5 94.5t-3.5 74.5q0 16 17 16h77q10 0 13.5 -3.5t5.5 -11.5q2 -11 4 -37z" />
    <glyph glyph-name="afii10083" unicode="&#x441;" horiz-adv-x="441" 
d="M413 485q9 -8 9 -16t-5 -16l-25 -47q-10 -20 -27 -7q-20 16 -44 25.5t-49 9.5q-50 0 -81.5 -41.5t-31.5 -126.5q0 -84 29.5 -128t90.5 -44q24 0 45 6.5t41 17.5q8 5 14 3.5t11 -12.5l19 -45q5 -11 4 -18t-9 -12q-31 -21 -68 -32.5t-78 -11.5q-103 0 -163 69t-60 200
q0 72 18 125t49 87t73 50.5t89 16.5q42 0 79.5 -14t69.5 -39z" />
    <glyph glyph-name="afii10084" unicode="&#x442;" horiz-adv-x="459" 
d="M428 528q15 0 15 -17v-63q0 -17 -15 -17h-140v-415q0 -16 -15 -16h-90q-15 0 -15 16v415h-137q-15 0 -15 17v63q0 17 15 17h397z" />
    <glyph glyph-name="afii10084.alt" horiz-adv-x="795" 
d="M175 472q18 26 51.5 45.5t74.5 19.5q43 0 75 -21t52 -59q26 37 64 59t91 22q78 0 117.5 -52.5t39.5 -164.5v-305q0 -16 -18 -16h-85q-17 0 -17 16v270q0 49 -5 77.5t-15 43t-25 18.5t-34 4q-16 0 -29.5 -4t-23.5 -13q-21 -19 -23.5 -55t-2.5 -103v-238q0 -16 -17 -16h-86
q-17 0 -17 16v270q0 49 -5.5 77.5t-15.5 43t-25 18.5t-33 4q-17 0 -30 -3.5t-24 -13.5q-20 -18 -23 -54.5t-3 -103.5v-238q0 -16 -17 -16h-86q-17 0 -17 16v273q0 29 -0.5 60.5t-1.5 61.5t-1.5 56.5t-1.5 44.5q0 16 17 16h76q10 0 13.5 -3.5t5.5 -11.5q3 -17 5 -41z" />
    <glyph glyph-name="afii10085" unicode="&#x443;" horiz-adv-x="524" 
d="M462 1q0 -130 -48 -188q-27 -32 -71 -48.5t-101 -16.5q-38 0 -72 6.5t-60 15.5q-8 3 -11.5 8t-0.5 16l9 58q2 10 6 13.5t14 1.5q24 -6 53 -11t53 -5q37 0 60.5 10t34.5 25q12 16 18 40t6 66v60q-23 -26 -54 -44t-73 -18q-46 0 -78 14t-52 39q-23 28 -31.5 69.5t-8.5 95.5
v304q0 16 15 16h90q15 0 15 -16v-264q0 -55 2 -81t13 -41q20 -27 61 -27q21 0 36 5t28 16q13 10 17.5 23.5t6.5 31.5q2 20 2.5 45.5t0.5 66.5v225q0 16 16 16h89q15 0 15 -16v-511z" />
    <glyph glyph-name="afii10086" unicode="&#x444;" horiz-adv-x="639" 
d="M490 265q0 75 -28.5 118t-88.5 52v-345q57 11 87 54t30 121zM149 261q0 -33 6 -62t19.5 -51.5t36 -38t55.5 -20.5v346q-55 -9 -86 -52.5t-31 -121.5zM265 750q0 16 15 16h79q15 0 15 -16v-219q50 -4 93.5 -23.5t76 -53.5t51.5 -81.5t19 -105.5q0 -60 -18 -108t-50 -83
t-76 -55.5t-96 -25.5v-212q0 -16 -15 -16h-79q-15 0 -15 16v211q-52 4 -96 24.5t-76 54.5t-50 81.5t-18 106.5t18.5 107t51 82.5t76 55t94.5 24.5v220z" />
    <glyph glyph-name="afii10087" unicode="&#x445;" horiz-adv-x="449" 
d="M444 20q5 -8 2.5 -14t-13.5 -6h-85q-11 0 -18.5 3t-12.5 12l-94 174l-89 -174q-5 -9 -12 -12t-18 -3h-78q-11 0 -13.5 6.5t2.5 14.5l149 257l-139 230q-5 8 -2.5 14t13.5 6h84q22 0 30 -15l77 -146l77 146q5 9 11 12t19 3h78q11 0 13.5 -6t-2.5 -14l-134 -225z" />
    <glyph glyph-name="afii10088" unicode="&#x446;" horiz-adv-x="558" 
d="M515 97q15 0 15 -16v-223q0 -16 -15 -16h-79q-15 0 -15 16v142h-345q-15 0 -15 16v496q0 16 15 16h89q15 0 15 -16v-415h170v415q0 16 15 16h90q15 0 15 -16v-415h45z" />
    <glyph glyph-name="afii10089" unicode="&#x447;" horiz-adv-x="511" 
d="M330 172q-20 -7 -47 -12t-62 -5q-94 0 -136.5 47t-42.5 150v160q0 16 15 16h90q15 0 15 -16v-156q0 -30 4 -51t14 -33.5t26.5 -18t41.5 -5.5q24 0 44 4t38 10v250q0 16 15 16h90q15 0 15 -16v-496q0 -16 -15 -16h-90q-15 0 -15 16v156z" />
    <glyph glyph-name="afii10090" unicode="&#x448;" horiz-adv-x="766" 
d="M690 528q15 0 15 -16v-496q0 -16 -15 -16h-614q-15 0 -15 16v496q0 16 15 16h90q15 0 15 -16v-415h142v415q0 16 15 16h90q15 0 15 -16v-415h142v415q0 16 15 16h90z" />
    <glyph glyph-name="afii10091" unicode="&#x449;" horiz-adv-x="793" 
d="M585 512q0 16 15 16h90q15 0 15 -16v-415h45q15 0 15 -16v-223q0 -16 -15 -16h-79q-15 0 -15 16v142h-580q-15 0 -15 16v496q0 16 15 16h90q15 0 15 -16v-415h142v415q0 16 15 16h90q15 0 15 -16v-415h142v415z" />
    <glyph glyph-name="afii10092" unicode="&#x44a;" horiz-adv-x="537" 
d="M296 323q39 0 75.5 -10t64.5 -29.5t44.5 -48.5t16.5 -67q0 -46 -18 -79t-49 -54t-72 -31t-87 -10q-20 0 -41.5 0.5t-41.5 2t-37 4t-29 5.5q-15 4 -19.5 11t-4.5 26v392h-77q-14 0 -14 17v59q0 17 14 17h182q15 0 15 -16v-198q18 4 38.5 6.5t39.5 2.5zM275 86
q45 0 71.5 16t26.5 58q0 36 -23.5 53t-67.5 17q-19 0 -33 -1.5t-31 -6.5v-132q14 -2 27.5 -3t29.5 -1z" />
    <glyph glyph-name="afii10093" unicode="&#x44b;" horiz-adv-x="728" 
d="M262 323q41 0 77 -9.5t62.5 -29t42 -48.5t15.5 -67q0 -46 -18.5 -79t-49.5 -54.5t-73 -31.5t-88 -10q-40 0 -79 3t-68 10q-14 4 -18 12t-4 27v466q0 16 15 16h90q15 0 15 -16v-198q18 4 39 6.5t42 2.5zM237 86q45 0 71.5 16t26.5 58q0 70 -89 70q-18 0 -32.5 -1.5
t-32.5 -6.5v-132q14 -2 27 -3t29 -1zM561 0q-17 0 -17 16v496q0 16 17 16h86q17 0 17 -16v-496q0 -16 -17 -16h-86z" />
    <glyph glyph-name="afii10094" unicode="&#x44c;" horiz-adv-x="499" 
d="M262 323q41 0 77 -9.5t62.5 -29t42 -48.5t15.5 -67q0 -46 -18.5 -79t-49.5 -54.5t-73 -31.5t-88 -10q-40 0 -79 3t-68 10q-14 4 -18 12t-4 27v466q0 16 15 16h90q15 0 15 -16v-198q18 4 39 6.5t42 2.5zM237 86q45 0 71.5 16t26.5 58q0 70 -89 70q-18 0 -32.5 -1.5
t-32.5 -6.5v-132q14 -2 27 -3t29 -1z" />
    <glyph glyph-name="afii10095" unicode="&#x44d;" horiz-adv-x="451" 
d="M112 224q-15 0 -15 17v53q0 17 15 17h196q-4 64 -35.5 95.5t-79.5 31.5q-25 0 -51 -7t-55 -25q-9 -6 -14 -4t-8 8l-27 58q-5 8 -2.5 13t7.5 9q34 23 77.5 35.5t88.5 12.5q52 0 94 -20t71.5 -55.5t45.5 -85.5t16 -110q0 -61 -15 -112t-46 -87.5t-77 -57t-107 -20.5
q-19 0 -40 3t-41 8.5t-38.5 13t-32.5 17.5q-10 8 -6 21l22 57q5 15 18 8q29 -16 56.5 -22.5t56.5 -6.5q59 0 87 35t35 100h-196z" />
    <glyph glyph-name="afii10096" unicode="&#x44e;" horiz-adv-x="734" 
d="M486 538q47 0 86.5 -17t67.5 -50.5t43.5 -83t15.5 -113.5q0 -138 -62 -211t-167 -73q-91 0 -149 59t-64 172h-76v-205q0 -16 -15 -16h-90q-15 0 -15 16v496q0 16 15 16h90q15 0 15 -16v-201h78q12 111 72 169t155 58zM473 94q102 0 102 174q0 35 -4.5 65.5t-15 52.5
t-28.5 34.5t-45 12.5q-104 0 -104 -174q0 -35 4.5 -65.5t15.5 -52.5t29.5 -34.5t45.5 -12.5z" />
    <glyph glyph-name="afii10097" unicode="&#x44f;" horiz-adv-x="476" 
d="M234 435q-41 0 -62 -14t-21 -53q0 -35 20.5 -53.5t65.5 -18.5h58v139h-61zM114 229q-15 7 -30.5 19t-28 29t-20.5 39t-8 51q0 40 15 70t42 50.5t64 30.5t81 10h171q15 0 15 -16v-496q0 -16 -15 -16h-90q-15 0 -15 16v190h-50q-14 0 -19.5 -5t-12.5 -22l-70 -161
q-5 -10 -10.5 -14t-17.5 -4h-92q-7 0 -9.5 7t3.5 17z" />
    <glyph glyph-name="afii10100" unicode="&#x453;" horiz-adv-x="406" 
d="M181 16q0 -16 -15 -16h-89q-16 0 -16 16v496q0 16 16 16h292q15 0 15 -17v-64q0 -17 -15 -17h-188v-414zM178 591q-6 0 -9 3t1 10l83 151q4 6 7 8.5t11 2.5h79q8 0 10 -4t-3 -11l-104 -150q-4 -5 -8.5 -7.5t-14.5 -2.5h-52z" />
    <glyph glyph-name="afii10098" unicode="&#x491;" horiz-adv-x="406" 
d="M181 430v-414q0 -16 -15 -16h-89q-16 0 -16 16v496q0 16 16 16h210v115q0 16 15 16h67q15 0 15 -16v-197q0 -16 -15 -16h-188z" />
    <glyph glyph-name="afii10099" unicode="&#x452;" horiz-adv-x="534" 
d="M185 447q19 27 49 43t69 16q50 0 87 -23t61 -63t36 -93t12 -113q0 -83 -14.5 -145t-40.5 -103t-61.5 -62t-76.5 -21q-6 0 -20 0.5t-27 2.5q-14 3 -14 18v57q0 15 15 15q5 0 12.5 -0.5t13.5 -0.5q28 0 45.5 17.5t28 48.5t14.5 73t4 92q0 35 -4 70t-15 63.5t-30.5 46
t-50.5 17.5q-32 0 -50.5 -15.5t-29.5 -43.5q-8 -19 -10.5 -46.5t-2.5 -59.5v-222q0 -16 -16 -16h-89q-15 0 -15 16v572h-56q-15 0 -15 17v50q0 17 15 17h56v78q0 16 15 16h89q16 0 16 -16v-78h172q14 0 14 -17v-50q0 -17 -14 -17h-172v-141z" />
    <glyph glyph-name="afii10101" unicode="&#x454;" horiz-adv-x="456" 
d="M160 224q7 -62 37.5 -98.5t87.5 -36.5q25 0 50.5 6.5t55.5 20.5q15 7 19 -8l21 -56q4 -13 -8 -21q-36 -23 -73 -32t-75 -9q-58 0 -103 20t-75.5 56t-46 85.5t-15.5 108.5q0 63 17.5 114.5t49.5 88t77 56t101 19.5q45 0 82 -13t68 -37q11 -9 3 -22l-28 -56q-9 -15 -21 -5
q-22 16 -46.5 24.5t-51.5 8.5q-48 0 -82 -30t-43 -97h196q14 0 14 -17v-53q0 -17 -14 -17h-197z" />
    <glyph glyph-name="afii10102" unicode="&#x455;" horiz-adv-x="419" 
d="M319 412q-18 13 -40.5 20.5t-45.5 7.5q-30 0 -50 -14t-20 -42q0 -26 19 -38t45 -23q25 -9 53.5 -19.5t51.5 -28t38.5 -45t15.5 -70.5q0 -38 -13.5 -69.5t-37.5 -54t-58.5 -34.5t-76.5 -12q-47 0 -89 15t-74 39q-14 11 -5 30l26 46q11 20 26 9q54 -41 110 -41q34 0 55 17
t21 44q0 15 -7.5 26t-20.5 18.5t-29.5 14t-34.5 12.5q-25 8 -48.5 20t-42 30t-29.5 44t-11 62t14 65.5t39 51t57.5 33.5t70.5 12q40 0 76.5 -12t65.5 -35q16 -13 5 -30l-27 -42q-7 -11 -13.5 -11.5t-15.5 4.5z" />
    <glyph glyph-name="uni0450" unicode="&#x450;" horiz-adv-x="493" 
d="M454 269q0 -29 -5 -39t-16 -10h-274q5 -68 35 -97.5t83 -29.5q30 0 62 9t59 23q10 5 14.5 2t8.5 -12l20 -49q4 -11 1.5 -17t-12.5 -12q-35 -23 -78.5 -35t-90.5 -12q-106 0 -166 69t-60 197q0 63 15.5 115t44 89t69 57.5t90.5 20.5q51 0 88.5 -21t62.5 -57t37 -85
t12 -106zM334 311q-5 60 -24 93t-57 33t-62.5 -31t-31.5 -95h175zM253 591q-8 0 -11.5 2.5t-7.5 7.5l-104 150q-5 7 -3 11t10 4h79q8 0 11 -2.5t7 -8.5l83 -151q4 -7 2 -10t-7 -3h-59z" />
    <glyph glyph-name="afii10071" unicode="&#x451;" horiz-adv-x="493" 
d="M454 269q0 -29 -5 -39t-16 -10h-274q5 -68 35 -97.5t83 -29.5q30 0 62 9t59 23q10 5 14.5 2t8.5 -12l20 -49q4 -11 1.5 -17t-12.5 -12q-35 -23 -78.5 -35t-90.5 -12q-106 0 -166 69t-60 197q0 63 15.5 115t44 89t69 57.5t90.5 20.5q51 0 88.5 -21t62.5 -57t37 -85
t12 -106zM334 311q-5 60 -24 93t-57 33t-62.5 -31t-31.5 -95h175zM113 612q-15 0 -15 16v86q0 16 15 16h77q16 0 16 -16v-86q0 -16 -16 -16h-77zM310 612q-15 0 -15 16v86q0 16 15 16h77q16 0 16 -16v-86q0 -16 -16 -16h-77z" />
    <glyph glyph-name="afii10103" unicode="&#x456;" horiz-adv-x="248" 
d="M81 0q-17 0 -17 16v496q0 16 17 16h86q17 0 17 -16v-496q0 -16 -17 -16h-86zM77 627q-18 0 -18 17v101q0 17 18 17h94q19 0 19 -17v-101q0 -17 -19 -17h-94z" />
    <glyph glyph-name="afii10104" unicode="&#x457;" horiz-adv-x="248" 
d="M-15 612q-15 0 -15 16v86q0 16 15 16h77q16 0 16 -16v-86q0 -16 -16 -16h-77zM182 612q-15 0 -15 16v86q0 16 15 16h77q16 0 16 -16v-86q0 -16 -16 -16h-77zM81 0q-17 0 -17 16v496q0 16 17 16h86q17 0 17 -16v-496q0 -16 -17 -16h-86z" />
    <glyph glyph-name="afii10105" unicode="&#x458;" horiz-adv-x="254" 
d="M83 627q-18 0 -18 17v101q0 17 18 17h94q19 0 19 -17v-101q0 -17 -19 -17h-94zM-41 -127q10 -2 21.5 -4t21.5 -2q38 0 53 27t15 95v523q0 16 17 16h86q17 0 17 -16v-508q0 -65 -12 -110.5t-34.5 -73.5t-54.5 -40.5t-71 -12.5q-24 0 -46 5t-35 11q-16 8 -12 25l10 49
q4 20 24 16z" />
    <glyph glyph-name="uni045D" unicode="&#x45d;" horiz-adv-x="543" 
d="M467 528q15 0 15 -16v-496q0 -16 -15 -16h-90q-15 0 -15 16v284l-181 -228v-56q0 -16 -15 -16h-90q-15 0 -15 16v496q0 16 15 16h90q15 0 15 -16v-294l181 230v64q0 16 15 16h90zM279 591q-8 0 -11.5 2.5t-7.5 7.5l-104 150q-5 7 -3 11t10 4h79q8 0 11 -2.5t7 -8.5
l83 -151q4 -7 2 -10t-7 -3h-59z" />
    <glyph glyph-name="afii10109" unicode="&#x45c;" horiz-adv-x="484" 
d="M181 16q0 -16 -17 -16h-86q-17 0 -17 16v496q0 16 17 16h86q17 0 17 -16v-196h18q6 0 9 2t8 10l108 177q9 15 16.5 19t20.5 4h80q8 0 11.5 -6.5t-1.5 -14.5l-146 -231l158 -252q6 -10 3.5 -17t-9.5 -7h-92q-12 0 -17.5 4.5t-10.5 13.5l-120 191q-7 10 -17 10h-19v-203z
M204 591q-6 0 -9 3t1 10l83 151q4 6 7 8.5t11 2.5h79q8 0 10 -4t-3 -11l-104 -150q-4 -5 -8.5 -7.5t-14.5 -2.5h-52z" />
    <glyph glyph-name="afii10106" unicode="&#x459;" horiz-adv-x="786" 
d="M240 363q0 -81 -5.5 -141.5t-23 -104t-50.5 -73.5t-88 -50q-13 -5 -18 9l-36 65q-4 9 -2 13.5t10 7.5q30 12 48.5 30t28.5 45t13 64.5t3 88.5v195q0 16 15 16h317q15 0 15 -16v-198q18 4 38.5 6.5t39.5 2.5q39 0 75.5 -10t64.5 -29.5t44.5 -48.5t16.5 -67q0 -46 -18 -79
t-49 -54t-72 -31t-87 -10q-20 0 -41.5 0.5t-41.5 2t-37 4t-29 5.5q-15 4 -19.5 11t-4.5 26v392h-107v-72zM524 86q45 0 71.5 16t26.5 58q0 36 -23.5 53t-67.5 17q-19 0 -33 -1.5t-31 -6.5v-132q14 -2 27.5 -3t29.5 -1z" />
    <glyph glyph-name="afii10107" unicode="&#x45a;" horiz-adv-x="789" 
d="M351 221h-170v-205q0 -16 -15 -16h-89q-16 0 -16 16v496q0 16 16 16h89q15 0 15 -16v-201h170v201q0 16 15 16h89q16 0 16 -16v-198q18 4 39 6.5t42 2.5q41 0 77 -9.5t62.5 -29t42 -48.5t15.5 -67q0 -46 -18.5 -79t-49.5 -54.5t-73 -31.5t-88 -10q-40 0 -79 3t-68 10
q-14 4 -18 12t-4 27v175zM527 86q45 0 71.5 16t26.5 58q0 70 -89 70q-18 0 -32.5 -1.5t-32.5 -6.5v-132q14 -2 27 -3t29 -1z" />
    <glyph glyph-name="afii10108" unicode="&#x45b;" horiz-adv-x="529" 
d="M72 588h-48q-14 0 -14 17v50q0 17 14 17h48v78q0 16 17 16h86q17 0 17 -16v-78h151q14 0 14 -17v-50q0 -17 -14 -17h-151v-124q21 23 53.5 36.5t67.5 13.5q38 0 68.5 -13t51.5 -39q22 -29 31.5 -67.5t9.5 -97.5v-281q0 -16 -18 -16h-85q-17 0 -17 16v246q0 51 -3.5 76
t-13.5 40q-17 27 -59 27q-37 0 -60 -20q-12 -11 -17 -25t-7 -35q-2 -17 -2 -45.5v-60.5v-203q0 -16 -17 -16h-86q-17 0 -17 16v572z" />
    <glyph glyph-name="afii10110" unicode="&#x45e;" horiz-adv-x="524" 
d="M260 602q-60 0 -96 34.5t-39 100.5q0 8 3 10.5t10 2.5h52q10 0 12 -12q8 -59 58 -59t58 59q1 12 12 12h52q7 0 10 -2.5t3 -10.5q-3 -66 -39 -100.5t-96 -34.5zM462 1q0 -130 -48 -188q-27 -32 -71 -48.5t-101 -16.5q-38 0 -72 6.5t-60 15.5q-8 3 -11.5 8t-0.5 16l9 58
q2 10 6 13.5t14 1.5q24 -6 53 -11t53 -5q37 0 60.5 10t34.5 25q12 16 18 40t6 66v60q-23 -26 -54 -44t-73 -18q-46 0 -78 14t-52 39q-23 28 -31.5 69.5t-8.5 95.5v304q0 16 15 16h90q15 0 15 -16v-264q0 -55 2 -81t13 -41q20 -27 61 -27q21 0 36 5t28 16q13 10 17.5 23.5
t6.5 31.5q2 20 2.5 45.5t0.5 66.5v225q0 16 16 16h89q15 0 15 -16v-511z" />
    <glyph glyph-name="afii10193" unicode="&#x45f;" horiz-adv-x="531" 
d="M321 0v-142q0 -16 -16 -16h-79q-15 0 -15 16v142h-135q-15 0 -15 16v496q0 16 15 16h89q15 0 15 -16v-415h170v415q0 16 15 16h90q15 0 15 -16v-496q0 -16 -15 -16h-134z" />
    <glyph glyph-name="afii00208" unicode="&#x2015;" horiz-adv-x="1000" 
d="M960 263q0 -17 -15 -17h-890q-15 0 -15 17v61q0 17 15 17h890q15 0 15 -17v-61z" />
    <glyph glyph-name="uni0493" unicode="&#x493;" horiz-adv-x="440" 
d="M215 299h127q16 0 16 -17v-51q0 -17 -16 -17h-127v-198q0 -16 -15 -16h-89q-16 0 -16 16v198h-71q-16 0 -16 17v51q0 17 16 17h71v213q0 16 16 16h292q15 0 15 -17v-64q0 -17 -15 -17h-188v-131z" />
    <glyph glyph-name="uni049B" unicode="&#x49b;" horiz-adv-x="522" 
d="M181 16q0 -16 -17 -16h-86q-17 0 -17 16v496q0 16 17 16h86q17 0 17 -16v-196h18q6 0 9 2t8 10l108 177q9 15 16.5 19t20.5 4h80q8 0 11.5 -6.5t-1.5 -14.5l-146 -231l112 -179h62q15 0 15 -16v-223q0 -16 -15 -16h-79q-15 0 -15 16v142h-20q-12 0 -17.5 4.5t-10.5 13.5
l-120 191q-7 10 -17 10h-19v-203z" />
    <glyph glyph-name="uni04A3" unicode="&#x4a3;" horiz-adv-x="563" 
d="M366 0q-15 0 -15 16v205h-170v-205q0 -16 -15 -16h-89q-16 0 -16 16v496q0 16 16 16h89q15 0 15 -16v-201h170v201q0 16 15 16h89q16 0 16 -16v-415h45q15 0 15 -16v-223q0 -16 -15 -16h-79q-15 0 -15 16v142h-56z" />
    <glyph glyph-name="uni04AF" unicode="&#x4af;" horiz-adv-x="464" 
d="M457 510q-20 -60 -40 -124t-41 -128.5t-41.5 -128t-39.5 -123.5v-216q0 -16 -17 -16h-86q-17 0 -17 16v208l-168 511q-7 19 11 19h99q13 0 17 -13q13 -48 26 -94t26 -94t25.5 -101t26.5 -115q12 61 24 114t24 101.5t24.5 94.5t26.5 94q2 7 5.5 10t12.5 3h90q19 0 12 -18z
" />
    <glyph glyph-name="uni04B1" unicode="&#x4b1;" horiz-adv-x="464" 
d="M457 510q-37 -113 -75.5 -234.5t-75.5 -235.5h92q16 0 16 -17v-49q0 -17 -16 -17h-103v-167q0 -16 -17 -16h-86q-17 0 -17 16v167h-97q-16 0 -16 17v49q0 17 16 17h83l-154 469q-7 19 11 19h99q13 0 17 -13q13 -48 26 -94t26 -94t25.5 -101t26.5 -115q12 61 24 114
t24 101.5t24.5 94.5t26.5 94q2 7 5.5 10t12.5 3h90q19 0 12 -18z" />
    <glyph glyph-name="uni04BB" unicode="&#x4bb;" horiz-adv-x="518" 
d="M61 750q0 16 17 16h86q17 0 17 -16v-262q21 23 53.5 36.5t67.5 13.5q38 0 68.5 -13t51.5 -39q22 -29 31.5 -67.5t9.5 -97.5v-305q0 -16 -18 -16h-85q-17 0 -17 16v270q0 51 -3.5 76t-13.5 40q-17 27 -59 27q-37 0 -60 -20q-12 -11 -17 -25t-7 -35q-2 -17 -2 -45.5v-60.5
v-227q0 -16 -17 -16h-86q-17 0 -17 16v734z" />
    <glyph glyph-name="afii10846" unicode="&#x4d9;" horiz-adv-x="493" 
d="M34.998 258.984q0 28.998 5 38.9971q4.99902 10 15.998 10h273.983q-4.99902 67.9951 -34.9971 97.4941q-29.999 29.498 -82.9951 29.498q-29.998 0 -61.9961 -9q-31.998 -8.99902 -58.9971 -22.998q-9.99902 -5 -14.499 -2q-4.49902 3 -8.49902 11.999l-19.999 48.9971
q-4 10.999 -1.5 16.999t12.499 11.999q34.998 22.999 78.4951 34.998q43.498 11.999 90.4951 11.999q105.993 0 165.989 -68.9951q59.9971 -68.9961 59.9971 -196.988q0 -62.9961 -15.499 -114.993t-43.998 -88.9941q-28.498 -36.998 -68.9951 -57.4971
q-40.498 -20.498 -90.4951 -20.498q-50.9971 0 -88.4941 20.998q-37.498 20.999 -62.4961 56.9971q-24.999 35.998 -36.998 84.9941q-11.999 48.9971 -11.999 105.994zM154.99 216.986q5 -59.9961 23.999 -92.9941t56.9961 -32.998q37.998 0 62.4961 30.998
q24.499 30.998 31.498 94.9941h-174.989z" />
    <glyph glyph-name="uni04E9" unicode="&#x4e9;" horiz-adv-x="506" 
d="M260 538q100 0 155.5 -67.5t55.5 -195.5q0 -139 -57 -212t-168 -73q-99 0 -155 66.5t-56 198.5q0 138 58 210.5t167 72.5zM258 434q-85 0 -97 -127h184q-5 60 -25.5 93.5t-61.5 33.5zM248 94q85 0 97 126h-185q5 -59 25.5 -92.5t62.5 -33.5z" />
    <glyph glyph-name="Delta" unicode="&#x394;" horiz-adv-x="581" 
d="M325 720q15 0 22.5 -4t11.5 -16l191 -588q8 -23 8 -47v-43q0 -22 -26 -22h-485q-15 0 -19.5 6.5t-4.5 19.5v38q0 14 1.5 25t6.5 25l192 586q4 11 10.5 15.5t22.5 4.5h69zM155 112h265l-132 439z" />
    <glyph glyph-name="Omega" unicode="&#x3a9;" horiz-adv-x="673" 
d="M376 0q-8 0 -11 6t-3 37v6q0 21 3 27.5t11 12.5q52 36 86 105t34 177q0 127 -44 190t-114 63q-71 0 -116 -63.5t-45 -191.5q0 -108 34.5 -176t85.5 -104q8 -6 10.5 -13t2.5 -27v-6q0 -31 -2.5 -37t-10.5 -6h-227q-20 0 -20 19v64q0 19 20 19h86q-21 20 -40 48.5t-33 64
t-22.5 75.5t-8.5 83q0 88 22 155t61 112t91 67.5t112 22.5t111.5 -22.5t90 -67.5t60 -111t21.5 -153q0 -44 -8.5 -85t-23 -76t-33.5 -64t-40 -49h86q20 0 20 -19v-64q0 -19 -20 -19h-226z" />
    <glyph glyph-name="mu" unicode="&#x3bc;" horiz-adv-x="534" 
d="M64 -225q-2 54 -3 121.5t-1 134.5v481q0 16 17 16h86q17 0 17 -16v-296q0 -57 18.5 -88t57.5 -31q17 0 32.5 5.5t27.5 18.5q19 20 21 56t2 98v237q0 16 18 16h85q17 0 17 -16v-381q0 -28 1 -59t3 -50q1 -22 -20 -22h-65q-17 0 -19 14q-2 11 -2.5 26t-1.5 32
q-14 -36 -40.5 -59t-61.5 -23q-51 0 -74 38q0 -69 1.5 -134.5t3.5 -118.5q1 -17 -17 -17h-86q-16 0 -17 17z" />
    <glyph glyph-name="pi" unicode="&#x3c0;" horiz-adv-x="610" 
d="M26 433q-16 0 -16 17v61q0 17 16 17h532q16 0 16 -17v-61q0 -17 -16 -17h-83v-280q0 -34 6.5 -48t29.5 -14q11 0 24 2.5t22 7.5q6 3 11.5 1.5t7.5 -10.5l11 -49q4 -17 -7 -25q-20 -15 -44.5 -21.5t-51.5 -6.5q-71 0 -100 37.5t-29 122.5v282h-139v-416q0 -16 -17 -16h-86
q-17 0 -17 16v417h-70z" />
    <glyph glyph-name="apple" unicode="&#xf8ff;" horiz-adv-x="539" 
d="M471 542v-66h-201v-66h201v-202h-269v66h202v69h-202v199h269zM471 676v-66h-334v-543h74v-67h-141v676h401z" />
	k="20" />
  </font>
</defs>
</svg>
